<svg width="99" height="49" viewBox="0 0 99 49" fill="none" xmlns="http://www.w3.org/2000/svg">
<path d="M37 37L37 18.5C37 8.28274 28.7173 1.41726e-05 18.5 1.28328e-05V1.28328e-05C8.28274 1.1493e-05 1.02826e-05 8.28274 8.94276e-06 18.5L6.51678e-06 37L37 37Z" fill="#017CF9"/>
<path d="M7.78945 36.9999C7.78945 30.9054 12.73 25.9648 18.8245 25.9648C24.919 25.9648 29.8596 30.9054 29.8596 36.9999L7.78945 36.9999Z" fill="#FE3278"/>
<path d="M7.78945 37.0001C7.78945 43.0946 12.73 48.0352 18.8245 48.0352C24.919 48.0352 29.8596 43.0946 29.8596 37.0001L7.78945 37.0001Z" fill="#FCD451"/>
<path d="M18.5 22.0703C21.5472 22.0703 24.0175 19.6 24.0175 16.5528V16.5528C24.0175 13.5055 21.5472 11.0352 18.5 11.0352V11.0352C15.4527 11.0352 12.9824 13.5055 12.9824 16.5528V16.5528C12.9824 19.6 15.4527 22.0703 18.5 22.0703V22.0703Z" fill="#FAFAFF"/>
<path d="M54.44 31.5176V17.4576H57.16V31.5176H54.44ZM56.44 31.5176V29.0976H63.6V31.5176H56.44ZM69.5594 31.7176C68.586 31.7176 67.706 31.4976 66.9194 31.0576C66.146 30.6042 65.526 29.9976 65.0594 29.2376C64.606 28.4642 64.3794 27.6042 64.3794 26.6576C64.3794 25.7109 64.606 24.8642 65.0594 24.1176C65.5127 23.3576 66.1327 22.7576 66.9194 22.3176C67.706 21.8642 68.5794 21.6376 69.5394 21.6376C70.526 21.6376 71.406 21.8642 72.1794 22.3176C72.966 22.7576 73.586 23.3576 74.0394 24.1176C74.4927 24.8642 74.7194 25.7109 74.7194 26.6576C74.7194 27.6042 74.4927 28.4642 74.0394 29.2376C73.586 29.9976 72.966 30.6042 72.1794 31.0576C71.406 31.4976 70.5327 31.7176 69.5594 31.7176ZM69.5394 29.2776C70.0327 29.2776 70.466 29.1709 70.8394 28.9576C71.226 28.7309 71.5194 28.4242 71.7194 28.0376C71.9327 27.6376 72.0394 27.1842 72.0394 26.6776C72.0394 26.1709 71.9327 25.7242 71.7194 25.3376C71.506 24.9509 71.2127 24.6509 70.8394 24.4376C70.466 24.2109 70.0327 24.0976 69.5394 24.0976C69.0594 24.0976 68.6327 24.2109 68.2594 24.4376C67.886 24.6509 67.5927 24.9509 67.3794 25.3376C67.166 25.7242 67.0594 26.1709 67.0594 26.6776C67.0594 27.1842 67.166 27.6376 67.3794 28.0376C67.5927 28.4242 67.886 28.7309 68.2594 28.9576C68.6327 29.1709 69.0594 29.2776 69.5394 29.2776ZM80.4461 35.7976C79.4194 35.7976 78.5128 35.6109 77.7261 35.2376C76.9394 34.8776 76.3128 34.3642 75.8461 33.6976L77.5061 32.0376C77.8794 32.4776 78.2928 32.8109 78.7461 33.0376C79.2128 33.2776 79.7728 33.3976 80.4261 33.3976C81.2394 33.3976 81.8794 33.1909 82.3461 32.7776C82.8261 32.3642 83.0661 31.7909 83.0661 31.0576V28.6376L83.5061 26.5176L83.0861 24.3976V21.8576H85.6861V31.0176C85.6861 31.9776 85.4594 32.8109 85.0061 33.5176C84.5661 34.2376 83.9528 34.7976 83.1661 35.1976C82.3794 35.5976 81.4728 35.7976 80.4461 35.7976ZM80.3261 31.2576C79.4594 31.2576 78.6794 31.0509 77.9861 30.6376C77.2928 30.2109 76.7461 29.6309 76.3461 28.8976C75.9594 28.1642 75.7661 27.3442 75.7661 26.4376C75.7661 25.5309 75.9594 24.7176 76.3461 23.9976C76.7461 23.2776 77.2928 22.7109 77.9861 22.2976C78.6794 21.8709 79.4594 21.6576 80.3261 21.6576C81.0461 21.6576 81.6794 21.7976 82.2261 22.0776C82.7861 22.3576 83.2261 22.7442 83.5461 23.2376C83.8661 23.7176 84.0394 24.2842 84.0661 24.9376V27.9776C84.0394 28.6176 83.8594 29.1909 83.5261 29.6976C83.2061 30.1909 82.7661 30.5776 82.2061 30.8576C81.6594 31.1242 81.0328 31.2576 80.3261 31.2576ZM80.8461 28.8776C81.3261 28.8776 81.7394 28.7776 82.0861 28.5776C82.4461 28.3642 82.7261 28.0776 82.9261 27.7176C83.1261 27.3442 83.2261 26.9242 83.2261 26.4576C83.2261 25.9776 83.1261 25.5576 82.9261 25.1976C82.7261 24.8376 82.4461 24.5576 82.0861 24.3576C81.7394 24.1442 81.3261 24.0376 80.8461 24.0376C80.3661 24.0376 79.9461 24.1442 79.5861 24.3576C79.2261 24.5576 78.9461 24.8442 78.7461 25.2176C78.5461 25.5776 78.4461 25.9909 78.4461 26.4576C78.4461 26.9109 78.5461 27.3242 78.7461 27.6976C78.9461 28.0576 79.2261 28.3442 79.5861 28.5576C79.9461 28.7709 80.3661 28.8776 80.8461 28.8776ZM92.5281 31.7176C91.5548 31.7176 90.6748 31.4976 89.8881 31.0576C89.1148 30.6042 88.4948 29.9976 88.0281 29.2376C87.5748 28.4642 87.3481 27.6042 87.3481 26.6576C87.3481 25.7109 87.5748 24.8642 88.0281 24.1176C88.4815 23.3576 89.1015 22.7576 89.8881 22.3176C90.6748 21.8642 91.5481 21.6376 92.5081 21.6376C93.4948 21.6376 94.3748 21.8642 95.1481 22.3176C95.9348 22.7576 96.5548 23.3576 97.0081 24.1176C97.4615 24.8642 97.6881 25.7109 97.6881 26.6576C97.6881 27.6042 97.4615 28.4642 97.0081 29.2376C96.5548 29.9976 95.9348 30.6042 95.1481 31.0576C94.3748 31.4976 93.5015 31.7176 92.5281 31.7176ZM92.5081 29.2776C93.0015 29.2776 93.4348 29.1709 93.8081 28.9576C94.1948 28.7309 94.4881 28.4242 94.6881 28.0376C94.9015 27.6376 95.0081 27.1842 95.0081 26.6776C95.0081 26.1709 94.9015 25.7242 94.6881 25.3376C94.4748 24.9509 94.1815 24.6509 93.8081 24.4376C93.4348 24.2109 93.0015 24.0976 92.5081 24.0976C92.0281 24.0976 91.6015 24.2109 91.2281 24.4376C90.8548 24.6509 90.5615 24.9509 90.3481 25.3376C90.1348 25.7242 90.0281 26.1709 90.0281 26.6776C90.0281 27.1842 90.1348 27.6376 90.3481 28.0376C90.5615 28.4242 90.8548 28.7309 91.2281 28.9576C91.6015 29.1709 92.0281 29.2776 92.5081 29.2776Z" fill="#19181F"/>
</svg>
