<svg width="799" height="278" viewBox="0 0 799 278" fill="none" xmlns="http://www.w3.org/2000/svg">
<g filter="url(#filter0_d_519_5071)">
<rect x="4" width="791" height="270" rx="20" fill="white"/>
</g>
<path d="M33.4977 26.376V25.428H35.7537C36.2417 25.428 36.6177 25.304 36.8817 25.056C37.1457 24.808 37.2777 24.472 37.2777 24.048C37.2777 23.648 37.1457 23.316 36.8817 23.052C36.6257 22.788 36.2537 22.656 35.7657 22.656H33.4977V21.672H35.8017C36.3297 21.672 36.7897 21.776 37.1817 21.984C37.5737 22.184 37.8737 22.46 38.0817 22.812C38.2977 23.164 38.4057 23.568 38.4057 24.024C38.4057 24.496 38.2977 24.908 38.0817 25.26C37.8737 25.612 37.5737 25.888 37.1817 26.088C36.7897 26.28 36.3297 26.376 35.8017 26.376H33.4977ZM32.7417 30V21.672H33.8697V30H32.7417ZM37.5417 30L34.5177 26.268L35.5857 25.896L38.9697 30H37.5417ZM42.3607 30.12C41.8007 30.12 41.2967 29.988 40.8487 29.724C40.4007 29.46 40.0447 29.104 39.7807 28.656C39.5167 28.2 39.3847 27.692 39.3847 27.132C39.3847 26.58 39.5167 26.084 39.7807 25.644C40.0447 25.196 40.4007 24.84 40.8487 24.576C41.2967 24.312 41.8007 24.18 42.3607 24.18C42.9127 24.18 43.4127 24.312 43.8607 24.576C44.3167 24.832 44.6767 25.184 44.9407 25.632C45.2047 26.08 45.3367 26.58 45.3367 27.132C45.3367 27.692 45.2047 28.2 44.9407 28.656C44.6767 29.104 44.3167 29.46 43.8607 29.724C43.4127 29.988 42.9127 30.12 42.3607 30.12ZM42.3607 29.076C42.7207 29.076 43.0407 28.992 43.3207 28.824C43.6007 28.656 43.8207 28.428 43.9807 28.14C44.1407 27.844 44.2207 27.508 44.2207 27.132C44.2207 26.764 44.1367 26.436 43.9687 26.148C43.8087 25.86 43.5887 25.636 43.3087 25.476C43.0367 25.308 42.7207 25.224 42.3607 25.224C42.0007 25.224 41.6807 25.308 41.4007 25.476C41.1207 25.636 40.9007 25.86 40.7407 26.148C40.5807 26.436 40.5007 26.764 40.5007 27.132C40.5007 27.508 40.5807 27.844 40.7407 28.14C40.9007 28.428 41.1207 28.656 41.4007 28.824C41.6807 28.992 42.0007 29.076 42.3607 29.076ZM48.8456 30.12C48.3816 30.12 47.9616 30.016 47.5856 29.808C47.2176 29.592 46.9296 29.296 46.7216 28.92C46.5136 28.544 46.4096 28.108 46.4096 27.612V24.3H47.4896V27.564C47.4896 27.876 47.5416 28.148 47.6456 28.38C47.7576 28.604 47.9176 28.776 48.1256 28.896C48.3336 29.016 48.5776 29.076 48.8576 29.076C49.2816 29.076 49.6136 28.944 49.8536 28.68C50.0936 28.408 50.2136 28.036 50.2136 27.564V24.3H51.2936V27.612C51.2936 28.108 51.1896 28.544 50.9816 28.92C50.7736 29.296 50.4856 29.592 50.1176 29.808C49.7576 30.016 49.3336 30.12 48.8456 30.12ZM53.6171 30V21.912H54.6971V30H53.6171ZM52.2131 25.284V24.3H56.1011V25.284H52.2131ZM59.6233 30.12C59.0553 30.12 58.5433 29.992 58.0873 29.736C57.6313 29.472 57.2713 29.116 57.0073 28.668C56.7433 28.22 56.6113 27.712 56.6113 27.144C56.6113 26.584 56.7393 26.08 56.9953 25.632C57.2593 25.184 57.6113 24.832 58.0513 24.576C58.4993 24.312 58.9993 24.18 59.5513 24.18C60.0793 24.18 60.5433 24.3 60.9433 24.54C61.3513 24.78 61.6673 25.112 61.8913 25.536C62.1233 25.96 62.2393 26.44 62.2393 26.976C62.2393 27.056 62.2353 27.144 62.2273 27.24C62.2193 27.328 62.2033 27.432 62.1793 27.552H57.3673V26.652H61.6033L61.2073 27C61.2073 26.616 61.1393 26.292 61.0033 26.028C60.8673 25.756 60.6753 25.548 60.4273 25.404C60.1793 25.252 59.8793 25.176 59.5273 25.176C59.1593 25.176 58.8353 25.256 58.5553 25.416C58.2753 25.576 58.0593 25.8 57.9073 26.088C57.7553 26.376 57.6793 26.716 57.6793 27.108C57.6793 27.508 57.7593 27.86 57.9193 28.164C58.0793 28.46 58.3073 28.692 58.6033 28.86C58.8993 29.02 59.2393 29.1 59.6233 29.1C59.9433 29.1 60.2353 29.044 60.4993 28.932C60.7713 28.82 61.0033 28.652 61.1953 28.428L61.8913 29.136C61.6193 29.456 61.2833 29.7 60.8833 29.868C60.4913 30.036 60.0713 30.12 59.6233 30.12ZM65.2289 30.12C64.9089 30.12 64.6049 30.08 64.3169 30C64.0369 29.912 63.7769 29.792 63.5369 29.64C63.2969 29.48 63.0889 29.292 62.9129 29.076L63.6089 28.38C63.8169 28.636 64.0569 28.828 64.3289 28.956C64.6009 29.076 64.9049 29.136 65.2409 29.136C65.5769 29.136 65.8369 29.08 66.0209 28.968C66.2049 28.848 66.2969 28.684 66.2969 28.476C66.2969 28.268 66.2209 28.108 66.0689 27.996C65.9249 27.876 65.7369 27.78 65.5049 27.708C65.2729 27.628 65.0249 27.552 64.7609 27.48C64.5049 27.4 64.2609 27.3 64.0289 27.18C63.7969 27.06 63.6049 26.896 63.4529 26.688C63.3089 26.48 63.2369 26.204 63.2369 25.86C63.2369 25.516 63.3209 25.22 63.4889 24.972C63.6569 24.716 63.8889 24.52 64.1849 24.384C64.4889 24.248 64.8529 24.18 65.2769 24.18C65.7249 24.18 66.1209 24.26 66.4649 24.42C66.8169 24.572 67.1049 24.804 67.3289 25.116L66.6329 25.812C66.4729 25.604 66.2729 25.444 66.0329 25.332C65.8009 25.22 65.5369 25.164 65.2409 25.164C64.9289 25.164 64.6889 25.22 64.5209 25.332C64.3609 25.436 64.2809 25.584 64.2809 25.776C64.2809 25.968 64.3529 26.116 64.4969 26.22C64.6409 26.324 64.8289 26.412 65.0609 26.484C65.3009 26.556 65.5489 26.632 65.8049 26.712C66.0609 26.784 66.3049 26.884 66.5369 27.012C66.7689 27.14 66.9569 27.312 67.1009 27.528C67.2529 27.744 67.3289 28.028 67.3289 28.38C67.3289 28.916 67.1369 29.34 66.7529 29.652C66.3769 29.964 65.8689 30.12 65.2289 30.12ZM68.538 27.456V26.436H72.486V27.456H68.538ZM77.5133 26.376V25.428H79.7693C80.2573 25.428 80.6333 25.304 80.8973 25.056C81.1613 24.808 81.2933 24.472 81.2933 24.048C81.2933 23.648 81.1613 23.316 80.8973 23.052C80.6413 22.788 80.2693 22.656 79.7813 22.656H77.5133V21.672H79.8173C80.3453 21.672 80.8053 21.776 81.1973 21.984C81.5893 22.184 81.8893 22.46 82.0973 22.812C82.3133 23.164 82.4213 23.568 82.4213 24.024C82.4213 24.496 82.3133 24.908 82.0973 25.26C81.8893 25.612 81.5893 25.888 81.1973 26.088C80.8053 26.28 80.3453 26.376 79.8173 26.376H77.5133ZM76.7573 30V21.672H77.8853V30H76.7573ZM81.5573 30L78.5333 26.268L79.6013 25.896L82.9853 30H81.5573ZM86.3763 30.12C85.8163 30.12 85.3123 29.988 84.8643 29.724C84.4163 29.46 84.0603 29.104 83.7963 28.656C83.5323 28.2 83.4003 27.692 83.4003 27.132C83.4003 26.58 83.5323 26.084 83.7963 25.644C84.0603 25.196 84.4163 24.84 84.8643 24.576C85.3123 24.312 85.8163 24.18 86.3763 24.18C86.9283 24.18 87.4283 24.312 87.8763 24.576C88.3323 24.832 88.6923 25.184 88.9563 25.632C89.2203 26.08 89.3523 26.58 89.3523 27.132C89.3523 27.692 89.2203 28.2 88.9563 28.656C88.6923 29.104 88.3323 29.46 87.8763 29.724C87.4283 29.988 86.9283 30.12 86.3763 30.12ZM86.3763 29.076C86.7363 29.076 87.0563 28.992 87.3363 28.824C87.6163 28.656 87.8363 28.428 87.9963 28.14C88.1563 27.844 88.2363 27.508 88.2363 27.132C88.2363 26.764 88.1523 26.436 87.9843 26.148C87.8243 25.86 87.6043 25.636 87.3243 25.476C87.0523 25.308 86.7363 25.224 86.3763 25.224C86.0163 25.224 85.6963 25.308 85.4163 25.476C85.1363 25.636 84.9163 25.86 84.7563 26.148C84.5963 26.436 84.5163 26.764 84.5163 27.132C84.5163 27.508 84.5963 27.844 84.7563 28.14C84.9163 28.428 85.1363 28.656 85.4163 28.824C85.6963 28.992 86.0163 29.076 86.3763 29.076ZM92.8612 30.12C92.3972 30.12 91.9772 30.016 91.6012 29.808C91.2332 29.592 90.9452 29.296 90.7372 28.92C90.5292 28.544 90.4252 28.108 90.4252 27.612V24.3H91.5052V27.564C91.5052 27.876 91.5572 28.148 91.6612 28.38C91.7732 28.604 91.9332 28.776 92.1412 28.896C92.3492 29.016 92.5932 29.076 92.8732 29.076C93.2972 29.076 93.6292 28.944 93.8692 28.68C94.1092 28.408 94.2292 28.036 94.2292 27.564V24.3H95.3092V27.612C95.3092 28.108 95.2052 28.544 94.9972 28.92C94.7892 29.296 94.5012 29.592 94.1332 29.808C93.7732 30.016 93.3492 30.12 92.8612 30.12ZM97.6327 30V21.912H98.7127V30H97.6327ZM96.2287 25.284V24.3H100.117V25.284H96.2287ZM103.639 30.12C103.071 30.12 102.559 29.992 102.103 29.736C101.647 29.472 101.287 29.116 101.023 28.668C100.759 28.22 100.627 27.712 100.627 27.144C100.627 26.584 100.755 26.08 101.011 25.632C101.275 25.184 101.627 24.832 102.067 24.576C102.515 24.312 103.015 24.18 103.567 24.18C104.095 24.18 104.559 24.3 104.959 24.54C105.367 24.78 105.683 25.112 105.907 25.536C106.139 25.96 106.255 26.44 106.255 26.976C106.255 27.056 106.251 27.144 106.243 27.24C106.235 27.328 106.219 27.432 106.195 27.552H101.383V26.652H105.619L105.223 27C105.223 26.616 105.155 26.292 105.019 26.028C104.883 25.756 104.691 25.548 104.443 25.404C104.195 25.252 103.895 25.176 103.543 25.176C103.175 25.176 102.851 25.256 102.571 25.416C102.291 25.576 102.075 25.8 101.923 26.088C101.771 26.376 101.695 26.716 101.695 27.108C101.695 27.508 101.775 27.86 101.935 28.164C102.095 28.46 102.323 28.692 102.619 28.86C102.915 29.02 103.255 29.1 103.639 29.1C103.959 29.1 104.251 29.044 104.515 28.932C104.787 28.82 105.019 28.652 105.211 28.428L105.907 29.136C105.635 29.456 105.299 29.7 104.899 29.868C104.507 30.036 104.087 30.12 103.639 30.12ZM110.865 30V28.968H113.181C113.797 28.968 114.337 28.836 114.801 28.572C115.265 28.3 115.625 27.928 115.881 27.456C116.145 26.984 116.277 26.44 116.277 25.824C116.277 25.216 116.145 24.676 115.881 24.204C115.617 23.732 115.253 23.364 114.789 23.1C114.325 22.836 113.789 22.704 113.181 22.704H110.877V21.672H113.205C113.813 21.672 114.373 21.776 114.885 21.984C115.405 22.192 115.853 22.484 116.229 22.86C116.613 23.236 116.909 23.676 117.117 24.18C117.333 24.684 117.441 25.236 117.441 25.836C117.441 26.428 117.333 26.98 117.117 27.492C116.909 27.996 116.617 28.436 116.241 28.812C115.865 29.188 115.417 29.48 114.897 29.688C114.385 29.896 113.829 30 113.229 30H110.865ZM110.121 30V21.672H111.249V30H110.121ZM118.823 30V24.3H119.903V30H118.823ZM119.363 23.16C119.163 23.16 118.999 23.096 118.871 22.968C118.743 22.832 118.679 22.664 118.679 22.464C118.679 22.272 118.743 22.112 118.871 21.984C118.999 21.848 119.163 21.78 119.363 21.78C119.563 21.78 119.727 21.848 119.855 21.984C119.983 22.112 120.047 22.272 120.047 22.464C120.047 22.664 119.983 22.832 119.855 22.968C119.727 23.096 119.563 23.16 119.363 23.16ZM123.307 30.12C122.987 30.12 122.683 30.08 122.395 30C122.115 29.912 121.855 29.792 121.615 29.64C121.375 29.48 121.167 29.292 120.991 29.076L121.687 28.38C121.895 28.636 122.135 28.828 122.407 28.956C122.679 29.076 122.983 29.136 123.319 29.136C123.655 29.136 123.915 29.08 124.099 28.968C124.283 28.848 124.375 28.684 124.375 28.476C124.375 28.268 124.299 28.108 124.147 27.996C124.003 27.876 123.815 27.78 123.583 27.708C123.351 27.628 123.103 27.552 122.839 27.48C122.583 27.4 122.339 27.3 122.107 27.18C121.875 27.06 121.683 26.896 121.531 26.688C121.387 26.48 121.315 26.204 121.315 25.86C121.315 25.516 121.399 25.22 121.567 24.972C121.735 24.716 121.967 24.52 122.263 24.384C122.567 24.248 122.931 24.18 123.355 24.18C123.803 24.18 124.199 24.26 124.543 24.42C124.895 24.572 125.183 24.804 125.407 25.116L124.711 25.812C124.551 25.604 124.351 25.444 124.111 25.332C123.879 25.22 123.615 25.164 123.319 25.164C123.007 25.164 122.767 25.22 122.599 25.332C122.439 25.436 122.359 25.584 122.359 25.776C122.359 25.968 122.431 26.116 122.575 26.22C122.719 26.324 122.907 26.412 123.139 26.484C123.379 26.556 123.627 26.632 123.883 26.712C124.139 26.784 124.383 26.884 124.615 27.012C124.847 27.14 125.035 27.312 125.179 27.528C125.331 27.744 125.407 28.028 125.407 28.38C125.407 28.916 125.215 29.34 124.831 29.652C124.455 29.964 123.947 30.12 123.307 30.12ZM127.492 30V21.912H128.572V30H127.492ZM126.088 25.284V24.3H129.976V25.284H126.088ZM133.282 30.12C132.762 30.12 132.29 29.992 131.866 29.736C131.442 29.472 131.106 29.116 130.858 28.668C130.618 28.22 130.498 27.716 130.498 27.156C130.498 26.596 130.618 26.092 130.858 25.644C131.106 25.196 131.438 24.84 131.854 24.576C132.278 24.312 132.754 24.18 133.282 24.18C133.714 24.18 134.098 24.272 134.434 24.456C134.778 24.632 135.054 24.88 135.262 25.2C135.47 25.512 135.586 25.876 135.61 26.292V28.008C135.586 28.416 135.47 28.78 135.262 29.1C135.062 29.42 134.79 29.672 134.446 29.856C134.11 30.032 133.722 30.12 133.282 30.12ZM133.462 29.1C133.998 29.1 134.43 28.92 134.758 28.56C135.086 28.192 135.25 27.724 135.25 27.156C135.25 26.764 135.174 26.424 135.022 26.136C134.878 25.84 134.67 25.612 134.398 25.452C134.126 25.284 133.81 25.2 133.45 25.2C133.09 25.2 132.77 25.284 132.49 25.452C132.218 25.62 132.002 25.852 131.842 26.148C131.69 26.436 131.614 26.768 131.614 27.144C131.614 27.528 131.69 27.868 131.842 28.164C132.002 28.452 132.222 28.68 132.502 28.848C132.782 29.016 133.102 29.1 133.462 29.1ZM135.178 30V28.464L135.382 27.072L135.178 25.692V24.3H136.27V30H135.178ZM141.875 30V26.676C141.875 26.244 141.739 25.888 141.467 25.608C141.195 25.328 140.843 25.188 140.411 25.188C140.123 25.188 139.867 25.252 139.643 25.38C139.419 25.508 139.243 25.684 139.115 25.908C138.987 26.132 138.923 26.388 138.923 26.676L138.479 26.424C138.479 25.992 138.575 25.608 138.767 25.272C138.959 24.936 139.227 24.672 139.571 24.48C139.915 24.28 140.303 24.18 140.735 24.18C141.167 24.18 141.547 24.288 141.875 24.504C142.211 24.72 142.475 25.004 142.667 25.356C142.859 25.7 142.955 26.068 142.955 26.46V30H141.875ZM137.843 30V24.3H138.923V30H137.843ZM147.021 30.12C146.461 30.12 145.953 29.988 145.497 29.724C145.049 29.46 144.693 29.104 144.429 28.656C144.173 28.2 144.045 27.696 144.045 27.144C144.045 26.584 144.173 26.08 144.429 25.632C144.693 25.184 145.049 24.832 145.497 24.576C145.953 24.312 146.461 24.18 147.021 24.18C147.461 24.18 147.869 24.264 148.245 24.432C148.621 24.592 148.945 24.828 149.217 25.14L148.497 25.86C148.321 25.652 148.105 25.496 147.849 25.392C147.601 25.28 147.325 25.224 147.021 25.224C146.661 25.224 146.341 25.308 146.061 25.476C145.781 25.636 145.561 25.86 145.401 26.148C145.241 26.436 145.161 26.768 145.161 27.144C145.161 27.52 145.241 27.852 145.401 28.14C145.561 28.428 145.781 28.656 146.061 28.824C146.341 28.992 146.661 29.076 147.021 29.076C147.325 29.076 147.601 29.024 147.849 28.92C148.105 28.808 148.325 28.648 148.509 28.44L149.217 29.16C148.953 29.464 148.629 29.7 148.245 29.868C147.869 30.036 147.461 30.12 147.021 30.12ZM152.811 30.12C152.243 30.12 151.731 29.992 151.275 29.736C150.819 29.472 150.459 29.116 150.195 28.668C149.931 28.22 149.799 27.712 149.799 27.144C149.799 26.584 149.927 26.08 150.183 25.632C150.447 25.184 150.799 24.832 151.239 24.576C151.687 24.312 152.187 24.18 152.739 24.18C153.267 24.18 153.731 24.3 154.131 24.54C154.539 24.78 154.855 25.112 155.079 25.536C155.311 25.96 155.427 26.44 155.427 26.976C155.427 27.056 155.423 27.144 155.415 27.24C155.407 27.328 155.391 27.432 155.367 27.552H150.555V26.652H154.791L154.395 27C154.395 26.616 154.327 26.292 154.191 26.028C154.055 25.756 153.863 25.548 153.615 25.404C153.367 25.252 153.067 25.176 152.715 25.176C152.347 25.176 152.023 25.256 151.743 25.416C151.463 25.576 151.247 25.8 151.095 26.088C150.943 26.376 150.867 26.716 150.867 27.108C150.867 27.508 150.947 27.86 151.107 28.164C151.267 28.46 151.495 28.692 151.791 28.86C152.087 29.02 152.427 29.1 152.811 29.1C153.131 29.1 153.423 29.044 153.687 28.932C153.959 28.82 154.191 28.652 154.383 28.428L155.079 29.136C154.807 29.456 154.471 29.7 154.071 29.868C153.679 30.036 153.259 30.12 152.811 30.12ZM161.524 30.12C161.004 30.12 160.532 29.992 160.108 29.736C159.684 29.472 159.348 29.116 159.1 28.668C158.86 28.22 158.74 27.716 158.74 27.156C158.74 26.596 158.86 26.092 159.1 25.644C159.348 25.196 159.68 24.84 160.096 24.576C160.52 24.312 160.996 24.18 161.524 24.18C161.956 24.18 162.34 24.272 162.676 24.456C163.02 24.632 163.296 24.88 163.504 25.2C163.712 25.512 163.828 25.876 163.852 26.292V28.008C163.828 28.416 163.712 28.78 163.504 29.1C163.304 29.42 163.032 29.672 162.688 29.856C162.352 30.032 161.964 30.12 161.524 30.12ZM161.704 29.1C162.24 29.1 162.672 28.92 163 28.56C163.328 28.192 163.492 27.724 163.492 27.156C163.492 26.764 163.416 26.424 163.264 26.136C163.12 25.84 162.912 25.612 162.64 25.452C162.368 25.284 162.052 25.2 161.692 25.2C161.332 25.2 161.012 25.284 160.732 25.452C160.46 25.62 160.244 25.852 160.084 26.148C159.932 26.436 159.856 26.768 159.856 27.144C159.856 27.528 159.932 27.868 160.084 28.164C160.244 28.452 160.464 28.68 160.744 28.848C161.024 29.016 161.344 29.1 161.704 29.1ZM163.42 30V28.464L163.624 27.072L163.42 25.692V24.3H164.512V30H163.42ZM170.117 30V26.676C170.117 26.244 169.981 25.888 169.709 25.608C169.437 25.328 169.085 25.188 168.653 25.188C168.365 25.188 168.109 25.252 167.885 25.38C167.661 25.508 167.485 25.684 167.357 25.908C167.229 26.132 167.165 26.388 167.165 26.676L166.721 26.424C166.721 25.992 166.817 25.608 167.009 25.272C167.201 24.936 167.469 24.672 167.813 24.48C168.157 24.28 168.545 24.18 168.977 24.18C169.409 24.18 169.789 24.288 170.117 24.504C170.453 24.72 170.717 25.004 170.909 25.356C171.101 25.7 171.197 26.068 171.197 26.46V30H170.117ZM166.085 30V24.3H167.165V30H166.085ZM175.071 30.12C174.543 30.12 174.071 29.992 173.655 29.736C173.239 29.472 172.907 29.116 172.659 28.668C172.419 28.22 172.299 27.716 172.299 27.156C172.299 26.596 172.419 26.092 172.659 25.644C172.907 25.196 173.239 24.84 173.655 24.576C174.071 24.312 174.543 24.18 175.071 24.18C175.495 24.18 175.879 24.272 176.223 24.456C176.567 24.632 176.843 24.88 177.051 25.2C177.267 25.512 177.387 25.876 177.411 26.292V28.008C177.387 28.416 177.271 28.78 177.063 29.1C176.855 29.42 176.579 29.672 176.235 29.856C175.891 30.032 175.503 30.12 175.071 30.12ZM175.251 29.1C175.611 29.1 175.923 29.016 176.187 28.848C176.459 28.68 176.671 28.452 176.823 28.164C176.975 27.868 177.051 27.532 177.051 27.156C177.051 26.764 176.971 26.424 176.811 26.136C176.659 25.848 176.447 25.62 176.175 25.452C175.911 25.284 175.599 25.2 175.239 25.2C174.879 25.2 174.563 25.284 174.291 25.452C174.019 25.62 173.803 25.852 173.643 26.148C173.491 26.436 173.415 26.768 173.415 27.144C173.415 27.528 173.491 27.868 173.643 28.164C173.803 28.452 174.019 28.68 174.291 28.848C174.571 29.016 174.891 29.1 175.251 29.1ZM178.071 30H176.979V28.464L177.183 27.072L176.979 25.692V21.432H178.071V30ZM183.076 30V28.968H185.392C186.008 28.968 186.548 28.836 187.012 28.572C187.476 28.3 187.836 27.928 188.092 27.456C188.356 26.984 188.488 26.44 188.488 25.824C188.488 25.216 188.356 24.676 188.092 24.204C187.828 23.732 187.464 23.364 187 23.1C186.536 22.836 186 22.704 185.392 22.704H183.088V21.672H185.416C186.024 21.672 186.584 21.776 187.096 21.984C187.616 22.192 188.064 22.484 188.44 22.86C188.824 23.236 189.12 23.676 189.328 24.18C189.544 24.684 189.652 25.236 189.652 25.836C189.652 26.428 189.544 26.98 189.328 27.492C189.12 27.996 188.828 28.436 188.452 28.812C188.076 29.188 187.628 29.48 187.108 29.688C186.596 29.896 186.04 30 185.44 30H183.076ZM182.332 30V21.672H183.46V30H182.332ZM193.314 30.12C192.85 30.12 192.43 30.016 192.054 29.808C191.686 29.592 191.398 29.296 191.19 28.92C190.982 28.544 190.878 28.108 190.878 27.612V24.3H191.958V27.564C191.958 27.876 192.01 28.148 192.114 28.38C192.226 28.604 192.386 28.776 192.594 28.896C192.802 29.016 193.046 29.076 193.326 29.076C193.75 29.076 194.082 28.944 194.322 28.68C194.562 28.408 194.682 28.036 194.682 27.564V24.3H195.762V27.612C195.762 28.108 195.658 28.544 195.45 28.92C195.242 29.296 194.954 29.592 194.586 29.808C194.226 30.016 193.802 30.12 193.314 30.12ZM197.21 30V24.3H198.29V30H197.21ZM198.29 26.748L197.882 26.568C197.882 25.84 198.05 25.26 198.386 24.828C198.722 24.396 199.206 24.18 199.838 24.18C200.126 24.18 200.386 24.232 200.618 24.336C200.85 24.432 201.066 24.596 201.266 24.828L200.558 25.56C200.438 25.432 200.306 25.34 200.162 25.284C200.018 25.228 199.85 25.2 199.658 25.2C199.258 25.2 198.93 25.328 198.674 25.584C198.418 25.84 198.29 26.228 198.29 26.748ZM204.263 30.12C203.743 30.12 203.271 29.992 202.847 29.736C202.423 29.472 202.087 29.116 201.839 28.668C201.599 28.22 201.479 27.716 201.479 27.156C201.479 26.596 201.599 26.092 201.839 25.644C202.087 25.196 202.419 24.84 202.835 24.576C203.259 24.312 203.735 24.18 204.263 24.18C204.695 24.18 205.079 24.272 205.415 24.456C205.759 24.632 206.035 24.88 206.243 25.2C206.451 25.512 206.567 25.876 206.591 26.292V28.008C206.567 28.416 206.451 28.78 206.243 29.1C206.043 29.42 205.771 29.672 205.427 29.856C205.091 30.032 204.703 30.12 204.263 30.12ZM204.443 29.1C204.979 29.1 205.411 28.92 205.739 28.56C206.067 28.192 206.231 27.724 206.231 27.156C206.231 26.764 206.155 26.424 206.003 26.136C205.859 25.84 205.651 25.612 205.379 25.452C205.107 25.284 204.791 25.2 204.431 25.2C204.071 25.2 203.751 25.284 203.471 25.452C203.199 25.62 202.983 25.852 202.823 26.148C202.671 26.436 202.595 26.768 202.595 27.144C202.595 27.528 202.671 27.868 202.823 28.164C202.983 28.452 203.203 28.68 203.483 28.848C203.763 29.016 204.083 29.1 204.443 29.1ZM206.159 30V28.464L206.363 27.072L206.159 25.692V24.3H207.251V30H206.159ZM209.676 30V21.912H210.756V30H209.676ZM208.272 25.284V24.3H212.16V25.284H208.272ZM213.23 30V24.3H214.31V30H213.23ZM213.77 23.16C213.57 23.16 213.406 23.096 213.278 22.968C213.15 22.832 213.086 22.664 213.086 22.464C213.086 22.272 213.15 22.112 213.278 21.984C213.406 21.848 213.57 21.78 213.77 21.78C213.97 21.78 214.134 21.848 214.262 21.984C214.39 22.112 214.454 22.272 214.454 22.464C214.454 22.664 214.39 22.832 214.262 22.968C214.134 23.096 213.97 23.16 213.77 23.16ZM218.505 30.12C217.945 30.12 217.441 29.988 216.993 29.724C216.545 29.46 216.189 29.104 215.925 28.656C215.661 28.2 215.529 27.692 215.529 27.132C215.529 26.58 215.661 26.084 215.925 25.644C216.189 25.196 216.545 24.84 216.993 24.576C217.441 24.312 217.945 24.18 218.505 24.18C219.057 24.18 219.557 24.312 220.005 24.576C220.461 24.832 220.821 25.184 221.085 25.632C221.349 26.08 221.481 26.58 221.481 27.132C221.481 27.692 221.349 28.2 221.085 28.656C220.821 29.104 220.461 29.46 220.005 29.724C219.557 29.988 219.057 30.12 218.505 30.12ZM218.505 29.076C218.865 29.076 219.185 28.992 219.465 28.824C219.745 28.656 219.965 28.428 220.125 28.14C220.285 27.844 220.365 27.508 220.365 27.132C220.365 26.764 220.281 26.436 220.113 26.148C219.953 25.86 219.733 25.636 219.453 25.476C219.181 25.308 218.865 25.224 218.505 25.224C218.145 25.224 217.825 25.308 217.545 25.476C217.265 25.636 217.045 25.86 216.885 26.148C216.725 26.436 216.645 26.764 216.645 27.132C216.645 27.508 216.725 27.844 216.885 28.14C217.045 28.428 217.265 28.656 217.545 28.824C217.825 28.992 218.145 29.076 218.505 29.076ZM226.73 30V26.676C226.73 26.244 226.594 25.888 226.322 25.608C226.05 25.328 225.698 25.188 225.266 25.188C224.978 25.188 224.722 25.252 224.498 25.38C224.274 25.508 224.098 25.684 223.97 25.908C223.842 26.132 223.778 26.388 223.778 26.676L223.334 26.424C223.334 25.992 223.43 25.608 223.622 25.272C223.814 24.936 224.082 24.672 224.426 24.48C224.77 24.28 225.158 24.18 225.59 24.18C226.022 24.18 226.402 24.288 226.73 24.504C227.066 24.72 227.33 25.004 227.522 25.356C227.714 25.7 227.81 26.068 227.81 26.46V30H226.73ZM222.698 30V24.3H223.778V30H222.698Z" fill="#333B69"/>
<g filter="url(#filter1_i_519_5071)">
<rect x="498.77" y="20" width="18.5051" height="12" rx="4" fill="#2BB2FE"/>
</g>
<path d="M534.728 30V28.968H537.044C537.66 28.968 538.2 28.836 538.664 28.572C539.128 28.3 539.488 27.928 539.744 27.456C540.008 26.984 540.14 26.44 540.14 25.824C540.14 25.216 540.008 24.676 539.744 24.204C539.48 23.732 539.116 23.364 538.652 23.1C538.188 22.836 537.652 22.704 537.044 22.704H534.74V21.672H537.068C537.676 21.672 538.236 21.776 538.748 21.984C539.268 22.192 539.716 22.484 540.092 22.86C540.476 23.236 540.772 23.676 540.98 24.18C541.196 24.684 541.304 25.236 541.304 25.836C541.304 26.428 541.196 26.98 540.98 27.492C540.772 27.996 540.48 28.436 540.104 28.812C539.728 29.188 539.28 29.48 538.76 29.688C538.248 29.896 537.692 30 537.092 30H534.728ZM533.984 30V21.672H535.112V30H533.984ZM542.687 30V24.3H543.767V30H542.687ZM543.227 23.16C543.027 23.16 542.863 23.096 542.735 22.968C542.607 22.832 542.543 22.664 542.543 22.464C542.543 22.272 542.607 22.112 542.735 21.984C542.863 21.848 543.027 21.78 543.227 21.78C543.427 21.78 543.591 21.848 543.719 21.984C543.847 22.112 543.911 22.272 543.911 22.464C543.911 22.664 543.847 22.832 543.719 22.968C543.591 23.096 543.427 23.16 543.227 23.16ZM547.17 30.12C546.85 30.12 546.546 30.08 546.258 30C545.978 29.912 545.718 29.792 545.478 29.64C545.238 29.48 545.03 29.292 544.854 29.076L545.55 28.38C545.758 28.636 545.998 28.828 546.27 28.956C546.542 29.076 546.846 29.136 547.182 29.136C547.518 29.136 547.778 29.08 547.962 28.968C548.146 28.848 548.238 28.684 548.238 28.476C548.238 28.268 548.162 28.108 548.01 27.996C547.866 27.876 547.678 27.78 547.446 27.708C547.214 27.628 546.966 27.552 546.702 27.48C546.446 27.4 546.202 27.3 545.97 27.18C545.738 27.06 545.546 26.896 545.394 26.688C545.25 26.48 545.178 26.204 545.178 25.86C545.178 25.516 545.262 25.22 545.43 24.972C545.598 24.716 545.83 24.52 546.126 24.384C546.43 24.248 546.794 24.18 547.218 24.18C547.666 24.18 548.062 24.26 548.406 24.42C548.758 24.572 549.046 24.804 549.27 25.116L548.574 25.812C548.414 25.604 548.214 25.444 547.974 25.332C547.742 25.22 547.478 25.164 547.182 25.164C546.87 25.164 546.63 25.22 546.462 25.332C546.302 25.436 546.222 25.584 546.222 25.776C546.222 25.968 546.294 26.116 546.438 26.22C546.582 26.324 546.77 26.412 547.002 26.484C547.242 26.556 547.49 26.632 547.746 26.712C548.002 26.784 548.246 26.884 548.478 27.012C548.71 27.14 548.898 27.312 549.042 27.528C549.194 27.744 549.27 28.028 549.27 28.38C549.27 28.916 549.078 29.34 548.694 29.652C548.318 29.964 547.81 30.12 547.17 30.12ZM551.356 30V21.912H552.436V30H551.356ZM549.952 25.284V24.3H553.84V25.284H549.952ZM557.146 30.12C556.626 30.12 556.154 29.992 555.73 29.736C555.306 29.472 554.97 29.116 554.722 28.668C554.482 28.22 554.362 27.716 554.362 27.156C554.362 26.596 554.482 26.092 554.722 25.644C554.97 25.196 555.302 24.84 555.718 24.576C556.142 24.312 556.618 24.18 557.146 24.18C557.578 24.18 557.962 24.272 558.298 24.456C558.642 24.632 558.918 24.88 559.126 25.2C559.334 25.512 559.45 25.876 559.474 26.292V28.008C559.45 28.416 559.334 28.78 559.126 29.1C558.926 29.42 558.654 29.672 558.31 29.856C557.974 30.032 557.586 30.12 557.146 30.12ZM557.326 29.1C557.862 29.1 558.294 28.92 558.622 28.56C558.95 28.192 559.114 27.724 559.114 27.156C559.114 26.764 559.038 26.424 558.886 26.136C558.742 25.84 558.534 25.612 558.262 25.452C557.99 25.284 557.674 25.2 557.314 25.2C556.954 25.2 556.634 25.284 556.354 25.452C556.082 25.62 555.866 25.852 555.706 26.148C555.554 26.436 555.478 26.768 555.478 27.144C555.478 27.528 555.554 27.868 555.706 28.164C555.866 28.452 556.086 28.68 556.366 28.848C556.646 29.016 556.966 29.1 557.326 29.1ZM559.042 30V28.464L559.246 27.072L559.042 25.692V24.3H560.134V30H559.042ZM565.738 30V26.676C565.738 26.244 565.602 25.888 565.33 25.608C565.058 25.328 564.706 25.188 564.274 25.188C563.986 25.188 563.73 25.252 563.506 25.38C563.282 25.508 563.106 25.684 562.978 25.908C562.85 26.132 562.786 26.388 562.786 26.676L562.342 26.424C562.342 25.992 562.438 25.608 562.63 25.272C562.822 24.936 563.09 24.672 563.434 24.48C563.778 24.28 564.166 24.18 564.598 24.18C565.03 24.18 565.41 24.288 565.738 24.504C566.074 24.72 566.338 25.004 566.53 25.356C566.722 25.7 566.818 26.068 566.818 26.46V30H565.738ZM561.706 30V24.3H562.786V30H561.706ZM570.884 30.12C570.324 30.12 569.816 29.988 569.36 29.724C568.912 29.46 568.556 29.104 568.292 28.656C568.036 28.2 567.908 27.696 567.908 27.144C567.908 26.584 568.036 26.08 568.292 25.632C568.556 25.184 568.912 24.832 569.36 24.576C569.816 24.312 570.324 24.18 570.884 24.18C571.324 24.18 571.732 24.264 572.108 24.432C572.484 24.592 572.808 24.828 573.08 25.14L572.36 25.86C572.184 25.652 571.968 25.496 571.712 25.392C571.464 25.28 571.188 25.224 570.884 25.224C570.524 25.224 570.204 25.308 569.924 25.476C569.644 25.636 569.424 25.86 569.264 26.148C569.104 26.436 569.024 26.768 569.024 27.144C569.024 27.52 569.104 27.852 569.264 28.14C569.424 28.428 569.644 28.656 569.924 28.824C570.204 28.992 570.524 29.076 570.884 29.076C571.188 29.076 571.464 29.024 571.712 28.92C571.968 28.808 572.188 28.648 572.372 28.44L573.08 29.16C572.816 29.464 572.492 29.7 572.108 29.868C571.732 30.036 571.324 30.12 570.884 30.12ZM576.674 30.12C576.106 30.12 575.594 29.992 575.138 29.736C574.682 29.472 574.322 29.116 574.058 28.668C573.794 28.22 573.662 27.712 573.662 27.144C573.662 26.584 573.79 26.08 574.046 25.632C574.31 25.184 574.662 24.832 575.102 24.576C575.55 24.312 576.05 24.18 576.602 24.18C577.13 24.18 577.594 24.3 577.994 24.54C578.402 24.78 578.718 25.112 578.942 25.536C579.174 25.96 579.29 26.44 579.29 26.976C579.29 27.056 579.286 27.144 579.278 27.24C579.27 27.328 579.254 27.432 579.23 27.552H574.418V26.652H578.654L578.258 27C578.258 26.616 578.19 26.292 578.054 26.028C577.918 25.756 577.726 25.548 577.478 25.404C577.23 25.252 576.93 25.176 576.578 25.176C576.21 25.176 575.886 25.256 575.606 25.416C575.326 25.576 575.11 25.8 574.958 26.088C574.806 26.376 574.73 26.716 574.73 27.108C574.73 27.508 574.81 27.86 574.97 28.164C575.13 28.46 575.358 28.692 575.654 28.86C575.95 29.02 576.29 29.1 576.674 29.1C576.994 29.1 577.286 29.044 577.55 28.932C577.822 28.82 578.054 28.652 578.246 28.428L578.942 29.136C578.67 29.456 578.334 29.7 577.934 29.868C577.542 30.036 577.122 30.12 576.674 30.12Z" fill="#718EBF"/>
<g filter="url(#filter2_i_519_5071)">
<rect x="611.343" y="20" width="18.5051" height="12" rx="4" fill="#1B1B1B"/>
</g>
<path d="M645.984 30V21.672H647.112V30H645.984ZM646.752 30V28.968H651.528V30H646.752ZM646.752 26.232V25.248H651.132V26.232H646.752ZM646.752 22.704V21.672H651.468V22.704H646.752ZM654.682 30.12C654.362 30.12 654.058 30.08 653.77 30C653.49 29.912 653.23 29.792 652.99 29.64C652.75 29.48 652.542 29.292 652.366 29.076L653.062 28.38C653.27 28.636 653.51 28.828 653.782 28.956C654.054 29.076 654.358 29.136 654.694 29.136C655.03 29.136 655.29 29.08 655.474 28.968C655.658 28.848 655.75 28.684 655.75 28.476C655.75 28.268 655.674 28.108 655.522 27.996C655.378 27.876 655.19 27.78 654.958 27.708C654.726 27.628 654.478 27.552 654.214 27.48C653.958 27.4 653.714 27.3 653.482 27.18C653.25 27.06 653.058 26.896 652.906 26.688C652.762 26.48 652.69 26.204 652.69 25.86C652.69 25.516 652.774 25.22 652.942 24.972C653.11 24.716 653.342 24.52 653.638 24.384C653.942 24.248 654.306 24.18 654.73 24.18C655.178 24.18 655.574 24.26 655.918 24.42C656.27 24.572 656.558 24.804 656.782 25.116L656.086 25.812C655.926 25.604 655.726 25.444 655.486 25.332C655.254 25.22 654.99 25.164 654.694 25.164C654.382 25.164 654.142 25.22 653.974 25.332C653.814 25.436 653.734 25.584 653.734 25.776C653.734 25.968 653.806 26.116 653.95 26.22C654.094 26.324 654.282 26.412 654.514 26.484C654.754 26.556 655.002 26.632 655.258 26.712C655.514 26.784 655.758 26.884 655.99 27.012C656.222 27.14 656.41 27.312 656.554 27.528C656.706 27.744 656.782 28.028 656.782 28.38C656.782 28.916 656.59 29.34 656.206 29.652C655.83 29.964 655.322 30.12 654.682 30.12ZM658.867 30V21.912H659.947V30H658.867ZM657.463 25.284V24.3H661.351V25.284H657.463ZM662.421 30V24.3H663.501V30H662.421ZM662.961 23.16C662.761 23.16 662.597 23.096 662.469 22.968C662.341 22.832 662.277 22.664 662.277 22.464C662.277 22.272 662.341 22.112 662.469 21.984C662.597 21.848 662.761 21.78 662.961 21.78C663.161 21.78 663.325 21.848 663.453 21.984C663.581 22.112 663.645 22.272 663.645 22.464C663.645 22.664 663.581 22.832 663.453 22.968C663.325 23.096 663.161 23.16 662.961 23.16ZM665.093 30V24.3H666.173V30H665.093ZM668.945 30V26.556C668.945 26.132 668.813 25.8 668.549 25.56C668.293 25.312 667.969 25.188 667.577 25.188C667.313 25.188 667.077 25.244 666.869 25.356C666.661 25.468 666.493 25.624 666.365 25.824C666.237 26.024 666.173 26.264 666.173 26.544L665.729 26.328C665.729 25.896 665.821 25.52 666.005 25.2C666.197 24.88 666.457 24.632 666.785 24.456C667.113 24.272 667.481 24.18 667.889 24.18C668.289 24.18 668.649 24.268 668.969 24.444C669.297 24.62 669.553 24.868 669.737 25.188C669.929 25.508 670.025 25.888 670.025 26.328V30H668.945ZM672.797 30V26.556C672.797 26.132 672.665 25.8 672.401 25.56C672.145 25.312 671.825 25.188 671.441 25.188C671.177 25.188 670.937 25.244 670.721 25.356C670.513 25.468 670.345 25.624 670.217 25.824C670.089 26.024 670.025 26.264 670.025 26.544L669.413 26.328C669.437 25.888 669.553 25.512 669.761 25.2C669.977 24.88 670.253 24.632 670.589 24.456C670.925 24.272 671.293 24.18 671.693 24.18C672.109 24.18 672.481 24.268 672.809 24.444C673.137 24.62 673.397 24.868 673.589 25.188C673.789 25.508 673.889 25.892 673.889 26.34V30H672.797ZM677.782 30.12C677.262 30.12 676.79 29.992 676.366 29.736C675.942 29.472 675.606 29.116 675.358 28.668C675.118 28.22 674.998 27.716 674.998 27.156C674.998 26.596 675.118 26.092 675.358 25.644C675.606 25.196 675.938 24.84 676.354 24.576C676.778 24.312 677.254 24.18 677.782 24.18C678.214 24.18 678.598 24.272 678.934 24.456C679.278 24.632 679.554 24.88 679.762 25.2C679.97 25.512 680.086 25.876 680.11 26.292V28.008C680.086 28.416 679.97 28.78 679.762 29.1C679.562 29.42 679.29 29.672 678.946 29.856C678.61 30.032 678.222 30.12 677.782 30.12ZM677.962 29.1C678.498 29.1 678.93 28.92 679.258 28.56C679.586 28.192 679.75 27.724 679.75 27.156C679.75 26.764 679.674 26.424 679.522 26.136C679.378 25.84 679.17 25.612 678.898 25.452C678.626 25.284 678.31 25.2 677.95 25.2C677.59 25.2 677.27 25.284 676.99 25.452C676.718 25.62 676.502 25.852 676.342 26.148C676.19 26.436 676.114 26.768 676.114 27.144C676.114 27.528 676.19 27.868 676.342 28.164C676.502 28.452 676.722 28.68 677.002 28.848C677.282 29.016 677.602 29.1 677.962 29.1ZM679.678 30V28.464L679.882 27.072L679.678 25.692V24.3H680.77V30H679.678ZM683.195 30V21.912H684.275V30H683.195ZM681.791 25.284V24.3H685.679V25.284H681.791ZM689.202 30.12C688.634 30.12 688.122 29.992 687.666 29.736C687.21 29.472 686.85 29.116 686.586 28.668C686.322 28.22 686.19 27.712 686.19 27.144C686.19 26.584 686.318 26.08 686.574 25.632C686.838 25.184 687.19 24.832 687.63 24.576C688.078 24.312 688.578 24.18 689.13 24.18C689.658 24.18 690.122 24.3 690.522 24.54C690.93 24.78 691.246 25.112 691.47 25.536C691.702 25.96 691.818 26.44 691.818 26.976C691.818 27.056 691.814 27.144 691.806 27.24C691.798 27.328 691.782 27.432 691.758 27.552H686.946V26.652H691.182L690.786 27C690.786 26.616 690.718 26.292 690.582 26.028C690.446 25.756 690.254 25.548 690.006 25.404C689.758 25.252 689.458 25.176 689.106 25.176C688.738 25.176 688.414 25.256 688.134 25.416C687.854 25.576 687.638 25.8 687.486 26.088C687.334 26.376 687.258 26.716 687.258 27.108C687.258 27.508 687.338 27.86 687.498 28.164C687.658 28.46 687.886 28.692 688.182 28.86C688.478 29.02 688.818 29.1 689.202 29.1C689.522 29.1 689.814 29.044 690.078 28.932C690.35 28.82 690.582 28.652 690.774 28.428L691.47 29.136C691.198 29.456 690.862 29.7 690.462 29.868C690.07 30.036 689.65 30.12 689.202 30.12ZM695.407 30.12C694.879 30.12 694.407 29.992 693.991 29.736C693.575 29.472 693.243 29.116 692.995 28.668C692.755 28.22 692.635 27.716 692.635 27.156C692.635 26.596 692.755 26.092 692.995 25.644C693.243 25.196 693.575 24.84 693.991 24.576C694.407 24.312 694.879 24.18 695.407 24.18C695.831 24.18 696.215 24.272 696.559 24.456C696.903 24.632 697.179 24.88 697.387 25.2C697.603 25.512 697.723 25.876 697.747 26.292V28.008C697.723 28.416 697.607 28.78 697.399 29.1C697.191 29.42 696.915 29.672 696.571 29.856C696.227 30.032 695.839 30.12 695.407 30.12ZM695.587 29.1C695.947 29.1 696.259 29.016 696.523 28.848C696.795 28.68 697.007 28.452 697.159 28.164C697.311 27.868 697.387 27.532 697.387 27.156C697.387 26.764 697.307 26.424 697.147 26.136C696.995 25.848 696.783 25.62 696.511 25.452C696.247 25.284 695.935 25.2 695.575 25.2C695.215 25.2 694.899 25.284 694.627 25.452C694.355 25.62 694.139 25.852 693.979 26.148C693.827 26.436 693.751 26.768 693.751 27.144C693.751 27.528 693.827 27.868 693.979 28.164C694.139 28.452 694.355 28.68 694.627 28.848C694.907 29.016 695.227 29.1 695.587 29.1ZM698.407 30H697.315V28.464L697.519 27.072L697.315 25.692V21.432H698.407V30ZM703.412 30V28.968H705.728C706.344 28.968 706.884 28.836 707.348 28.572C707.812 28.3 708.172 27.928 708.428 27.456C708.692 26.984 708.824 26.44 708.824 25.824C708.824 25.216 708.692 24.676 708.428 24.204C708.164 23.732 707.8 23.364 707.336 23.1C706.872 22.836 706.336 22.704 705.728 22.704H703.424V21.672H705.752C706.36 21.672 706.92 21.776 707.432 21.984C707.952 22.192 708.4 22.484 708.776 22.86C709.16 23.236 709.456 23.676 709.664 24.18C709.88 24.684 709.988 25.236 709.988 25.836C709.988 26.428 709.88 26.98 709.664 27.492C709.456 27.996 709.164 28.436 708.788 28.812C708.412 29.188 707.964 29.48 707.444 29.688C706.932 29.896 706.376 30 705.776 30H703.412ZM702.668 30V21.672H703.796V30H702.668ZM713.65 30.12C713.186 30.12 712.766 30.016 712.39 29.808C712.022 29.592 711.734 29.296 711.526 28.92C711.318 28.544 711.214 28.108 711.214 27.612V24.3H712.294V27.564C712.294 27.876 712.346 28.148 712.45 28.38C712.562 28.604 712.722 28.776 712.93 28.896C713.138 29.016 713.382 29.076 713.662 29.076C714.086 29.076 714.418 28.944 714.658 28.68C714.898 28.408 715.018 28.036 715.018 27.564V24.3H716.098V27.612C716.098 28.108 715.994 28.544 715.786 28.92C715.578 29.296 715.29 29.592 714.922 29.808C714.562 30.016 714.138 30.12 713.65 30.12ZM717.546 30V24.3H718.626V30H717.546ZM718.626 26.748L718.218 26.568C718.218 25.84 718.386 25.26 718.722 24.828C719.058 24.396 719.542 24.18 720.174 24.18C720.462 24.18 720.722 24.232 720.954 24.336C721.186 24.432 721.402 24.596 721.602 24.828L720.894 25.56C720.774 25.432 720.642 25.34 720.498 25.284C720.354 25.228 720.186 25.2 719.994 25.2C719.594 25.2 719.266 25.328 719.01 25.584C718.754 25.84 718.626 26.228 718.626 26.748ZM724.599 30.12C724.079 30.12 723.607 29.992 723.183 29.736C722.759 29.472 722.423 29.116 722.175 28.668C721.935 28.22 721.815 27.716 721.815 27.156C721.815 26.596 721.935 26.092 722.175 25.644C722.423 25.196 722.755 24.84 723.171 24.576C723.595 24.312 724.071 24.18 724.599 24.18C725.031 24.18 725.415 24.272 725.751 24.456C726.095 24.632 726.371 24.88 726.579 25.2C726.787 25.512 726.903 25.876 726.927 26.292V28.008C726.903 28.416 726.787 28.78 726.579 29.1C726.379 29.42 726.107 29.672 725.763 29.856C725.427 30.032 725.039 30.12 724.599 30.12ZM724.779 29.1C725.315 29.1 725.747 28.92 726.075 28.56C726.403 28.192 726.567 27.724 726.567 27.156C726.567 26.764 726.491 26.424 726.339 26.136C726.195 25.84 725.987 25.612 725.715 25.452C725.443 25.284 725.127 25.2 724.767 25.2C724.407 25.2 724.087 25.284 723.807 25.452C723.535 25.62 723.319 25.852 723.159 26.148C723.007 26.436 722.931 26.768 722.931 27.144C722.931 27.528 723.007 27.868 723.159 28.164C723.319 28.452 723.539 28.68 723.819 28.848C724.099 29.016 724.419 29.1 724.779 29.1ZM726.495 30V28.464L726.699 27.072L726.495 25.692V24.3H727.587V30H726.495ZM730.012 30V21.912H731.092V30H730.012ZM728.608 25.284V24.3H732.496V25.284H728.608ZM733.566 30V24.3H734.646V30H733.566ZM734.106 23.16C733.906 23.16 733.742 23.096 733.614 22.968C733.486 22.832 733.422 22.664 733.422 22.464C733.422 22.272 733.486 22.112 733.614 21.984C733.742 21.848 733.906 21.78 734.106 21.78C734.306 21.78 734.47 21.848 734.598 21.984C734.726 22.112 734.79 22.272 734.79 22.464C734.79 22.664 734.726 22.832 734.598 22.968C734.47 23.096 734.306 23.16 734.106 23.16ZM738.841 30.12C738.281 30.12 737.777 29.988 737.329 29.724C736.881 29.46 736.525 29.104 736.261 28.656C735.997 28.2 735.865 27.692 735.865 27.132C735.865 26.58 735.997 26.084 736.261 25.644C736.525 25.196 736.881 24.84 737.329 24.576C737.777 24.312 738.281 24.18 738.841 24.18C739.393 24.18 739.893 24.312 740.341 24.576C740.797 24.832 741.157 25.184 741.421 25.632C741.685 26.08 741.817 26.58 741.817 27.132C741.817 27.692 741.685 28.2 741.421 28.656C741.157 29.104 740.797 29.46 740.341 29.724C739.893 29.988 739.393 30.12 738.841 30.12ZM738.841 29.076C739.201 29.076 739.521 28.992 739.801 28.824C740.081 28.656 740.301 28.428 740.461 28.14C740.621 27.844 740.701 27.508 740.701 27.132C740.701 26.764 740.617 26.436 740.449 26.148C740.289 25.86 740.069 25.636 739.789 25.476C739.517 25.308 739.201 25.224 738.841 25.224C738.481 25.224 738.161 25.308 737.881 25.476C737.601 25.636 737.381 25.86 737.221 26.148C737.061 26.436 736.981 26.764 736.981 27.132C736.981 27.508 737.061 27.844 737.221 28.14C737.381 28.428 737.601 28.656 737.881 28.824C738.161 28.992 738.481 29.076 738.841 29.076ZM747.066 30V26.676C747.066 26.244 746.93 25.888 746.658 25.608C746.386 25.328 746.034 25.188 745.602 25.188C745.314 25.188 745.058 25.252 744.834 25.38C744.61 25.508 744.434 25.684 744.306 25.908C744.178 26.132 744.114 26.388 744.114 26.676L743.67 26.424C743.67 25.992 743.766 25.608 743.958 25.272C744.15 24.936 744.418 24.672 744.762 24.48C745.106 24.28 745.494 24.18 745.926 24.18C746.358 24.18 746.738 24.288 747.066 24.504C747.402 24.72 747.666 25.004 747.858 25.356C748.05 25.7 748.146 26.068 748.146 26.46V30H747.066ZM743.034 30V24.3H744.114V30H743.034Z" fill="#718EBF"/>
<rect x="31.7577" y="143" width="30.8419" height="85" rx="7" fill="#2BB2FE"/>
<rect x="74.9363" y="49" width="30.8419" height="179" rx="7" fill="#424247"/>
<rect x="135.078" y="172" width="30.8419" height="56" rx="7" fill="#2BB2FE"/>
<rect x="178.257" y="92" width="30.8419" height="136" rx="7" fill="#424247"/>
<rect x="238.398" y="176" width="30.8419" height="52" rx="7" fill="#2BB2FE"/>
<rect x="281.577" y="139" width="30.8419" height="89" rx="7" fill="#424247"/>
<rect x="341.719" y="66" width="30.8419" height="162" rx="7" fill="#2BB2FE"/>
<rect x="384.897" y="155" width="30.8419" height="73" rx="7" fill="#424247"/>
<rect x="445.039" y="128" width="30.8419" height="100" rx="7" fill="#2BB2FE"/>
<rect x="488.218" y="64" width="30.8419" height="164" rx="7" fill="#424247"/>
<rect x="548.359" y="120" width="30.8419" height="108" rx="7" fill="#2BB2FE"/>
<rect x="591.538" y="173" width="30.8419" height="55" rx="7" fill="#424247"/>
<rect x="651.68" y="99" width="30.8419" height="129" rx="7" fill="#2BB2FE"/>
<rect x="694.858" y="62" width="30.8419" height="166" rx="7" fill="#424247"/>
<path d="M69.5349 250V241.672H70.6509V250H69.5349ZM67.8309 242.68V241.672H70.5309V242.68H67.8309Z" fill="#718EBF"/>
<path d="M169.238 249.316L172.31 246.076C172.622 245.756 172.866 245.48 173.042 245.248C173.218 245.008 173.342 244.788 173.414 244.588C173.494 244.388 173.534 244.18 173.534 243.964C173.534 243.54 173.398 243.208 173.126 242.968C172.854 242.728 172.502 242.608 172.07 242.608C171.646 242.608 171.274 242.712 170.954 242.92C170.634 243.12 170.35 243.432 170.102 243.856L169.31 243.196C169.638 242.652 170.034 242.244 170.498 241.972C170.962 241.692 171.498 241.552 172.106 241.552C172.618 241.552 173.062 241.652 173.438 241.852C173.822 242.052 174.118 242.332 174.326 242.692C174.534 243.052 174.638 243.472 174.638 243.952C174.638 244.296 174.594 244.604 174.506 244.876C174.426 245.148 174.278 245.428 174.062 245.716C173.854 245.996 173.562 246.332 173.186 246.724L170.702 249.28L169.238 249.316ZM169.238 250V249.316L170.198 248.992H174.83V250H169.238Z" fill="#718EBF"/>
<path d="M275.915 250.12C275.371 250.12 274.875 250.02 274.427 249.82C273.987 249.612 273.615 249.312 273.311 248.92L274.079 248.152C274.263 248.432 274.515 248.656 274.835 248.824C275.155 248.984 275.511 249.064 275.903 249.064C276.271 249.064 276.587 248.996 276.851 248.86C277.123 248.716 277.335 248.516 277.487 248.26C277.647 248.004 277.727 247.708 277.727 247.372C277.727 247.028 277.647 246.732 277.487 246.484C277.335 246.228 277.119 246.032 276.839 245.896C276.559 245.76 276.227 245.692 275.843 245.692C275.699 245.692 275.555 245.704 275.411 245.728C275.267 245.744 275.127 245.772 274.991 245.812L275.471 245.164C275.623 245.092 275.787 245.036 275.963 244.996C276.139 244.956 276.315 244.936 276.491 244.936C276.939 244.936 277.339 245.04 277.691 245.248C278.051 245.456 278.335 245.748 278.543 246.124C278.759 246.5 278.867 246.936 278.867 247.432C278.867 247.96 278.739 248.428 278.483 248.836C278.235 249.236 277.891 249.552 277.451 249.784C277.011 250.008 276.499 250.12 275.915 250.12ZM274.991 245.812V245.128L277.427 242.356L278.771 242.344L276.263 245.188L274.991 245.812ZM273.707 242.68V241.672H278.771V242.344L277.787 242.68H273.707Z" fill="#718EBF"/>
<path d="M376.31 247.132L379.346 241.672H380.618L377.522 247.132H376.31ZM376.31 247.828V247.132L376.79 246.82H382.694V247.828H376.31ZM380.378 250V244.492H381.494V250H380.378Z" fill="#718EBF"/>
<path d="M585.367 250.12C584.815 250.12 584.319 249.992 583.879 249.736C583.447 249.48 583.103 249.136 582.847 248.704C582.591 248.272 582.463 247.792 582.463 247.264C582.463 246.528 582.719 245.796 583.231 245.068L585.679 241.672H586.987L584.479 245.092L584.071 245.308C584.167 245.14 584.283 245 584.419 244.888C584.555 244.768 584.723 244.676 584.923 244.612C585.123 244.548 585.359 244.516 585.631 244.516C586.119 244.516 586.559 244.632 586.951 244.864C587.351 245.096 587.671 245.416 587.911 245.824C588.159 246.224 588.283 246.692 588.283 247.228C588.283 247.756 588.151 248.24 587.887 248.68C587.631 249.12 587.279 249.472 586.831 249.736C586.391 249.992 585.903 250.12 585.367 250.12ZM585.367 249.064C585.703 249.064 586.003 248.984 586.267 248.824C586.539 248.656 586.751 248.436 586.903 248.164C587.063 247.884 587.143 247.572 587.143 247.228C587.143 246.884 587.063 246.576 586.903 246.304C586.751 246.024 586.539 245.804 586.267 245.644C586.003 245.484 585.703 245.404 585.367 245.404C585.031 245.404 584.727 245.484 584.455 245.644C584.191 245.804 583.979 246.024 583.819 246.304C583.667 246.576 583.591 246.884 583.591 247.228C583.591 247.572 583.667 247.884 583.819 248.164C583.979 248.444 584.191 248.664 584.455 248.824C584.727 248.984 585.031 249.064 585.367 249.064Z" fill="#718EBF"/>
<path d="M687.989 250L691.109 242.332L692.225 242.368L689.177 250H687.989ZM686.681 242.68V241.672H692.225V242.368L691.733 242.68H686.681Z" fill="#718EBF"/>
<path d="M481.779 250.12C481.211 250.12 480.703 250.02 480.255 249.82C479.815 249.612 479.443 249.312 479.139 248.92L479.907 248.152C480.091 248.432 480.343 248.656 480.663 248.824C480.991 248.984 481.355 249.064 481.755 249.064C482.131 249.064 482.459 248.992 482.739 248.848C483.027 248.704 483.251 248.504 483.411 248.248C483.579 247.984 483.663 247.672 483.663 247.312C483.663 246.944 483.583 246.632 483.423 246.376C483.263 246.12 483.047 245.928 482.775 245.8C482.511 245.664 482.219 245.596 481.899 245.596C481.571 245.596 481.271 245.636 480.999 245.716C480.735 245.796 480.483 245.932 480.243 246.124L480.255 245.404C480.391 245.236 480.547 245.1 480.723 244.996C480.899 244.892 481.099 244.812 481.323 244.756C481.547 244.7 481.807 244.672 482.103 244.672C482.679 244.672 483.167 244.792 483.567 245.032C483.967 245.272 484.271 245.596 484.479 246.004C484.695 246.412 484.803 246.868 484.803 247.372C484.803 247.9 484.671 248.372 484.407 248.788C484.151 249.204 483.795 249.532 483.339 249.772C482.883 250.004 482.363 250.12 481.779 250.12ZM480.243 246.124L479.631 245.512L480.003 241.672H481.035L480.615 245.62L480.243 246.124ZM480.231 242.68L480.003 241.672H484.383V242.68H480.231Z" fill="#718EBF"/>
<defs>
<filter id="filter0_d_519_5071" x="0" y="0" width="799" height="278" filterUnits="userSpaceOnUse" color-interpolation-filters="sRGB">
<feFlood flood-opacity="0" result="BackgroundImageFix"/>
<feColorMatrix in="SourceAlpha" type="matrix" values="0 0 0 0 0 0 0 0 0 0 0 0 0 0 0 0 0 0 127 0" result="hardAlpha"/>
<feOffset dy="4"/>
<feGaussianBlur stdDeviation="2"/>
<feComposite in2="hardAlpha" operator="out"/>
<feColorMatrix type="matrix" values="0 0 0 0 0 0 0 0 0 0 0 0 0 0 0 0 0 0 0.25 0"/>
<feBlend mode="normal" in2="BackgroundImageFix" result="effect1_dropShadow_519_5071"/>
<feBlend mode="normal" in="SourceGraphic" in2="effect1_dropShadow_519_5071" result="shape"/>
</filter>
<filter id="filter1_i_519_5071" x="498.77" y="20" width="18.5051" height="12" filterUnits="userSpaceOnUse" color-interpolation-filters="sRGB">
<feFlood flood-opacity="0" result="BackgroundImageFix"/>
<feBlend mode="normal" in="SourceGraphic" in2="BackgroundImageFix" result="shape"/>
<feColorMatrix in="SourceAlpha" type="matrix" values="0 0 0 0 0 0 0 0 0 0 0 0 0 0 0 0 0 0 127 0" result="hardAlpha"/>
<feOffset/>
<feGaussianBlur stdDeviation="7.5"/>
<feComposite in2="hardAlpha" operator="arithmetic" k2="-1" k3="1"/>
<feColorMatrix type="matrix" values="0 0 0 0 0.0672743 0 0 0 0 0.203342 0 0 0 0 0.520833 0 0 0 0.5 0"/>
<feBlend mode="normal" in2="shape" result="effect1_innerShadow_519_5071"/>
</filter>
<filter id="filter2_i_519_5071" x="611.343" y="20" width="18.5051" height="12" filterUnits="userSpaceOnUse" color-interpolation-filters="sRGB">
<feFlood flood-opacity="0" result="BackgroundImageFix"/>
<feBlend mode="normal" in="SourceGraphic" in2="BackgroundImageFix" result="shape"/>
<feColorMatrix in="SourceAlpha" type="matrix" values="0 0 0 0 0 0 0 0 0 0 0 0 0 0 0 0 0 0 127 0" result="hardAlpha"/>
<feOffset/>
<feGaussianBlur stdDeviation="7.5"/>
<feComposite in2="hardAlpha" operator="arithmetic" k2="-1" k3="1"/>
<feColorMatrix type="matrix" values="0 0 0 0 0.675 0 0 0 0 0.050625 0 0 0 0 0.42301 0 0 0 0.5 0"/>
<feBlend mode="normal" in2="shape" result="effect1_innerShadow_519_5071"/>
</filter>
</defs>
</svg>
