<svg width="20" height="20" viewBox="0 0 20 20" fill="none" xmlns="http://www.w3.org/2000/svg">
<path d="M14.5646 7.50922C14.5709 7.50919 14.5771 7.50917 14.5833 7.50917C16.6544 7.50917 18.3333 9.19118 18.3333 11.2661C18.3333 13.1998 16.875 14.7924 15 15M14.5646 7.50922C14.577 7.37172 14.5833 7.23247 14.5833 7.09174C14.5833 4.55579 12.5313 2.5 9.99999 2.5C7.60269 2.5 5.63526 4.34389 5.43368 6.69326M14.5646 7.50922C14.4794 8.45632 14.1072 9.3205 13.5357 10.0138M5.43368 6.69326C3.31997 6.89477 1.66666 8.67827 1.66666 10.8486C1.66666 12.8681 3.09812 14.5527 4.99999 14.9394M5.43368 6.69326C5.5652 6.68072 5.69852 6.67431 5.83332 6.67431C6.77151 6.67431 7.63728 6.98495 8.33373 7.50917" stroke="black" stroke-opacity="0.6" stroke-width="1.5" stroke-linecap="round" stroke-linejoin="round"/>
<path d="M9.99999 10.8333L9.99999 17.4999M9.99999 10.8333C9.41647 10.8333 8.32626 12.4952 7.91666 12.9166M9.99999 10.8333C10.5835 10.8333 11.6737 12.4952 12.0833 12.9166" stroke="black" stroke-opacity="0.6" stroke-width="1.5" stroke-linecap="round" stroke-linejoin="round"/>
</svg>
