<svg width="36" height="36" viewBox="0 0 36 36" fill="none" xmlns="http://www.w3.org/2000/svg">
<rect width="36" height="36" rx="8" fill="#FBC316" fill-opacity="0.2"/>
<ellipse cx="18.0934" cy="12.6068" rx="3.09336" ry="3.13264" fill="#FBC316"/>
<path d="M17.7334 17.2136C18.5831 17.2136 19.4138 16.9435 20.1203 16.4372C20.8269 15.931 21.3775 15.2116 21.7027 14.3698C22.0279 13.528 22.113 12.6017 21.9472 11.7081C21.7814 10.8144 21.3722 9.99358 20.7714 9.34931C20.1705 8.70503 19.405 8.26628 18.5716 8.08852C17.7382 7.91077 16.8743 8.002 16.0893 8.35068C15.3042 8.69935 14.6332 9.28982 14.1611 10.0474C13.689 10.805 13.4371 11.6957 13.4371 12.6068C13.4384 13.8282 13.8915 14.9991 14.6969 15.8627C15.5024 16.7263 16.5944 17.2122 17.7334 17.2136ZM17.7334 9.84273C18.2433 9.84273 18.7416 10.0048 19.1656 10.3086C19.5895 10.6123 19.9199 11.044 20.115 11.549C20.3101 12.0541 20.3611 12.6099 20.2617 13.1461C20.1622 13.6822 19.9167 14.1748 19.5562 14.5613C19.1957 14.9479 18.7364 15.2111 18.2363 15.3178C17.7363 15.4245 17.218 15.3697 16.7469 15.1605C16.2759 14.9513 15.8733 14.597 15.59 14.1425C15.3068 13.6879 15.1556 13.1535 15.1556 12.6068C15.1556 11.8737 15.4272 11.1707 15.9106 10.6523C16.3941 10.1339 17.0497 9.84273 17.7334 9.84273ZM10.8593 28.27H24.6076C24.8354 28.27 25.054 28.1729 25.2152 28.0001C25.3763 27.8274 25.4668 27.593 25.4668 27.3486V23.6632C25.4655 22.4418 25.0124 21.2709 24.2069 20.4073C23.4015 19.5437 22.3095 19.0578 21.1705 19.0564H14.2963C13.1573 19.0578 12.0653 19.5437 11.2599 20.4073C10.4545 21.2709 10.0014 22.4418 10 23.6632V27.3486C10 27.593 10.0905 27.8274 10.2517 28.0001C10.4128 28.1729 10.6314 28.27 10.8593 28.27ZM11.7185 23.6632C11.7185 22.9301 11.9901 22.227 12.4736 21.7087C12.957 21.1903 13.6127 20.8991 14.2963 20.8991H21.1705C21.8542 20.8991 22.5098 21.1903 22.9933 21.7087C23.4767 22.227 23.7483 22.9301 23.7483 23.6632V26.4273H11.7185V23.6632Z" fill="#FBC316"/>
<path d="M11.2033 22.0048L11.3751 26.7959L11.547 27.533H19.6241H24.6079V25.8746L23.0612 20.5307L14.6403 20.1621L11.2033 22.0048Z" fill="#FBC316"/>
</svg>
