<svg width="19" height="19" viewBox="0 0 19 19" fill="none" xmlns="http://www.w3.org/2000/svg">
<path d="M1 14.3333C1 13.0496 1 12.4078 1.28894 11.9363C1.45062 11.6724 1.67244 11.4506 1.93628 11.2889C2.40779 11 3.04963 11 4.33333 11C5.61703 11 6.25888 11 6.73039 11.2889C6.99422 11.4506 7.21605 11.6724 7.37773 11.9363C7.66667 12.4078 7.66667 13.0496 7.66667 14.3333C7.66667 15.617 7.66667 16.2589 7.37773 16.7304C7.21605 16.9942 6.99422 17.216 6.73039 17.3777C6.25888 17.6667 5.61703 17.6667 4.33333 17.6667C3.04963 17.6667 2.40779 17.6667 1.93628 17.3777C1.67244 17.216 1.45062 16.9942 1.28894 16.7304C1 16.2589 1 15.617 1 14.3333Z" stroke="#141B34" stroke-width="1.5"/>
<path d="M11 14.3333C11 13.0496 11 12.4078 11.2889 11.9363C11.4506 11.6724 11.6724 11.4506 11.9363 11.2889C12.4078 11 13.0496 11 14.3333 11C15.617 11 16.2589 11 16.7304 11.2889C16.9942 11.4506 17.216 11.6724 17.3777 11.9363C17.6667 12.4078 17.6667 13.0496 17.6667 14.3333C17.6667 15.617 17.6667 16.2589 17.3777 16.7304C17.216 16.9942 16.9942 17.216 16.7304 17.3777C16.2589 17.6667 15.617 17.6667 14.3333 17.6667C13.0496 17.6667 12.4078 17.6667 11.9363 17.3777C11.6724 17.216 11.4506 16.9942 11.2889 16.7304C11 16.2589 11 15.617 11 14.3333Z" stroke="#141B34" stroke-width="1.5"/>
<path d="M1 4.33333C1 3.04963 1 2.40779 1.28894 1.93628C1.45062 1.67244 1.67244 1.45062 1.93628 1.28894C2.40779 1 3.04963 1 4.33333 1C5.61703 1 6.25888 1 6.73039 1.28894C6.99422 1.45062 7.21605 1.67244 7.37773 1.93628C7.66667 2.40779 7.66667 3.04963 7.66667 4.33333C7.66667 5.61703 7.66667 6.25888 7.37773 6.73039C7.21605 6.99422 6.99422 7.21605 6.73039 7.37773C6.25888 7.66667 5.61703 7.66667 4.33333 7.66667C3.04963 7.66667 2.40779 7.66667 1.93628 7.37773C1.67244 7.21605 1.45062 6.99422 1.28894 6.73039C1 6.25888 1 5.61703 1 4.33333Z" stroke="#141B34" stroke-width="1.5"/>
<path d="M11 4.33333C11 3.04963 11 2.40779 11.2889 1.93628C11.4506 1.67244 11.6724 1.45062 11.9363 1.28894C12.4078 1 13.0496 1 14.3333 1C15.617 1 16.2589 1 16.7304 1.28894C16.9942 1.45062 17.216 1.67244 17.3777 1.93628C17.6667 2.40779 17.6667 3.04963 17.6667 4.33333C17.6667 5.61703 17.6667 6.25888 17.3777 6.73039C17.216 6.99422 16.9942 7.21605 16.7304 7.37773C16.2589 7.66667 15.617 7.66667 14.3333 7.66667C13.0496 7.66667 12.4078 7.66667 11.9363 7.37773C11.6724 7.21605 11.4506 6.99422 11.2889 6.73039C11 6.25888 11 5.61703 11 4.33333Z" stroke="#141B34" stroke-width="1.5"/>
</svg>
