<svg width="18" height="18" viewBox="0 0 18 18" fill="none" xmlns="http://www.w3.org/2000/svg">
<path d="M0.666687 13.9998C0.666687 12.7161 0.666687 12.0743 0.955628 11.6028C1.11731 11.3389 1.33913 11.1171 1.60296 10.9554C2.07447 10.6665 2.71632 10.6665 4.00002 10.6665C5.28372 10.6665 5.92557 10.6665 6.39708 10.9554C6.66091 11.1171 6.88273 11.3389 7.04441 11.6028C7.33335 12.0743 7.33335 12.7161 7.33335 13.9998C7.33335 15.2835 7.33335 15.9254 7.04441 16.3969C6.88273 16.6607 6.66091 16.8826 6.39708 17.0442C5.92557 17.3332 5.28372 17.3332 4.00002 17.3332C2.71632 17.3332 2.07447 17.3332 1.60296 17.0442C1.33913 16.8826 1.11731 16.6607 0.955628 16.3969C0.666687 15.9254 0.666687 15.2835 0.666687 13.9998Z" stroke="white"/>
<path d="M10.6667 13.9998C10.6667 12.7161 10.6667 12.0743 10.9556 11.6028C11.1173 11.3389 11.3391 11.1171 11.603 10.9554C12.0745 10.6665 12.7163 10.6665 14 10.6665C15.2837 10.6665 15.9256 10.6665 16.3971 10.9554C16.6609 11.1171 16.8827 11.3389 17.0444 11.6028C17.3334 12.0743 17.3334 12.7161 17.3334 13.9998C17.3334 15.2835 17.3334 15.9254 17.0444 16.3969C16.8827 16.6607 16.6609 16.8826 16.3971 17.0442C15.9256 17.3332 15.2837 17.3332 14 17.3332C12.7163 17.3332 12.0745 17.3332 11.603 17.0442C11.3391 16.8826 11.1173 16.6607 10.9556 16.3969C10.6667 15.9254 10.6667 15.2835 10.6667 13.9998Z" stroke="white"/>
<path d="M0.666687 3.99984C0.666687 2.71614 0.666687 2.07429 0.955628 1.60278C1.11731 1.33895 1.33913 1.11712 1.60296 0.955445C2.07447 0.666504 2.71632 0.666504 4.00002 0.666504C5.28372 0.666504 5.92557 0.666504 6.39708 0.955445C6.66091 1.11712 6.88273 1.33895 7.04441 1.60278C7.33335 2.07429 7.33335 2.71614 7.33335 3.99984C7.33335 5.28354 7.33335 5.92538 7.04441 6.39689C6.88273 6.66073 6.66091 6.88255 6.39708 7.04423C5.92557 7.33317 5.28372 7.33317 4.00002 7.33317C2.71632 7.33317 2.07447 7.33317 1.60296 7.04423C1.33913 6.88255 1.11731 6.66073 0.955628 6.39689C0.666687 5.92538 0.666687 5.28354 0.666687 3.99984Z" stroke="white"/>
<path d="M10.6667 3.99984C10.6667 2.71614 10.6667 2.07429 10.9556 1.60278C11.1173 1.33895 11.3391 1.11712 11.603 0.955445C12.0745 0.666504 12.7163 0.666504 14 0.666504C15.2837 0.666504 15.9256 0.666504 16.3971 0.955445C16.6609 1.11712 16.8827 1.33895 17.0444 1.60278C17.3334 2.07429 17.3334 2.71614 17.3334 3.99984C17.3334 5.28354 17.3334 5.92538 17.0444 6.39689C16.8827 6.66073 16.6609 6.88255 16.3971 7.04423C15.9256 7.33317 15.2837 7.33317 14 7.33317C12.7163 7.33317 12.0745 7.33317 11.603 7.04423C11.3391 6.88255 11.1173 6.66073 10.9556 6.39689C10.6667 5.92538 10.6667 5.28354 10.6667 3.99984Z" stroke="white"/>
</svg>
