<svg width="36" height="36" viewBox="0 0 36 36" fill="none" xmlns="http://www.w3.org/2000/svg">
<rect width="36" height="36" rx="8" fill="#27A844" fill-opacity="0.2"/>
<g clip-path="url(#clip0_519_5048)">
<path d="M21.5963 13.9918C21.6524 13.9413 21.7183 13.9022 21.79 13.8767C21.8618 13.8511 21.9381 13.8397 22.0144 13.843C22.314 13.8533 22.4415 14.0108 22.4964 14.1034C22.6601 14.3796 22.6532 14.8885 22.5433 15.2033C22.4655 15.4264 22.3379 15.7674 22.0305 16.0121C21.9629 16.0668 21.8843 16.1074 21.7997 16.1311C21.7151 16.1548 21.6264 16.1613 21.5392 16.15L21.492 16.1422C21.4457 16.2944 21.3892 16.4435 21.3229 16.5885C21.2169 16.8684 20.7036 17.7436 20.0168 18.2778V18.7329C19.9344 18.7978 18.253 20.087 18.1256 20.1746L17.9774 20.2767L17.8294 20.1746C17.7019 20.0867 16.0207 18.7976 15.9382 18.7329C15.9382 18.7329 15.9382 18.5665 15.9382 18.3912C15.6343 18.1918 15.3627 17.9495 15.1323 17.6722C14.7498 17.2227 14.4658 16.7018 14.2981 16.1416C14.2052 16.1607 14.109 16.1589 14.0169 16.1365C13.9248 16.1141 13.8391 16.0716 13.7664 16.0122C13.459 15.7675 13.3315 15.4264 13.2536 15.2034C13.1437 14.8885 13.1368 14.3796 13.3006 14.1034C13.3555 14.011 13.4829 13.8533 13.7825 13.8431C13.8588 13.8397 13.9351 13.8512 14.0068 13.8767C14.0786 13.9023 14.1445 13.9414 14.2006 13.9919C14.2006 13.9919 13.4453 10.4414 18.0352 10.4414C22.625 10.4414 21.5963 13.9918 21.5963 13.9918Z" fill="#27A844"/>
<path d="M19.6096 18.6255C19.6357 18.8795 19.6615 19.1602 19.784 19.3911C19.8405 19.4951 19.923 19.5837 20.0239 19.6485C20.0814 19.6863 20.1526 19.6995 20.2094 19.7355C20.1929 19.725 20.1654 19.717 20.1957 19.7299L20.2213 19.7405L20.3 19.7732C20.365 19.8003 20.43 19.8274 20.4949 19.8545C20.6423 19.9162 20.7897 19.9778 20.937 20.0394C21.0407 20.0825 21.1439 20.1296 21.2494 20.1688C21.2948 20.1806 21.3431 20.1745 21.3839 20.152C21.4248 20.1294 21.4548 20.0922 21.4677 20.0483C21.4791 20.0042 21.4727 19.9575 21.4496 19.9179C21.4265 19.8784 21.3886 19.8491 21.3438 19.8361C21.3374 19.8338 21.3315 19.8311 21.3253 19.8287C21.294 19.8164 21.3648 19.8451 21.3415 19.8354L21.3137 19.8239C21.2641 19.8034 21.2146 19.7828 21.165 19.762C21.0289 19.7053 20.8928 19.6485 20.7567 19.5915C20.6393 19.5422 20.5218 19.4933 20.4043 19.4446C20.2999 19.4015 20.2038 19.368 20.1355 19.2886C20.1402 19.294 20.1506 19.3101 20.1287 19.2798C20.1215 19.2699 20.1149 19.2596 20.1085 19.249C20.098 19.2318 20.0787 19.1946 20.0759 19.188C20.0587 19.1425 20.0445 19.0961 20.0334 19.0489C20.001 18.9094 19.9779 18.768 19.9644 18.6256C19.9631 18.5803 19.944 18.5371 19.911 18.505C19.8781 18.4729 19.8337 18.4544 19.787 18.4531C19.7401 18.4534 19.6951 18.4717 19.6619 18.504C19.6287 18.5363 19.6099 18.58 19.6096 18.6256V18.6255Z" fill="#27A844"/>
<path d="M15.9803 18.6392C15.9607 18.8209 15.9372 19.0636 15.8525 19.2136C15.8214 19.2774 15.7719 19.3311 15.7099 19.3681C15.7016 19.373 15.6344 19.4064 15.6552 19.397C15.6742 19.3881 15.6558 19.397 15.6514 19.3986C15.6264 19.4089 15.6012 19.419 15.5761 19.4294C15.3704 19.5132 15.1648 19.5973 14.9593 19.6814C14.7921 19.7497 14.625 19.8287 14.4524 19.8839C14.4076 19.8969 14.3697 19.9262 14.3466 19.9658C14.3236 20.0053 14.3171 20.052 14.3285 20.0961C14.3414 20.1399 14.3715 20.1771 14.4123 20.1996C14.4531 20.2222 14.5014 20.2283 14.5468 20.2166C14.7376 20.1555 14.9224 20.0674 15.1076 19.992C15.3163 19.9069 15.525 19.8216 15.7336 19.7362C15.9236 19.6587 16.082 19.5475 16.1724 19.361C16.2797 19.1387 16.3088 18.8808 16.3349 18.6393C16.3346 18.5936 16.3158 18.5499 16.2826 18.5176C16.2494 18.4854 16.2045 18.4671 16.1575 18.4668C16.1108 18.4678 16.0663 18.4863 16.0332 18.5184C16.0002 18.5506 15.9812 18.5939 15.9801 18.6393L15.9803 18.6392Z" fill="#27A844"/>
<path d="M14.8774 11.8687C14.7896 11.9628 14.7134 12.0665 14.6503 12.1777C14.3993 12.6124 14.5877 13.7501 14.2575 14.0569C14.2021 13.9863 14.1298 13.93 14.047 13.8927C13.9641 13.8554 13.8731 13.8384 13.7819 13.843C13.7208 13.8446 13.6602 13.854 13.6016 13.871C13.4644 13.3758 13.3708 12.8386 13.3894 12.4098C13.4518 10.9734 13.9285 10.1099 14.7093 9.50613C14.7392 9.48303 14.7668 9.45725 14.7917 9.42911C15.4656 8.66667 16.6404 8.11345 17.8877 8.17396C18.8808 8.22208 19.6734 8.46655 20.3546 8.93295L20.5854 9.09099L20.9299 9.39363C21.6458 10.0224 22.292 11.0029 22.355 12.4491C22.3761 12.9369 22.3169 13.3346 22.1785 13.8662C22.1249 13.8523 22.0699 13.8445 22.0144 13.843C21.9381 13.8397 21.8618 13.8511 21.79 13.8767C21.7183 13.9022 21.6524 13.9413 21.5963 13.9918L21.5017 13.9713C21.4954 13.3407 21.1485 11.8661 20.2709 11.5644C20.0682 11.4905 19.2717 11.2625 18.8645 11.2083C18.312 11.1351 17.7972 11.2194 17.2451 11.2961C16.8825 11.3465 16.506 11.388 16.0132 11.4211C15.5564 11.4407 15.2018 11.556 14.9263 11.8193C14.9098 11.8353 14.8935 11.8517 14.8774 11.8687Z" fill="#27A844"/>
<path d="M14.3253 13.8699C14.2039 13.7644 14.0525 13.6972 13.891 13.6772C13.7295 13.6572 13.5655 13.6852 13.4208 13.7577C13.2099 13.8632 13.0909 14.0736 13.0396 14.2913C12.984 14.5557 12.9837 14.8282 13.0388 15.0927C13.094 15.3571 13.2033 15.6081 13.3605 15.8305C13.5814 16.1422 13.8984 16.3727 14.3044 16.3165C14.3995 16.3033 14.4514 16.1859 14.4283 16.1043C14.4148 16.0608 14.3846 16.0241 14.344 16.0016C14.3034 15.9792 14.2554 15.9728 14.2101 15.9838C13.9905 16.0146 13.7972 15.8331 13.6805 15.6753C13.5675 15.517 13.481 15.3423 13.4242 15.1578C13.3573 14.9532 13.3348 14.7374 13.3581 14.524C13.3659 14.4248 13.3897 14.3273 13.4286 14.2352C13.4222 14.2491 13.4452 14.2048 13.4486 14.1988C13.4554 14.1869 13.4628 14.1756 13.4701 14.164C13.4936 14.127 13.4606 14.1692 13.4796 14.1499C13.4929 14.1364 13.505 14.1222 13.5189 14.1091C13.5262 14.1021 13.5342 14.0953 13.5421 14.089C13.5277 14.1006 13.5351 14.0938 13.5458 14.0869C13.5683 14.0718 13.5921 14.0587 13.6169 14.0477C13.6614 14.0317 13.7079 14.0213 13.7552 14.0169C13.8124 14.0105 13.8704 14.0158 13.9254 14.0325C13.9803 14.0492 14.0311 14.0769 14.0745 14.1138C14.2428 14.2633 14.4944 14.02 14.3253 13.8698V13.8699Z" fill="#27A844"/>
<path d="M21.7217 14.1138C21.7952 14.0547 21.8863 14.0202 21.9815 14.0153C22.0767 14.0104 22.171 14.0354 22.2504 14.0866C22.2744 14.102 22.2463 14.0789 22.2717 14.1038C22.2838 14.1156 22.2959 14.1272 22.3076 14.1395C22.314 14.1456 22.3194 14.1529 22.3251 14.1598C22.3211 14.1549 22.3061 14.1298 22.3197 14.1543C22.3266 14.1667 22.3357 14.1782 22.343 14.1904C22.3877 14.274 22.4171 14.3645 22.4298 14.4578C22.4956 14.8514 22.3791 15.2701 22.168 15.5989C22.0491 15.7843 21.8389 16.0187 21.5861 15.9836C21.5408 15.973 21.493 15.9795 21.4525 16.0019C21.412 16.0243 21.3817 16.0609 21.3679 16.1042C21.345 16.1851 21.3964 16.3031 21.4918 16.3164C22.1566 16.4088 22.5406 15.768 22.7172 15.2401C22.804 14.9643 22.824 14.6726 22.7754 14.3881C22.7386 14.1571 22.6427 13.9376 22.4433 13.7982C22.1536 13.5955 21.7278 13.6417 21.4709 13.8698C21.3019 14.0199 21.5532 14.2633 21.7217 14.1138Z" fill="#27A844"/>
<path d="M21.3905 15.8322C21.3559 15.9899 21.3099 16.145 21.253 16.2964C21.2091 16.4163 21.1764 16.4667 21.136 16.5813C21.1287 16.602 21.1566 16.5385 21.1417 16.5679C21.1381 16.5749 21.1353 16.5822 21.1318 16.5892C21.1255 16.6031 21.1188 16.6168 21.1121 16.6305C21.0931 16.6692 21.073 16.7075 21.0523 16.7454C21.0059 16.8306 20.9562 16.9141 20.9045 16.9964C20.6438 17.4284 20.3093 17.814 19.9154 18.1366C19.7008 18.3147 19.4473 18.4428 19.1741 18.5112C18.9517 18.5608 19.0458 18.8936 19.2685 18.8439C19.8302 18.7187 20.2977 18.3171 20.6634 17.9024C20.9766 17.5588 21.2382 17.1739 21.4406 16.759C21.4586 16.72 21.4747 16.6802 21.4916 16.6408C21.4689 16.6937 21.4895 16.6474 21.494 16.6377C21.5046 16.6143 21.5148 16.5905 21.5249 16.5669C21.54 16.5316 21.5544 16.496 21.5683 16.4602C21.6377 16.286 21.6928 16.1068 21.733 15.9241C21.7444 15.8801 21.7378 15.8334 21.7148 15.7939C21.6917 15.7544 21.6539 15.725 21.6092 15.7119C21.5638 15.7002 21.5155 15.7062 21.4747 15.7288C21.4339 15.7513 21.4038 15.7885 21.3909 15.8324L21.3905 15.8322Z" fill="#27A844"/>
<path d="M14.053 15.9111C14.1761 16.4453 14.3987 16.9531 14.7097 17.4094C15.0445 17.8969 15.4843 18.3536 16.0169 18.6384C16.2853 18.7827 16.5781 18.8791 16.8814 18.9231C16.9267 18.9338 16.9745 18.9273 17.015 18.9049C17.0556 18.8825 17.0858 18.8459 17.0996 18.8026C17.1225 18.7214 17.0711 18.604 16.9757 18.5904C16.4791 18.515 16.018 18.2942 15.6537 17.9575C15.2174 17.5661 14.8712 17.0892 14.6381 16.5582C14.5342 16.3196 14.4529 16.0723 14.3951 15.8194C14.3448 15.6029 14.0026 15.6946 14.053 15.9111Z" fill="#27A844"/>
<path d="M20.444 8.78409C19.8075 8.35102 19.0683 8.12004 18.3011 8.03428C17.8863 7.98398 17.4664 7.98906 17.053 8.04937C16.6692 8.11018 16.2961 8.22276 15.9443 8.38386C15.6029 8.53842 15.2856 8.73898 15.0018 8.97965C14.8668 9.09412 14.7551 9.22751 14.627 9.34766C14.5193 9.4487 14.3972 9.53452 14.2908 9.63779C13.8558 10.0694 13.5455 10.6049 13.3912 11.1904C13.2825 11.5968 13.222 12.0139 13.2109 12.4337C13.1949 12.9099 13.2909 13.3929 13.4127 13.852C13.4697 14.0669 13.8118 13.9758 13.7548 13.7603C13.6445 13.3756 13.5808 12.9796 13.5647 12.5806C13.5604 12.2241 13.5972 11.8683 13.6744 11.5198C13.7345 11.2265 13.8315 10.9416 13.963 10.6713C14.0814 10.4329 14.2329 10.2115 14.4133 10.0133C14.5044 9.91422 14.6017 9.82072 14.7047 9.73335C14.7612 9.68535 14.8235 9.64228 14.8773 9.59164C14.9391 9.53348 14.9925 9.46681 15.0526 9.4068C15.2907 9.1719 15.5624 8.97173 15.8595 8.8125C16.5121 8.46096 17.2556 8.30128 17.9998 8.35287C18.8111 8.4053 19.5942 8.62581 20.2645 9.08199C20.3052 9.10467 20.3535 9.1109 20.3989 9.09932C20.4442 9.08773 20.4832 9.05927 20.5072 9.02007C20.53 8.98038 20.5361 8.93365 20.5243 8.88965C20.5125 8.84566 20.4837 8.80781 20.4438 8.78403L20.444 8.78409Z" fill="#27A844"/>
<path d="M22.3649 13.8519C22.4635 13.4851 22.5207 13.1089 22.5353 12.73C22.5424 12.3588 22.5069 11.9879 22.4295 11.6244C22.305 11.0218 22.05 10.4519 21.6813 9.95266C21.4972 9.70534 21.2874 9.47711 21.0553 9.27161C20.8865 9.12269 20.6348 9.366 20.8044 9.51559C21.2024 9.86256 21.5265 10.2821 21.7585 10.7504C22.0348 11.3247 22.1792 11.9507 22.1814 12.5848C22.1802 12.9816 22.1269 13.3765 22.023 13.7602C21.9686 13.9758 22.3106 14.0678 22.3651 13.8519H22.3649Z" fill="#27A844"/>
<path d="M17.2171 17.0198C17.4394 17.1316 17.687 17.1872 17.9372 17.1818C18.1946 17.1802 18.4555 17.1312 18.6617 16.9749C18.7374 16.9176 18.7236 16.7911 18.6617 16.7309C18.6279 16.6996 18.583 16.6821 18.5363 16.6821C18.4896 16.6821 18.4447 16.6996 18.4108 16.7309C18.464 16.6906 18.4204 16.7231 18.4067 16.7316C18.393 16.7401 18.3771 16.7491 18.3618 16.7569C18.3502 16.763 18.2961 16.7842 18.3428 16.7672C18.3222 16.7747 18.3019 16.7825 18.2809 16.789C18.2244 16.8066 18.1664 16.8194 18.1077 16.8275C18.1323 16.824 18.0965 16.8285 18.0883 16.8293C18.0712 16.8309 18.0542 16.8323 18.0372 16.8334C17.9962 16.836 17.9548 16.837 17.914 16.8367C17.8773 16.8367 17.8405 16.8354 17.8038 16.8328C17.7869 16.8317 17.7701 16.8304 17.7531 16.8288C17.7531 16.8288 17.6941 16.8211 17.7257 16.8258C17.671 16.8178 17.617 16.8061 17.5639 16.7909C17.5413 16.7843 17.5191 16.7764 17.4968 16.769C17.4895 16.7666 17.4825 16.7628 17.4751 16.7608C17.5195 16.7731 17.4908 16.7675 17.4783 16.7619C17.4506 16.7491 17.4231 16.7358 17.396 16.7219C17.3552 16.6998 17.3071 16.6938 17.2619 16.7053C17.2167 16.7168 17.1778 16.7448 17.1533 16.7836C17.13 16.8231 17.1236 16.87 17.1354 16.9141C17.1473 16.9583 17.1764 16.9961 17.2166 17.0196L17.2171 17.0198Z" fill="#27A844"/>
<path d="M17.8521 15.3638C17.8856 15.4811 17.9123 15.6002 17.9323 15.7204L17.9259 15.6745C17.9283 15.6909 17.9288 15.7074 17.9273 15.7238L17.9337 15.678C17.9325 15.6855 17.9307 15.6929 17.9281 15.7001L17.946 15.6589C17.9438 15.6639 17.9411 15.6686 17.938 15.6731L17.9657 15.6383C17.9621 15.6425 17.9581 15.6463 17.9537 15.6497L17.9896 15.6227C17.9803 15.6284 17.9706 15.6334 17.9606 15.6377L18.003 15.6203C17.9873 15.6268 17.9708 15.6315 17.954 15.6342L18.0011 15.628C17.9859 15.6298 17.9705 15.6298 17.9552 15.628L18.0023 15.6342C17.985 15.6318 17.968 15.6277 17.9507 15.6254C17.9045 15.615 17.8559 15.6211 17.814 15.6428C17.7734 15.6659 17.7439 15.7038 17.7321 15.7481C17.7202 15.7923 17.7269 15.8394 17.7506 15.8789C17.7619 15.8984 17.777 15.9155 17.7953 15.9291C17.8135 15.9427 17.8344 15.9526 17.8566 15.9581C17.8951 15.9632 17.9327 15.9727 17.9716 15.9744C18.0301 15.9748 18.0877 15.9615 18.1398 15.9357C18.1726 15.9213 18.2017 15.9 18.2249 15.8732C18.2481 15.8465 18.2648 15.815 18.2739 15.7812C18.2857 15.7259 18.2851 15.6687 18.2721 15.6136C18.2521 15.4988 18.2248 15.3849 18.1944 15.2722C18.1882 15.2504 18.1777 15.2299 18.1634 15.212C18.1491 15.1942 18.1313 15.1792 18.111 15.168C18.0907 15.1568 18.0684 15.1496 18.0453 15.1468C18.0222 15.144 17.9987 15.1457 17.9762 15.1517C17.9538 15.1577 17.9328 15.168 17.9144 15.1819C17.896 15.1958 17.8806 15.2131 17.8691 15.2328C17.8576 15.2525 17.8502 15.2743 17.8473 15.2967C17.8444 15.3192 17.8461 15.3421 17.8523 15.3639L17.8521 15.3638Z" fill="#27A844"/>
<path d="M15.9029 14.3567C15.8416 14.5502 15.8816 14.9954 16.2586 15.0333C16.7569 15.0304 16.7834 14.4921 16.6156 14.2391C16.4783 14.0319 16.0745 13.9457 15.9029 14.3567Z" fill="#27A844"/>
<path d="M19.8933 14.3567C19.9546 14.5502 19.9147 14.9954 19.5377 15.0333C19.0393 15.0304 19.0128 14.4921 19.1805 14.239C19.3182 14.0319 19.7217 13.9457 19.8933 14.3567Z" fill="#27A844"/>
<path d="M18.9888 16.6121C19.01 16.632 19.0296 16.6534 19.0476 16.6761L19.0199 16.6412C19.0587 16.6919 19.0908 16.7472 19.1155 16.8057L19.0976 16.7645C19.1064 16.785 19.1147 16.8057 19.1224 16.8265C19.1358 16.8694 19.1648 16.906 19.2039 16.9296C19.2445 16.9527 19.2929 16.9592 19.3384 16.9477C19.3839 16.9361 19.4228 16.9075 19.4466 16.868C19.4587 16.8482 19.4665 16.8262 19.4696 16.8033C19.4726 16.7805 19.4709 16.7572 19.4645 16.735C19.4195 16.5976 19.3426 16.4722 19.2396 16.3684C19.206 16.3366 19.1611 16.3186 19.1142 16.3179C19.0672 16.3182 19.0222 16.3363 18.9888 16.3684C18.9556 16.4008 18.9369 16.4446 18.9368 16.4904C18.9374 16.536 18.956 16.5797 18.9888 16.6124V16.6121Z" fill="#27A844"/>
<path d="M21.6791 13.9712C21.6682 13.6073 21.6052 13.2466 21.4917 12.8997C21.3663 12.4985 21.1839 12.0991 20.8943 11.7835C20.7382 11.6104 20.5402 11.4779 20.3181 11.398C20.2728 11.3862 20.2245 11.3923 20.1836 11.4148C20.1428 11.4373 20.1127 11.4746 20.0999 11.5185C20.0883 11.5626 20.0948 11.6093 20.1179 11.6488C20.141 11.6884 20.179 11.7177 20.2238 11.7307C20.2306 11.7331 20.2876 11.7562 20.2593 11.7437C20.2771 11.7515 20.2947 11.7598 20.312 11.7686C20.3544 11.7901 20.3953 11.8142 20.4345 11.8407C20.4601 11.8569 20.4842 11.8752 20.5065 11.8955C20.5439 11.9272 20.5796 11.9606 20.6135 11.9957C20.7384 12.1289 20.8432 12.2788 20.9247 12.4407C21.0945 12.7751 21.2126 13.1321 21.275 13.5001C21.2832 13.5452 21.2903 13.5904 21.2974 13.6356C21.3028 13.6698 21.2985 13.6427 21.2974 13.6356C21.2991 13.648 21.3007 13.6607 21.3023 13.6732C21.305 13.695 21.3075 13.7168 21.3097 13.7388C21.3179 13.816 21.3231 13.8935 21.3241 13.9711C21.3272 14.1929 21.6819 14.1936 21.6789 13.9711L21.6791 13.9712Z" fill="#27A844"/>
<path d="M19.575 11.2801C19.5113 11.0533 19.4403 10.8207 19.2849 10.6358C19.2162 10.5602 19.137 10.4941 19.0496 10.4396C18.9549 10.3736 18.8526 10.3184 18.7449 10.2751C18.6996 10.2631 18.6512 10.269 18.6103 10.2916C18.5694 10.3142 18.5393 10.3516 18.5267 10.3956C18.5156 10.4397 18.5222 10.4862 18.5453 10.5257C18.5683 10.5652 18.606 10.5946 18.6506 10.6078C18.594 10.5857 18.6587 10.6123 18.6734 10.6197C18.695 10.6305 18.7162 10.6421 18.7372 10.6541C18.781 10.679 18.8235 10.7057 18.8652 10.7342C18.8862 10.7483 18.9066 10.763 18.9272 10.7777C18.9456 10.7907 18.8992 10.7555 18.9239 10.7753C18.9322 10.782 18.9407 10.7886 18.9489 10.7954C18.9641 10.8077 18.9789 10.8211 18.9929 10.8351C19.0052 10.8474 19.0192 10.872 19.0341 10.88C19.0196 10.8725 19.0126 10.8516 19.0317 10.8776C19.038 10.886 19.0438 10.8946 19.0496 10.9033C19.0605 10.9197 19.0709 10.9365 19.0806 10.9537C19.0903 10.9708 19.1003 10.9898 19.1093 11.0084C19.1145 11.0189 19.1193 11.0296 19.1243 11.0402C19.1403 11.0745 19.1127 11.0105 19.1255 11.0437C19.1671 11.1516 19.2016 11.261 19.2329 11.3721C19.2454 11.4162 19.2754 11.4537 19.3164 11.4763C19.3573 11.4989 19.4058 11.5048 19.4511 11.4926C19.4965 11.4804 19.535 11.4513 19.5583 11.4115C19.5815 11.3717 19.5875 11.3245 19.575 11.2804V11.2801Z" fill="#27A844"/>
<path d="M18.6287 11.209C18.5065 11.0437 18.3611 10.896 18.1967 10.77C18.053 10.6662 17.898 10.578 17.7346 10.5069C17.5831 10.4424 17.425 10.3935 17.263 10.3611C17.0921 10.3174 16.9158 10.2965 16.7391 10.299C16.6924 10.3 16.6479 10.3185 16.6148 10.3506C16.5817 10.3828 16.5627 10.4261 16.5617 10.4716C16.5622 10.5172 16.581 10.5608 16.6142 10.5931C16.6473 10.6253 16.6922 10.6436 16.7391 10.6441C16.8841 10.64 17.0288 10.6568 17.1687 10.6938C17.2482 10.7112 17.3271 10.7312 17.4052 10.7544C17.4375 10.764 17.4697 10.7741 17.5015 10.7852C17.5167 10.7905 17.5318 10.7962 17.547 10.8015C17.5929 10.8176 17.5165 10.7871 17.5556 10.8051C17.8668 10.9482 18.1148 11.1135 18.3222 11.3833C18.3469 11.4217 18.3858 11.4496 18.4309 11.4611C18.476 11.4726 18.5239 11.4669 18.5649 11.4452C18.6052 11.4218 18.6344 11.384 18.6463 11.3398C18.6582 11.2957 18.6517 11.2487 18.6282 11.2092L18.6287 11.209Z" fill="#27A844"/>
<path d="M16.0133 11.2485C15.7191 11.2543 15.4296 11.3203 15.1635 11.4424C14.914 11.5706 14.7042 11.7614 14.5561 11.995C14.2869 12.4028 14.3326 12.9296 14.2882 13.3936C14.2819 13.4625 14.2746 13.5211 14.2676 13.5637C14.2583 13.6232 14.2456 13.6823 14.2296 13.7405C14.2228 13.7646 14.215 13.7882 14.2069 13.812C14.2069 13.812 14.1897 13.8562 14.2002 13.8311C14.2092 13.8094 14.1882 13.8554 14.186 13.8597C14.1759 13.8786 14.1633 13.8958 14.1526 13.9142C14.1331 13.9481 14.1709 13.8958 14.154 13.9125C14.1442 13.9221 14.135 13.9322 14.1249 13.9415C13.9577 14.0934 14.209 14.337 14.3758 14.1854C14.5278 14.0471 14.5822 13.8312 14.6123 13.6382C14.6498 13.3969 14.6603 13.1533 14.678 12.9101C14.6941 12.6888 14.6977 12.5071 14.7857 12.2964C14.7698 12.3344 14.795 12.2798 14.8 12.2706C14.8155 12.2424 14.8327 12.2151 14.8501 12.1879C14.8837 12.1346 14.9212 12.0836 14.9622 12.0354C15.035 11.9492 15.1204 11.8738 15.2156 11.8115C15.4521 11.6611 15.7278 11.6071 16.0128 11.5938C16.0596 11.5929 16.1041 11.5744 16.1372 11.5422C16.1703 11.5101 16.1893 11.4668 16.1902 11.4213C16.1898 11.3757 16.171 11.332 16.1378 11.2998C16.1046 11.2675 16.0597 11.2492 16.0128 11.2488L16.0133 11.2485Z" fill="#27A844"/>
<path d="M21.4778 19.9739L20.9516 19.8232H20.7895C20.7956 19.8799 20.789 19.9371 20.7702 19.9911C20.5482 20.3599 20.3011 20.714 20.0306 21.0508L18.8225 21.0374C18.5748 20.7148 18.3007 20.3666 18.1256 20.1749H17.8294C17.654 20.3667 17.38 20.7149 17.1325 21.0374L15.9245 21.0508C15.654 20.714 15.4069 20.36 15.1849 19.9911C15.1662 19.9371 15.1597 19.8799 15.1659 19.8232H15.0038L14.4776 19.9739C13.1252 20.3961 11.8023 20.9771 10.9839 22.1665C10.3473 23.0902 10.0197 24.1454 9.74123 25.3205H26.2133C25.9349 24.1454 25.6072 23.0901 24.9716 22.1665C24.1531 20.9771 22.8302 20.3961 21.4778 19.9739Z" fill="#27A844"/>
<path d="M9.91228 25.3664C10.1836 24.2237 10.5243 23.0482 11.2529 22.0924C11.9128 21.2267 12.9212 20.7 13.9409 20.3345C14.3062 20.2038 14.6771 20.0964 15.0501 19.9895C15.2687 19.9269 15.1757 19.5938 14.9558 19.6568C14.0841 19.9064 13.215 20.1851 12.4297 20.6395C11.931 20.9208 11.4857 21.2832 11.113 21.711C10.7183 22.1756 10.4255 22.7123 10.1904 23.2677C9.91659 23.9146 9.73185 24.5938 9.57017 25.2746C9.51885 25.4907 9.86084 25.5827 9.91228 25.3664Z" fill="#27A844"/>
<path d="M11.554 16.4922C11.2077 16.1203 10.8603 15.743 10.5117 15.3604L10.2142 17.4876C12.7124 19.8875 15.5341 22.7808 18.5073 25.0431C18.7445 25.0395 18.9772 25.0378 19.2042 25.0378C19.6188 25.0378 20.0531 25.0435 20.4995 25.055C17.8279 22.8698 14.7383 19.9111 11.554 16.4922Z" fill="#27A844"/>
<path d="M10.3863 15.4825C11.7171 16.9437 13.0812 18.3754 14.4786 19.7777C15.734 21.0328 17.0195 22.2604 18.3473 23.4431C19.0062 24.0302 19.677 24.6044 20.3596 25.1657C20.3935 25.197 20.4384 25.2144 20.4851 25.2144C20.5317 25.2144 20.5766 25.197 20.6105 25.1657C20.6434 25.1332 20.6618 25.0894 20.6618 25.0437C20.6618 24.9981 20.6434 24.9543 20.6105 24.9217C19.3446 23.8849 18.1252 22.7949 16.936 21.6759C15.5705 20.3912 14.2417 19.0709 12.9497 17.715C12.1679 16.8993 11.3971 16.0738 10.6372 15.2385C10.604 15.2062 10.5588 15.188 10.5118 15.188C10.4647 15.188 10.4196 15.2062 10.3864 15.2385C10.3531 15.2709 10.3344 15.3148 10.3344 15.3605C10.3344 15.4063 10.353 15.4501 10.3863 15.4825Z" fill="#27A844"/>
<path d="M10.0888 17.6096C11.1175 18.598 12.1318 19.6002 13.1615 20.5877C14.236 21.6184 15.3261 22.6348 16.4586 23.6054C17.0887 24.1454 17.732 24.6708 18.3937 25.1742C18.4277 25.2052 18.4725 25.2225 18.5191 25.2225C18.5657 25.2225 18.6106 25.2052 18.6446 25.1742C18.706 25.1145 18.7206 24.9879 18.6446 24.9302C17.4581 24.0274 16.3299 23.0544 15.2321 22.0518C14.1438 21.0578 13.0856 20.0333 12.0306 19.0061C11.4679 18.4582 10.9043 17.9114 10.3397 17.3657C10.1772 17.2094 9.92616 17.4533 10.0888 17.6096Z" fill="#27A844"/>
<path d="M26.3843 25.2746C26.1053 24.0992 25.7486 22.8779 24.993 21.8986C24.2825 20.9782 23.2453 20.4137 22.1542 20.0184C21.7741 19.8806 21.3876 19.7681 20.9987 19.6568C20.7793 19.5939 20.6855 19.9268 20.9044 19.9895C21.74 20.2287 22.5703 20.4926 23.3249 20.9254C23.8015 21.1924 24.2271 21.5376 24.5827 21.9457C24.9506 22.3759 25.2271 22.8899 25.4419 23.4068C25.705 24.0398 25.8845 24.7021 26.0422 25.366C26.0936 25.5823 26.4358 25.4907 26.3843 25.2743V25.2746Z" fill="#27A844"/>
<path d="M15.938 18.7329C15.744 18.9441 15.5047 19.2534 15.3148 19.4673C15.203 19.5932 15.1208 19.8243 15.1844 19.991C15.2573 20.1327 16.0638 21.3902 16.6068 21.7284C16.7785 21.5061 17.4892 20.5466 17.8292 20.1747C17.7017 20.087 16.0205 18.7978 15.938 18.7329Z" fill="#27A844"/>
<path d="M20.0166 18.7329C20.2106 18.9441 20.4498 19.2534 20.6397 19.4673C20.7515 19.5932 20.8337 19.8243 20.7702 19.991C20.6972 20.1327 19.8908 21.3902 19.3477 21.7284C19.1761 21.5061 18.4653 20.5466 18.1254 20.1747C18.2528 20.087 19.9341 18.7978 20.0166 18.7329Z" fill="#27A844"/>
<path d="M17.2852 21.1248C17.5009 20.844 17.716 20.5598 17.9546 20.297C17.9732 20.278 17.9872 20.2553 17.9956 20.2304C18.004 20.2055 18.0066 20.1791 18.0032 20.1531C17.9997 20.1271 17.9904 20.1022 17.9757 20.0802C17.9611 20.0582 17.9416 20.0396 17.9187 20.0259C17.8916 20.007 17.8652 19.987 17.8388 19.9673L17.8071 19.9433C17.7867 19.9281 17.841 19.9688 17.8068 19.9433L17.7181 19.8764C17.5695 19.764 17.4212 19.6512 17.2732 19.538C16.9535 19.2941 16.6342 19.0497 16.3152 18.8049C16.2313 18.7405 16.1469 18.6766 16.0637 18.6113C16.03 18.5797 15.9851 18.562 15.9383 18.562C15.8915 18.562 15.8465 18.5797 15.8128 18.6113C15.6655 18.7725 15.5289 18.9426 15.3897 19.1103C15.2518 19.2767 15.094 19.4275 15.0236 19.6345C14.9929 19.7162 14.9808 19.8035 14.988 19.8902C14.9952 19.977 15.0215 20.0612 15.0652 20.1371C15.1449 20.27 15.2316 20.3992 15.3193 20.5272C15.4709 20.7482 15.6308 20.9635 15.7988 21.1731C15.8578 21.2467 15.9878 21.2333 16.0497 21.1731C16.0819 21.1402 16.0999 21.0965 16.0999 21.0511C16.0999 21.0057 16.0819 20.962 16.0497 20.9291C15.8856 20.7246 15.7325 20.5113 15.5859 20.2945C15.4945 20.173 15.4128 20.0449 15.3417 19.9112C15.3527 19.9351 15.3423 19.9173 15.3423 19.9067C15.3403 19.8768 15.3403 19.8467 15.3423 19.8168C15.348 19.7774 15.3587 19.7389 15.374 19.702C15.4238 19.6065 15.4887 19.5192 15.5662 19.4432C15.7316 19.2467 15.8904 19.0447 16.0638 18.8548H15.813C16.3478 19.2748 16.8921 19.6842 17.4344 20.095C17.5357 20.1718 17.6355 20.2512 17.7401 20.3238L17.7041 20.0527C17.4453 20.3375 17.2129 20.6461 16.9792 20.9503C16.9558 20.9899 16.9493 21.0368 16.9611 21.081C16.973 21.1251 17.0023 21.163 17.0426 21.1864C17.0834 21.2084 17.1314 21.2143 17.1766 21.2028C17.2218 21.1914 17.2608 21.1634 17.2853 21.1247L17.2852 21.1248Z" fill="#27A844"/>
<path d="M18.9757 20.9506C18.742 20.6464 18.5096 20.3378 18.2508 20.053L18.2149 20.3241C18.4565 20.1563 18.6862 19.9698 18.9198 19.7916C19.2422 19.5458 19.5642 19.2993 19.8858 19.0523C19.9713 18.9867 20.0572 18.9216 20.1419 18.8551H19.8911C20.0646 19.045 20.2233 19.247 20.3887 19.4435C20.4617 19.5303 20.5388 19.5991 20.581 19.7023C20.5963 19.7392 20.6069 19.7777 20.6127 19.8171C20.6147 19.847 20.6147 19.8771 20.6127 19.907C20.6127 19.9175 20.6022 19.9354 20.6133 19.9115C20.5421 20.0452 20.4605 20.1733 20.3691 20.2948C20.2225 20.5114 20.0693 20.7247 19.9052 20.9294C19.8733 20.9625 19.8556 21.0061 19.8556 21.0514C19.8556 21.0967 19.8733 21.1404 19.9052 21.1734C19.9665 21.233 20.0968 21.2473 20.1561 21.1734C20.414 20.8546 20.6515 20.5207 20.8675 20.1737C20.8919 20.1367 20.9136 20.098 20.9324 20.058C20.9739 19.9478 20.981 19.8281 20.9527 19.7141C20.9092 19.4968 20.7619 19.3457 20.6233 19.1803C20.4638 18.99 20.3098 18.7951 20.1418 18.6115C20.1081 18.58 20.0631 18.5625 20.0164 18.5625C19.9697 18.5625 19.9247 18.58 19.891 18.6115C19.361 19.0276 18.8215 19.4333 18.2842 19.8406C18.2508 19.8658 18.2174 19.8911 18.184 19.9163L18.1404 19.9492L18.1545 19.9386L18.1311 19.9562C18.0994 19.9798 18.0682 20.0039 18.036 20.0264C18.0131 20.0401 17.9936 20.0587 17.979 20.0807C17.9644 20.1027 17.955 20.1276 17.9516 20.1536C17.9482 20.1796 17.9507 20.206 17.9591 20.2309C17.9675 20.2558 17.9815 20.2785 18.0001 20.2975C18.239 20.5603 18.4538 20.8445 18.6696 21.1253C18.6943 21.1637 18.7333 21.1915 18.7784 21.2029C18.8235 21.2144 18.8714 21.2086 18.9123 21.1869C18.9526 21.1635 18.9819 21.1257 18.9938 21.0815C19.0056 21.0373 18.9991 20.9904 18.9757 20.9509L18.9757 20.9506Z" fill="#27A844"/>
<path d="M22.7837 26.0723C22.7837 23.577 20.8298 21.476 18.0279 21.476C15.216 21.476 13.2724 23.594 13.2724 26.0723L11.9501 26.0603C11.9501 22.8926 14.4343 20.1855 18.0283 20.1855C21.6097 20.1855 24.107 22.871 24.107 26.0603L22.7837 26.0723Z" fill="#27A844"/>
<path d="M24.2841 26.0605C24.2877 24.8245 23.909 23.6159 23.1974 22.5918C22.4792 21.577 21.4532 20.8055 20.2625 20.3849C18.9664 19.9368 17.5596 19.8889 16.2344 20.2477C15.0117 20.5789 13.9268 21.2749 13.1327 22.2378C12.3471 23.2052 11.8791 24.3802 11.7896 25.6098C11.7783 25.7599 11.773 25.9104 11.7727 26.0609C11.7724 26.2827 12.1271 26.2833 12.1275 26.0609C12.1246 24.8928 12.4831 23.7509 13.1565 22.7836C13.8284 21.8326 14.7885 21.109 15.903 20.7134C17.1319 20.2874 18.466 20.2405 19.7233 20.5792C20.8793 20.891 21.9054 21.5482 22.6566 22.4578C23.3892 23.3621 23.8267 24.459 23.9126 25.6072C23.924 25.7583 23.9294 25.9097 23.9296 26.0611C23.93 26.2829 24.2848 26.2835 24.2844 26.0611L24.2841 26.0605Z" fill="#27A844"/>
<path d="M22.9611 26.0725C22.9639 25.0979 22.6653 24.145 22.1041 23.3375C21.5366 22.5362 20.726 21.9271 19.7854 21.5953C18.7636 21.2428 17.6548 21.2058 16.6106 21.4894C15.6504 21.7501 14.7981 22.2965 14.1732 23.052C13.5516 23.8151 13.1807 24.7426 13.1089 25.7136C13.0998 25.833 13.0955 25.9526 13.0953 26.0722C13.0947 26.294 13.4495 26.2946 13.45 26.0722C13.4478 25.1682 13.7245 24.2843 14.2444 23.5348C14.7642 22.7968 15.5074 22.2346 16.3709 21.9262C17.3246 21.5939 18.3605 21.5561 19.3372 21.8178C20.2385 22.0594 21.0384 22.5714 21.6229 23.2809C22.1893 23.9824 22.5273 24.8323 22.5936 25.7219C22.6023 25.8386 22.6063 25.9555 22.6063 26.0725C22.6068 26.2943 22.9616 26.2949 22.9611 26.0725Z" fill="#27A844"/>
<path d="M25.0384 24.9358C24.9844 24.225 24.6837 23.5841 24.0041 23.0718C23.9041 22.9972 23.7925 22.9384 23.6735 22.8978C22.9636 22.6514 21.9708 22.9721 21.5871 23.626C21.5396 23.7079 21.5103 23.7985 21.5009 23.8921C21.4098 23.8697 21.3143 23.8702 21.2234 23.8933C21.1325 23.9164 21.049 23.9615 20.9808 24.0243C20.8787 24.1414 20.8258 24.3785 20.8481 24.5305C20.8902 24.7736 20.9747 25.0079 21.0981 25.2232C21.1514 25.3147 21.2267 25.3924 21.3175 25.4495C21.4084 25.5066 21.5121 25.5414 21.6199 25.551C21.7861 25.5814 21.9558 25.59 22.1244 25.5768C22.1234 25.6238 22.1276 25.6707 22.1368 25.7169C22.1481 25.7886 22.1741 25.8575 22.2132 25.9193C22.2523 25.9812 22.3037 26.0348 22.3645 26.0771C22.5322 26.1779 22.823 26.1294 22.9713 26.0548L23.0007 26.0401L22.9641 26.0832C22.8281 26.2445 22.9919 26.5502 23.1152 26.6295C23.4705 26.8582 23.8834 26.652 24.2857 26.4645C24.5961 26.3199 24.8868 26.0227 24.9715 25.7364C25.0395 25.5065 25.0689 25.3352 25.0384 24.9358Z" fill="#27A844"/>
<path d="M21.6201 25.3786C21.2569 25.3402 21.1196 24.9184 21.0466 24.6235C21.0068 24.4868 21.0156 24.341 21.0716 24.2098C21.0807 24.1802 21.0971 24.1533 21.1192 24.1312C21.1414 24.1092 21.1687 24.0926 21.1988 24.083C21.2789 24.0482 21.3684 24.0397 21.4539 24.0589C21.6762 24.1082 21.7712 23.7755 21.5482 23.7262C21.2834 23.6678 20.9637 23.7371 20.8051 23.967C20.6777 24.1698 20.636 24.4126 20.6886 24.6447C20.735 24.8951 20.8305 25.1344 20.97 25.3497C21.0425 25.4555 21.1387 25.5441 21.2512 25.6088C21.3637 25.6736 21.4898 25.7129 21.6201 25.7238C21.6671 25.7235 21.712 25.7053 21.7452 25.673C21.7784 25.6407 21.7972 25.597 21.7975 25.5513C21.7965 25.5059 21.7775 25.4626 21.7444 25.4304C21.7114 25.3983 21.6668 25.3798 21.6201 25.3788V25.3786Z" fill="#27A844"/>
<path d="M21.6797 24.3053C21.4878 24.5061 21.3847 24.7863 21.4799 25.0553C21.5172 25.1787 21.5977 25.2855 21.7075 25.3572C21.8239 25.4243 21.9573 25.4587 22.0926 25.4563C22.3904 25.4555 22.6496 25.3046 22.9099 25.1828C23.1713 25.0604 23.4341 24.9405 23.692 24.8114C23.8948 24.7097 23.7158 24.4119 23.5129 24.5134C23.3047 24.6178 23.0932 24.7158 22.8821 24.8142C22.6816 24.9078 22.4788 25.0306 22.2634 25.0874C22.1735 25.1131 22.0786 25.1172 21.9867 25.0993C21.952 25.0954 21.919 25.0824 21.8913 25.0616C21.8635 25.0409 21.8422 25.0131 21.8294 24.9815C21.7634 24.8365 21.8104 24.6754 21.9308 24.5492C22.0861 24.3868 21.8358 24.1422 21.6799 24.3053H21.6797Z" fill="#27A844"/>
<path d="M22.1209 25.1612C21.9191 25.3862 21.9048 25.6811 22.0292 25.947C22.0817 26.0626 22.17 26.1593 22.2818 26.2236C22.3936 26.288 22.5232 26.3167 22.6527 26.3059C22.9227 26.292 23.1433 26.1607 23.382 26.0514C23.6376 25.943 23.8869 25.8208 24.1287 25.6856C24.3229 25.5696 24.145 25.2711 23.9496 25.3877C23.7572 25.4974 23.5585 25.5964 23.3546 25.6844C23.2453 25.7342 23.1359 25.7836 23.0275 25.835C22.9761 25.8597 22.9255 25.8852 22.8741 25.9097C22.8634 25.9145 22.8639 25.9146 22.8757 25.9101C22.8637 25.9148 22.8516 25.9191 22.8394 25.9231C22.8198 25.9296 22.8001 25.9354 22.7801 25.9404C22.6265 25.9791 22.472 25.9835 22.3816 25.8557C22.2875 25.7228 22.2557 25.5346 22.3717 25.4052C22.404 25.3723 22.4219 25.3286 22.4219 25.2832C22.4219 25.2377 22.404 25.1941 22.3717 25.1612C22.3383 25.1292 22.2932 25.1113 22.2463 25.1113C22.1994 25.1113 22.1543 25.1292 22.1209 25.1612Z" fill="#27A844"/>
<path d="M22.8109 25.9967C22.6833 26.1627 22.7364 26.3972 22.8313 26.5649C22.882 26.6529 22.953 26.7282 23.0388 26.7849C23.1245 26.8415 23.2227 26.878 23.3255 26.8914C23.5845 26.93 23.8305 26.8523 24.066 26.7541C24.2932 26.6688 24.5062 26.5515 24.6984 26.406C24.8743 26.2664 25.0134 26.0881 25.1042 25.8857C25.1672 25.7304 25.2061 25.5668 25.2195 25.4004C25.2548 25.0011 25.2051 24.5989 25.0734 24.2191C24.9381 23.8325 24.7126 23.4816 24.4145 23.1938C24.1427 22.9301 23.8366 22.7243 23.4507 22.667C22.7453 22.5623 21.9691 22.8354 21.5338 23.3935C21.4094 23.5439 21.3353 23.7277 21.3213 23.9202C21.3098 24.1375 21.4117 24.3796 21.619 24.4832C21.8447 24.5961 22.0642 24.4914 22.2696 24.3896C22.4941 24.2782 22.7239 24.1767 22.9511 24.0708C23.049 24.0251 23.1466 23.9789 23.2434 23.931C23.4469 23.8302 23.2675 23.5324 23.0643 23.6331C22.8824 23.7232 22.6976 23.8074 22.5131 23.8927C22.3275 23.9786 22.1453 24.0775 21.9568 24.1567C21.8998 24.1809 21.8322 24.2051 21.7873 24.1813C21.7606 24.1648 21.7376 24.1431 21.7199 24.1176C21.7022 24.0921 21.69 24.0633 21.6842 24.033C21.6725 23.9678 21.6745 23.9011 21.69 23.8367C21.7056 23.7723 21.7343 23.7116 21.7746 23.6583C21.9305 23.4364 22.1471 23.2612 22.4 23.1527C22.654 23.0369 22.9324 22.9808 23.2128 22.989C23.3455 22.9916 23.4768 23.0145 23.6021 23.0567C23.7217 23.0974 23.8332 23.1579 23.9316 23.2354C24.2177 23.455 24.452 23.7318 24.6184 24.0471C24.7613 24.3349 24.8445 24.6472 24.8634 24.9663C24.8694 25.0509 24.8735 25.1356 24.8732 25.2204C24.8732 25.2618 24.8719 25.3031 24.8692 25.3444C24.8682 25.3601 24.867 25.3758 24.8655 25.3915C24.8649 25.3979 24.858 25.4562 24.8623 25.4254C24.8486 25.5898 24.7949 25.7488 24.7057 25.8891C24.6164 26.0294 24.4942 26.1471 24.3491 26.2325C24.1561 26.3525 23.9474 26.4467 23.7286 26.5127C23.6269 26.5485 23.5186 26.5636 23.4106 26.557C23.3667 26.5526 23.3237 26.5419 23.283 26.5251C23.264 26.517 23.2467 26.506 23.2287 26.4964C23.1689 26.4642 23.2336 26.5107 23.2075 26.4827C23.1627 26.4373 23.1284 26.383 23.1071 26.3235C23.0829 26.2496 23.0806 26.2195 23.1175 26.1715C23.1409 26.1319 23.1474 26.085 23.1356 26.0408C23.1237 25.9967 23.0945 25.9588 23.0541 25.9355C23.0133 25.9134 22.9653 25.9075 22.9201 25.919C22.8749 25.9305 22.836 25.9584 22.8114 25.9971L22.8109 25.9967Z" fill="#27A844"/>
<path d="M14.9737 24.0244C14.9055 23.9616 14.8221 23.9165 14.7312 23.8934C14.6402 23.8702 14.5448 23.8698 14.4537 23.8921C14.4443 23.7986 14.4149 23.708 14.3675 23.6261C13.9838 22.9722 12.991 22.6515 12.281 22.8977C12.1621 22.9383 12.0505 22.997 11.9505 23.0717C11.2708 23.5839 10.9701 24.2248 10.9161 24.9356C10.8857 25.335 10.915 25.5064 10.983 25.7366C11.0677 26.0229 11.3583 26.32 11.6689 26.4647C12.0711 26.6521 12.4841 26.8583 12.8393 26.6297C12.9627 26.5503 13.1264 26.2446 12.9905 26.0834L12.9539 26.0402L12.9832 26.055C13.1316 26.1295 13.4224 26.1782 13.5901 26.0772C13.6508 26.035 13.7023 25.9813 13.7414 25.9195C13.7805 25.8576 13.8064 25.7888 13.8178 25.717C13.827 25.6709 13.8312 25.6239 13.8302 25.5769C13.9988 25.5902 14.1685 25.5815 14.3347 25.5511C14.4424 25.5415 14.5462 25.5067 14.637 25.4496C14.7279 25.3925 14.8032 25.3149 14.8565 25.2233C14.9798 25.0079 15.0644 24.7735 15.1064 24.5304C15.1287 24.3786 15.0758 24.1416 14.9737 24.0244Z" fill="#27A844"/>
<path d="M14.5007 24.0586C14.5862 24.0397 14.6756 24.0481 14.7557 24.0827C14.776 24.0916 14.7954 24.1022 14.8136 24.1146C14.8374 24.1307 14.8184 24.1146 14.837 24.1346C14.8538 24.1546 14.8676 24.1767 14.8784 24.2003C14.9386 24.3336 14.9491 24.4832 14.9079 24.6232C14.8353 24.9182 14.6974 25.3399 14.3344 25.3783C14.2878 25.3796 14.2434 25.3982 14.2104 25.4302C14.1774 25.4623 14.1583 25.5055 14.157 25.5508C14.1573 25.5965 14.1761 25.6402 14.2093 25.6725C14.2425 25.7047 14.2874 25.723 14.3344 25.7233C14.4647 25.7124 14.5908 25.6731 14.7034 25.6084C14.816 25.5436 14.9122 25.455 14.9848 25.3492C15.1242 25.134 15.2197 24.8946 15.2661 24.6442C15.3187 24.4121 15.277 24.1693 15.1497 23.9665C14.9913 23.7366 14.6713 23.6673 14.4066 23.7257C14.184 23.775 14.2782 24.1077 14.5009 24.0584L14.5007 24.0586Z" fill="#27A844"/>
<path d="M14.024 24.5487C14.1443 24.6748 14.1917 24.8355 14.1253 24.9809C14.1127 25.0127 14.0913 25.0405 14.0636 25.0613C14.0358 25.0821 14.0028 25.095 13.968 25.0988C13.8762 25.117 13.7811 25.113 13.6913 25.0869C13.4759 25.0294 13.2732 24.9073 13.0727 24.8137C12.8615 24.7151 12.6501 24.6172 12.4418 24.5129C12.239 24.4114 12.0594 24.7091 12.2627 24.8109C12.5207 24.9403 12.7835 25.0599 13.0449 25.1823C13.3046 25.3041 13.5644 25.455 13.8618 25.4558C13.9971 25.4582 14.1305 25.4238 14.247 25.3566C14.3567 25.2849 14.4372 25.1781 14.4745 25.0547C14.5696 24.7857 14.4666 24.5056 14.2747 24.3047C14.1189 24.1418 13.8685 24.3861 14.0238 24.5487H14.024Z" fill="#27A844"/>
<path d="M13.5828 25.4054C13.6993 25.5354 13.6665 25.7219 13.5729 25.8559C13.5559 25.8844 13.5321 25.9086 13.5036 25.9265C13.475 25.9444 13.4426 25.9555 13.4088 25.9589C13.3302 25.967 13.2506 25.9607 13.1744 25.9404C13.1544 25.9353 13.1346 25.9296 13.1151 25.9231C13.1133 25.9225 13.0612 25.9015 13.088 25.9134C13.0336 25.8891 12.9808 25.8606 12.927 25.835C12.8186 25.7836 12.7092 25.7342 12.5999 25.6844C12.396 25.5965 12.1973 25.4974 12.0049 25.3877C11.8097 25.2712 11.6311 25.5695 11.8258 25.6856C12.0676 25.8208 12.3168 25.9429 12.5725 26.0514C12.811 26.1607 13.0318 26.292 13.3018 26.3059C13.4312 26.3168 13.5609 26.288 13.6727 26.2237C13.7845 26.1593 13.8728 26.0626 13.9253 25.947C14.0497 25.6811 14.0354 25.3864 13.8336 25.1612C13.8002 25.1292 13.7551 25.1113 13.7082 25.1113C13.6613 25.1113 13.6162 25.1292 13.5828 25.1612C13.5503 25.194 13.5322 25.2377 13.5322 25.2832C13.5322 25.3287 13.5503 25.3724 13.5828 25.4052L13.5828 25.4054Z" fill="#27A844"/>
<path d="M12.8371 26.1708C12.8371 26.1708 12.8677 26.2195 12.8553 26.1919C12.8563 26.1941 12.8667 26.247 12.8635 26.2166C12.8666 26.2393 12.8649 26.2623 12.8584 26.2843C12.851 26.315 12.8402 26.3448 12.8261 26.3731C12.8201 26.3846 12.8135 26.396 12.8071 26.4071C12.8034 26.4133 12.7657 26.4649 12.7812 26.4467C12.7715 26.4581 12.7163 26.5028 12.7499 26.4808C12.711 26.507 12.668 26.5271 12.6226 26.5402C12.545 26.5605 12.4638 26.564 12.3847 26.5504C12.1736 26.5175 11.9758 26.4177 11.7854 26.3286C11.6162 26.251 11.465 26.1407 11.3412 26.0043C11.2389 25.8904 11.1666 25.754 11.1306 25.6069C11.0958 25.4844 11.0794 25.3577 11.0817 25.2307C11.0745 24.8925 11.1316 24.556 11.2501 24.238C11.3729 23.929 11.5636 23.6499 11.8089 23.4201C11.9223 23.3048 12.0515 23.2053 12.1928 23.1243C12.3105 23.0634 12.4382 23.0227 12.5701 23.0039C12.8443 22.9669 13.1236 22.9951 13.3842 23.086C13.6492 23.172 13.8871 23.3226 14.0753 23.5235C14.1756 23.6244 14.2451 23.7505 14.276 23.8877C14.2897 23.9596 14.2787 24.0339 14.2449 24.0992C14.2335 24.1251 14.2148 24.1474 14.1909 24.1636C14.1671 24.1797 14.1391 24.1891 14.1101 24.1906C14.0154 24.1806 13.9248 24.1208 13.8421 24.0804C13.7362 24.0287 13.629 23.9794 13.5221 23.9298C13.311 23.8319 13.0989 23.7361 12.8905 23.6328C12.6878 23.5322 12.5078 23.83 12.7114 23.9308C12.9198 24.034 13.132 24.1298 13.343 24.2277C13.4574 24.2808 13.5723 24.3333 13.6851 24.3893C13.7794 24.4418 13.8793 24.4843 13.9829 24.516C14.0991 24.5455 14.2224 24.5334 14.3302 24.4819C14.4381 24.4305 14.5233 24.343 14.5704 24.2356C14.6137 24.1352 14.6346 24.027 14.6317 23.9182C14.6289 23.8094 14.6023 23.7025 14.5539 23.6043C14.4145 23.2967 14.1127 23.0486 13.8137 22.8938C13.4932 22.7264 13.1346 22.6402 12.7708 22.6431C12.416 22.644 12.0718 22.7607 11.7934 22.9746C11.4536 23.2324 11.1803 23.5637 10.9954 23.9423C10.8249 24.3153 10.734 24.7181 10.7281 25.1263C10.7169 25.4929 10.7851 25.8684 11.0199 26.1644C11.161 26.3442 11.3406 26.4921 11.5462 26.5979C11.7678 26.7197 12.0047 26.8131 12.2509 26.8757C12.484 26.925 12.7397 26.9097 12.9398 26.7714C13.0193 26.7118 13.085 26.6366 13.1327 26.5508C13.1805 26.465 13.2093 26.3704 13.2172 26.2731C13.2276 26.1753 13.2015 26.0772 13.1437 25.9967C13.1189 25.9583 13.08 25.9305 13.0349 25.9191C12.9898 25.9076 12.9419 25.9133 12.9009 25.9351C12.8606 25.9584 12.8312 25.9962 12.8193 26.0403C12.8074 26.0845 12.8139 26.1315 12.8373 26.171L12.8371 26.1708Z" fill="#27A844"/>
<path d="M27.5689 26.6644V25.7506C24.9914 25.192 21.0217 24.9233 17.9999 24.9233C14.9781 24.9233 11.0086 25.1921 8.43093 25.7506V27.2037C8.43093 27.269 8.45763 27.3317 8.50516 27.3779C8.55268 27.4241 8.61714 27.4501 8.68435 27.4501H27.3155C27.3827 27.4501 27.4472 27.4241 27.4947 27.3779C27.5422 27.3317 27.5689 27.269 27.5689 27.2037V26.6644Z" fill="#27A844"/>
<path d="M27.6161 25.5839C26.4479 25.3316 25.2572 25.1773 24.0678 25.0564C22.7483 24.9222 21.4233 24.8368 20.0975 24.7894C18.8568 24.7451 17.6156 24.7401 16.3741 24.7744C15.0499 24.8118 13.7277 24.8904 12.4075 25.0103C11.184 25.1138 9.96697 25.2793 8.76126 25.5061C8.63519 25.5308 8.50937 25.5567 8.3838 25.5839C8.16098 25.6321 8.25532 25.9648 8.47813 25.9166C9.62879 25.679 10.7925 25.5059 11.9636 25.3982C13.2727 25.2659 14.5872 25.1814 15.9023 25.1345C17.1431 25.0902 18.3843 25.0851 19.6258 25.1194C20.934 25.1563 22.2403 25.2335 23.5446 25.3509C24.7525 25.452 25.954 25.6149 27.1443 25.8388C27.2704 25.8635 27.3962 25.8894 27.5218 25.9166C27.7442 25.9647 27.8392 25.6321 27.6161 25.5839Z" fill="#27A844"/>
</g>
<defs>
<clipPath id="clip0_519_5048">
<rect width="20" height="19.45" fill="white" transform="translate(8 8)"/>
</clipPath>
</defs>
</svg>
