<svg width="19" height="13" viewBox="0 0 19 13" fill="none" xmlns="http://www.w3.org/2000/svg">
<path d="M5.25 4.66667V8.33333M18 7.41667V5.58333M4.02222 12H14.0333C15.0912 12 15.6202 12 16.0242 11.8002C16.3796 11.6244 16.6686 11.3439 16.8497 10.999C17.0556 10.6069 17.0556 10.0934 17.0556 9.06667V3.93333C17.0556 2.90657 17.0556 2.39319 16.8497 2.00102C16.6686 1.65605 16.3796 1.37559 16.0242 1.19982C15.6202 1 15.0912 1 14.0333 1H4.02222C2.96435 1 2.4354 1 2.03135 1.19982C1.67593 1.37559 1.38697 1.65605 1.20588 2.00102C1 2.39319 1 2.90657 1 3.93333V9.06667C1 10.0934 1 10.6069 1.20588 10.999C1.38697 11.3439 1.67593 11.6244 2.03135 11.8002C2.4354 12 2.96434 12 4.02222 12Z" stroke="white" stroke-linecap="round" stroke-linejoin="round"/>
</svg>
