<svg width="12" height="12" viewBox="0 0 12 12" fill="none" xmlns="http://www.w3.org/2000/svg">
<path d="M9.25 6.75H8.25V5.25H9.25C9.74445 5.25 10.2278 5.10338 10.6389 4.82867C11.05 4.55397 11.3705 4.16352 11.5597 3.70671C11.7489 3.24989 11.7984 2.74723 11.702 2.26228C11.6055 1.77732 11.3674 1.33187 11.0178 0.982234C10.6681 0.632603 10.2227 0.394501 9.73773 0.298038C9.25277 0.201575 8.75011 0.251083 8.29329 0.440302C7.83648 0.629521 7.44603 0.949953 7.17133 1.36108C6.89662 1.7722 6.75 2.25555 6.75 2.75V3.75H5.25V2.75C5.25 2.25555 5.10338 1.7722 4.82867 1.36108C4.55397 0.949953 4.16352 0.629521 3.70671 0.440302C3.24989 0.251083 2.74723 0.201575 2.26228 0.298038C1.77732 0.394501 1.33187 0.632603 0.982234 0.982234C0.632603 1.33187 0.394501 1.77732 0.298038 2.26228C0.201575 2.74723 0.251083 3.24989 0.440302 3.70671C0.629521 4.16352 0.949953 4.55397 1.36108 4.82867C1.7722 5.10338 2.25555 5.25 2.75 5.25H3.75V6.75H2.75C2.25555 6.75 1.7722 6.89662 1.36108 7.17133C0.949953 7.44603 0.629521 7.83648 0.440302 8.29329C0.251083 8.75011 0.201575 9.25277 0.298038 9.73773C0.394501 10.2227 0.632603 10.6681 0.982234 11.0178C1.33187 11.3674 1.77732 11.6055 2.26228 11.702C2.74723 11.7984 3.24989 11.7489 3.70671 11.5597C4.16352 11.3705 4.55397 11.05 4.82867 10.6389C5.10338 10.2278 5.25 9.74445 5.25 9.25V8.25H6.75V9.25C6.75 9.74445 6.89662 10.2278 7.17133 10.6389C7.44603 11.05 7.83648 11.3705 8.29329 11.5597C8.75011 11.7489 9.25277 11.7984 9.73773 11.702C10.2227 11.6055 10.6681 11.3674 11.0178 11.0178C11.3674 10.6681 11.6055 10.2227 11.702 9.73773C11.7984 9.25277 11.7489 8.75011 11.5597 8.29329C11.3705 7.83648 11.05 7.44603 10.6389 7.17133C10.2278 6.89662 9.74445 6.75 9.25 6.75ZM8.25 2.75C8.25 2.55222 8.30865 2.35888 8.41853 2.19443C8.52841 2.02998 8.68459 1.90181 8.86732 1.82612C9.05004 1.75043 9.25111 1.73063 9.44509 1.76922C9.63907 1.8078 9.81726 1.90304 9.95711 2.04289C10.097 2.18275 10.1922 2.36093 10.2308 2.55491C10.2694 2.74889 10.2496 2.94996 10.1739 3.13268C10.0982 3.31541 9.97002 3.47159 9.80557 3.58147C9.64112 3.69135 9.44778 3.75 9.25 3.75H8.25V2.75ZM1.75 2.75C1.75 2.48478 1.85536 2.23043 2.04289 2.04289C2.23043 1.85536 2.48478 1.75 2.75 1.75C3.01522 1.75 3.26957 1.85536 3.45711 2.04289C3.64464 2.23043 3.75 2.48478 3.75 2.75V3.75H2.75C2.48478 3.75 2.23043 3.64464 2.04289 3.45711C1.85536 3.26957 1.75 3.01522 1.75 2.75ZM3.75 9.25C3.75 9.44778 3.69135 9.64112 3.58147 9.80557C3.47159 9.97002 3.31541 10.0982 3.13268 10.1739C2.94996 10.2496 2.74889 10.2694 2.55491 10.2308C2.36093 10.1922 2.18275 10.097 2.04289 9.95711C1.90304 9.81726 1.8078 9.63907 1.76922 9.44509C1.73063 9.25111 1.75043 9.05004 1.82612 8.86732C1.90181 8.68459 2.02998 8.52841 2.19443 8.41853C2.35888 8.30865 2.55222 8.25 2.75 8.25H3.75V9.25ZM5.25 5.25H6.75V6.75H5.25V5.25ZM9.25 10.25C8.98478 10.25 8.73043 10.1446 8.54289 9.95711C8.35536 9.76957 8.25 9.51522 8.25 9.25V8.25H9.25C9.51522 8.25 9.76957 8.35536 9.95711 8.54289C10.1446 8.73043 10.25 8.98478 10.25 9.25C10.25 9.51522 10.1446 9.76957 9.95711 9.95711C9.76957 10.1446 9.51522 10.25 9.25 10.25Z" fill="black" fill-opacity="0.6"/>
</svg>
