<svg width="16" height="19" viewBox="0 0 16 19" fill="none" xmlns="http://www.w3.org/2000/svg">
<path d="M1 7.66667C1 4.52397 1 2.95262 2.03733 1.97631C3.07466 1 4.74422 1 8.08333 1H8.72727C11.4449 1 12.8038 1 13.7474 1.66486C14.0178 1.85536 14.2579 2.08127 14.4603 2.33574C15.1667 3.22389 15.1667 4.5028 15.1667 7.06061V9.18182C15.1667 11.6511 15.1667 12.8858 14.7759 13.8719C14.1477 15.4571 12.8191 16.7076 11.1347 17.2989C10.087 17.6667 8.77516 17.6667 6.15152 17.6667C4.65229 17.6667 3.90268 17.6667 3.30398 17.4565C2.34149 17.1186 1.58229 16.4041 1.2233 15.4982C1 14.9347 1 14.2292 1 12.8182V7.66667Z" stroke="white" stroke-opacity="0.8" stroke-linejoin="round"/>
<path d="M15.1666 9.33325C15.1666 10.8674 13.923 12.111 12.3889 12.111C11.834 12.111 11.1799 12.0138 10.6405 12.1584C10.1612 12.2868 9.78684 12.6612 9.65842 13.1404C9.51387 13.6799 9.61109 14.334 9.61109 14.8888C9.61109 16.4229 8.36744 17.6666 6.83331 17.6666" stroke="white" stroke-opacity="0.8" stroke-linecap="round" stroke-linejoin="round"/>
<path d="M4.75 5.16675H10.5833" stroke="white" stroke-opacity="0.8" stroke-linecap="round" stroke-linejoin="round"/>
<path d="M4.75 8.5H7.25" stroke="white" stroke-opacity="0.8" stroke-linecap="round" stroke-linejoin="round"/>
</svg>
