<svg width="390" height="370" viewBox="0 0 390 370" fill="none" xmlns="http://www.w3.org/2000/svg">
<path d="M59.784 16.258V13.816H63.37C63.8393 13.816 64.2647 13.7207 64.646 13.53C65.0273 13.3393 65.328 13.068 65.548 12.716C65.768 12.3493 65.878 11.9093 65.878 11.396C65.878 10.8973 65.768 10.4647 65.548 10.098C65.328 9.73133 65.0273 9.45267 64.646 9.262C64.2647 9.07133 63.8393 8.976 63.37 8.976H59.784V6.534H63.678C64.6607 6.534 65.5407 6.732 66.318 7.128C67.11 7.524 67.7333 8.08867 68.188 8.822C68.6427 9.54067 68.87 10.3987 68.87 11.396C68.87 12.3933 68.6427 13.2587 68.188 13.992C67.7333 14.7107 67.11 15.268 66.318 15.664C65.5407 16.06 64.6607 16.258 63.678 16.258H59.784ZM57.584 22V6.534H60.576V22H57.584ZM70.8326 22V11.374H73.7146V22H70.8326ZM73.7146 16.126L72.5926 15.378C72.7246 14.0727 73.106 13.046 73.7366 12.298C74.3673 11.5353 75.2766 11.154 76.4646 11.154C76.978 11.154 77.44 11.242 77.8506 11.418C78.2613 11.5793 78.6353 11.8507 78.9726 12.232L77.1686 14.3C77.0073 14.124 76.8093 13.992 76.5746 13.904C76.3546 13.816 76.098 13.772 75.8046 13.772C75.1886 13.772 74.6826 13.97 74.2866 14.366C73.9053 14.7473 73.7146 15.334 73.7146 16.126ZM84.6782 22.22C83.6075 22.22 82.6395 21.978 81.7742 21.494C80.9235 20.9953 80.2415 20.328 79.7282 19.492C79.2295 18.6413 78.9802 17.6953 78.9802 16.654C78.9802 15.6127 79.2295 14.6813 79.7282 13.86C80.2269 13.024 80.9089 12.364 81.7742 11.88C82.6395 11.3813 83.6002 11.132 84.6562 11.132C85.7415 11.132 86.7095 11.3813 87.5602 11.88C88.4255 12.364 89.1075 13.024 89.6062 13.86C90.1049 14.6813 90.3542 15.6127 90.3542 16.654C90.3542 17.6953 90.1049 18.6413 89.6062 19.492C89.1075 20.328 88.4255 20.9953 87.5602 21.494C86.7095 21.978 85.7489 22.22 84.6782 22.22ZM84.6562 19.536C85.1989 19.536 85.6755 19.4187 86.0862 19.184C86.5115 18.9347 86.8342 18.5973 87.0542 18.172C87.2889 17.732 87.4062 17.2333 87.4062 16.676C87.4062 16.1187 87.2889 15.6273 87.0542 15.202C86.8195 14.7767 86.4969 14.4467 86.0862 14.212C85.6755 13.9627 85.1989 13.838 84.6562 13.838C84.1282 13.838 83.6589 13.9627 83.2482 14.212C82.8375 14.4467 82.5149 14.7767 82.2802 15.202C82.0455 15.6273 81.9282 16.1187 81.9282 16.676C81.9282 17.2333 82.0455 17.732 82.2802 18.172C82.5149 18.5973 82.8375 18.9347 83.2482 19.184C83.6589 19.4187 84.1282 19.536 84.6562 19.536ZM91.3516 26.708C90.5889 26.708 89.9583 26.5833 89.4596 26.334C88.9463 26.0847 88.4843 25.7327 88.0736 25.278L89.8996 23.452C90.0756 23.672 90.2663 23.826 90.4716 23.914C90.6623 24.0167 90.8896 24.068 91.1536 24.068C91.5203 24.068 91.8283 23.958 92.0776 23.738C92.3269 23.518 92.4516 23.1953 92.4516 22.77V11.374H95.3336V22.726C95.3336 23.562 95.1503 24.2733 94.7836 24.86C94.4316 25.4613 93.9549 25.916 93.3536 26.224C92.7669 26.5467 92.0996 26.708 91.3516 26.708ZM93.9256 9.658C93.4563 9.658 93.0676 9.504 92.7596 9.196C92.4516 8.87333 92.2976 8.47733 92.2976 8.008C92.2976 7.55333 92.4516 7.16467 92.7596 6.842C93.0676 6.51933 93.4563 6.358 93.9256 6.358C94.4096 6.358 94.7983 6.51933 95.0916 6.842C95.3996 7.16467 95.5536 7.55333 95.5536 8.008C95.5536 8.47733 95.3996 8.87333 95.0916 9.196C94.7983 9.504 94.4096 9.658 93.9256 9.658ZM102.942 22.22C101.827 22.22 100.837 21.9853 99.972 21.516C99.1067 21.032 98.4173 20.372 97.904 19.536C97.4053 18.7 97.156 17.7467 97.156 16.676C97.156 15.62 97.398 14.6813 97.882 13.86C98.3807 13.024 99.0553 12.364 99.906 11.88C100.757 11.3813 101.703 11.132 102.744 11.132C103.771 11.132 104.673 11.3667 105.45 11.836C106.242 12.2907 106.858 12.9213 107.298 13.728C107.753 14.52 107.98 15.422 107.98 16.434C107.98 16.6247 107.965 16.8227 107.936 17.028C107.921 17.2187 107.885 17.4387 107.826 17.688L98.894 17.71V15.554L106.484 15.532L105.318 16.434C105.289 15.8033 105.171 15.2753 104.966 14.85C104.775 14.4247 104.489 14.102 104.108 13.882C103.741 13.6473 103.287 13.53 102.744 13.53C102.172 13.53 101.673 13.662 101.248 13.926C100.823 14.1753 100.493 14.5347 100.258 15.004C100.038 15.4587 99.928 16.0013 99.928 16.632C99.928 17.2773 100.045 17.842 100.28 18.326C100.529 18.7953 100.881 19.162 101.336 19.426C101.791 19.6753 102.319 19.8 102.92 19.8C103.463 19.8 103.954 19.712 104.394 19.536C104.834 19.3453 105.215 19.0667 105.538 18.7L107.232 20.394C106.719 20.9953 106.088 21.45 105.34 21.758C104.607 22.066 103.807 22.22 102.942 22.22ZM114.778 22.22C113.693 22.22 112.718 21.978 111.852 21.494C110.987 21.01 110.305 20.35 109.806 19.514C109.308 18.678 109.058 17.7393 109.058 16.698C109.058 15.642 109.308 14.696 109.806 13.86C110.305 13.024 110.987 12.364 111.852 11.88C112.732 11.3813 113.708 11.132 114.778 11.132C115.614 11.132 116.384 11.286 117.088 11.594C117.792 11.902 118.401 12.342 118.914 12.914L117.066 14.784C116.788 14.476 116.45 14.2413 116.054 14.08C115.673 13.9187 115.248 13.838 114.778 13.838C114.25 13.838 113.774 13.9627 113.348 14.212C112.938 14.4467 112.608 14.7767 112.358 15.202C112.124 15.6127 112.006 16.104 112.006 16.676C112.006 17.2333 112.124 17.732 112.358 18.172C112.608 18.5973 112.938 18.9347 113.348 19.184C113.774 19.4187 114.25 19.536 114.778 19.536C115.262 19.536 115.695 19.4553 116.076 19.294C116.472 19.118 116.81 18.8687 117.088 18.546L118.958 20.416C118.416 21.0027 117.792 21.45 117.088 21.758C116.384 22.066 115.614 22.22 114.778 22.22ZM121.981 22V6.952H124.863V22H121.981ZM119.495 13.904V11.374H127.349V13.904H119.495ZM132.407 22.242C131.805 22.242 131.211 22.1613 130.625 22C130.053 21.8387 129.525 21.6187 129.041 21.34C128.557 21.0467 128.139 20.6947 127.787 20.284L129.503 18.546C129.869 18.9567 130.295 19.2647 130.779 19.47C131.263 19.6753 131.798 19.778 132.385 19.778C132.854 19.778 133.206 19.712 133.441 19.58C133.69 19.448 133.815 19.25 133.815 18.986C133.815 18.6927 133.683 18.4653 133.419 18.304C133.169 18.1427 132.839 18.0107 132.429 17.908C132.018 17.7907 131.585 17.666 131.131 17.534C130.691 17.3873 130.265 17.204 129.855 16.984C129.444 16.7493 129.107 16.434 128.843 16.038C128.593 15.6273 128.469 15.0993 128.469 14.454C128.469 13.7793 128.63 13.1927 128.953 12.694C129.29 12.1953 129.767 11.8067 130.383 11.528C130.999 11.2493 131.725 11.11 132.561 11.11C133.441 11.11 134.233 11.264 134.937 11.572C135.655 11.88 136.249 12.342 136.719 12.958L134.981 14.696C134.658 14.3 134.291 14.014 133.881 13.838C133.485 13.662 133.052 13.574 132.583 13.574C132.157 13.574 131.827 13.64 131.593 13.772C131.373 13.904 131.263 14.0873 131.263 14.322C131.263 14.586 131.387 14.7913 131.637 14.938C131.901 15.0847 132.238 15.2167 132.649 15.334C133.059 15.4367 133.485 15.5613 133.925 15.708C134.379 15.84 134.805 16.0307 135.201 16.28C135.611 16.5293 135.941 16.8593 136.191 17.27C136.455 17.6807 136.587 18.2087 136.587 18.854C136.587 19.8953 136.213 20.724 135.465 21.34C134.717 21.9413 133.697 22.242 132.407 22.242Z" fill="#343C6A"/>
<g filter="url(#filter0_d_522_5110)">
<rect x="30" y="33.3022" width="329.019" height="302.698" rx="25" fill="white"/>
</g>
<path d="M321.538 185.365C320.076 148.18 305.194 114.461 281.578 88.896L185.109 185.365H321.538Z" fill="#FC7900"/>
<path d="M174.666 183.916L261.989 96.5933C239.048 75.3951 208.385 62.4438 174.666 62.4438C140.967 62.4438 110.303 75.4139 87.3434 96.5933L174.666 183.916Z" fill="#343C6A"/>
<path d="M178.529 194.051V306.546C239.574 304.147 288.624 255.097 291.023 194.051H178.529V194.051Z" fill="#2BB2FE"/>
<path d="M170.541 191.717L96.7315 117.907C79.2444 136.837 68.5422 162.14 68.5422 189.955C68.5422 247.195 113.825 293.846 170.522 296.077V191.717H170.541Z" fill="#27A844"/>
<path d="M168.937 108.16C168.18 108.16 167.486 108.027 166.857 107.76C166.228 107.483 165.7 107.088 165.273 106.576L166.713 105.152C166.926 105.472 167.23 105.728 167.625 105.92C168.02 106.112 168.446 106.208 168.905 106.208C169.332 106.208 169.7 106.133 170.009 105.984C170.318 105.824 170.558 105.605 170.729 105.328C170.91 105.04 171.001 104.709 171.001 104.336C171.001 103.941 170.91 103.605 170.729 103.328C170.558 103.051 170.308 102.837 169.977 102.688C169.646 102.539 169.252 102.464 168.793 102.464C168.59 102.464 168.382 102.48 168.169 102.512C167.956 102.533 167.774 102.571 167.625 102.624L168.585 101.408C168.852 101.323 169.113 101.253 169.369 101.2C169.636 101.136 169.881 101.104 170.105 101.104C170.681 101.104 171.198 101.243 171.657 101.52C172.126 101.787 172.494 102.171 172.761 102.672C173.038 103.163 173.177 103.744 173.177 104.416C173.177 105.163 173.001 105.819 172.649 106.384C172.297 106.939 171.801 107.376 171.161 107.696C170.532 108.005 169.79 108.16 168.937 108.16ZM167.625 102.624V101.376L170.505 98.032L173.001 98L170.025 101.408L167.625 102.624ZM165.897 98.64V96.752H173.001V98L171.225 98.64H165.897ZM179.062 108.16C178.177 108.16 177.377 107.92 176.662 107.44C175.947 106.96 175.377 106.283 174.95 105.408C174.534 104.533 174.326 103.515 174.326 102.352C174.326 101.189 174.534 100.176 174.95 99.312C175.366 98.448 175.926 97.776 176.63 97.296C177.345 96.816 178.139 96.576 179.014 96.576C179.91 96.576 180.71 96.816 181.414 97.296C182.129 97.776 182.694 98.4533 183.11 99.328C183.526 100.192 183.734 101.211 183.734 102.384C183.734 103.547 183.526 104.565 183.11 105.44C182.694 106.304 182.134 106.976 181.43 107.456C180.726 107.925 179.937 108.16 179.062 108.16ZM179.03 106.192C179.542 106.192 179.985 106.048 180.358 105.76C180.731 105.472 181.019 105.045 181.222 104.48C181.435 103.915 181.542 103.211 181.542 102.368C181.542 101.525 181.435 100.821 181.222 100.256C181.019 99.6907 180.726 99.2693 180.342 98.992C179.969 98.704 179.526 98.56 179.014 98.56C178.513 98.56 178.075 98.704 177.702 98.992C177.329 99.2693 177.035 99.6907 176.822 100.256C176.619 100.811 176.518 101.509 176.518 102.352C176.518 103.205 176.619 103.915 176.822 104.48C177.035 105.045 177.329 105.472 177.702 105.76C178.075 106.048 178.518 106.192 179.03 106.192ZM185.209 108L192.185 96.752H194.169L187.193 108H185.209ZM192.137 108.16C191.71 108.16 191.321 108.059 190.969 107.856C190.617 107.643 190.334 107.365 190.121 107.024C189.918 106.672 189.817 106.277 189.817 105.84C189.817 105.403 189.918 105.013 190.121 104.672C190.334 104.331 190.611 104.059 190.953 103.856C191.305 103.643 191.699 103.536 192.137 103.536C192.574 103.536 192.969 103.643 193.321 103.856C193.673 104.059 193.95 104.331 194.153 104.672C194.366 105.013 194.473 105.403 194.473 105.84C194.473 106.277 194.366 106.672 194.153 107.024C193.95 107.365 193.673 107.643 193.321 107.856C192.979 108.059 192.585 108.16 192.137 108.16ZM192.137 106.64C192.371 106.64 192.563 106.565 192.713 106.416C192.862 106.267 192.937 106.075 192.937 105.84C192.937 105.616 192.857 105.429 192.697 105.28C192.547 105.131 192.361 105.056 192.137 105.056C191.913 105.056 191.726 105.131 191.577 105.28C191.438 105.429 191.369 105.616 191.369 105.84C191.369 106.075 191.438 106.267 191.577 106.416C191.726 106.565 191.913 106.64 192.137 106.64ZM187.209 101.216C186.793 101.216 186.403 101.115 186.041 100.912C185.689 100.699 185.411 100.416 185.209 100.064C185.006 99.712 184.905 99.3227 184.905 98.896C184.905 98.4587 185.006 98.0693 185.209 97.728C185.411 97.3867 185.689 97.1147 186.041 96.912C186.393 96.6987 186.782 96.592 187.209 96.592C187.646 96.592 188.041 96.6987 188.393 96.912C188.755 97.1147 189.038 97.3867 189.241 97.728C189.443 98.0693 189.545 98.4587 189.545 98.896C189.545 99.3227 189.438 99.712 189.225 100.064C189.022 100.416 188.745 100.699 188.393 100.912C188.051 101.115 187.657 101.216 187.209 101.216ZM187.209 99.696C187.454 99.696 187.646 99.6213 187.785 99.472C187.923 99.3227 187.993 99.1307 187.993 98.896C187.993 98.6613 187.918 98.4693 187.769 98.32C187.63 98.1707 187.443 98.096 187.209 98.096C186.985 98.096 186.803 98.1707 186.664 98.32C186.526 98.4693 186.457 98.6613 186.457 98.896C186.457 99.1307 186.526 99.3227 186.664 99.472C186.803 99.6213 186.985 99.696 187.209 99.696ZM134.011 126V114.752H135.547L140.107 122.048H139.227L143.771 114.752H145.307V126H143.147V118.48L143.563 118.608L140.395 123.696H138.923L135.755 118.608L136.187 118.48V126H134.011ZM150.613 126.16C149.909 126.16 149.274 125.984 148.709 125.632C148.144 125.28 147.701 124.8 147.381 124.192C147.061 123.584 146.901 122.901 146.901 122.144C146.901 121.376 147.061 120.688 147.381 120.08C147.701 119.472 148.144 118.992 148.709 118.64C149.274 118.288 149.909 118.112 150.613 118.112C151.168 118.112 151.664 118.224 152.101 118.448C152.538 118.672 152.885 118.987 153.141 119.392C153.408 119.787 153.552 120.235 153.573 120.736V123.52C153.552 124.032 153.408 124.485 153.141 124.88C152.885 125.275 152.538 125.589 152.101 125.824C151.664 126.048 151.168 126.16 150.613 126.16ZM150.997 124.224C151.584 124.224 152.058 124.032 152.421 123.648C152.784 123.253 152.965 122.747 152.965 122.128C152.965 121.723 152.88 121.365 152.709 121.056C152.549 120.736 152.32 120.491 152.021 120.32C151.733 120.139 151.392 120.048 150.997 120.048C150.613 120.048 150.272 120.139 149.973 120.32C149.685 120.491 149.456 120.736 149.285 121.056C149.125 121.365 149.045 121.723 149.045 122.128C149.045 122.544 149.125 122.912 149.285 123.232C149.456 123.541 149.685 123.787 149.973 123.968C150.272 124.139 150.613 124.224 150.997 124.224ZM152.853 126V123.92L153.189 122.032L152.853 120.176V118.272H154.933V126H152.853ZM156.787 126V118.272H158.899V126H156.787ZM157.843 117.024C157.502 117.024 157.219 116.912 156.995 116.688C156.771 116.453 156.659 116.165 156.659 115.824C156.659 115.493 156.771 115.211 156.995 114.976C157.219 114.741 157.502 114.624 157.843 114.624C158.195 114.624 158.478 114.741 158.691 114.976C158.915 115.211 159.027 115.493 159.027 115.824C159.027 116.165 158.915 116.453 158.691 116.688C158.478 116.912 158.195 117.024 157.843 117.024ZM165.956 126V121.568C165.956 121.109 165.812 120.736 165.524 120.448C165.236 120.16 164.863 120.016 164.404 120.016C164.105 120.016 163.839 120.08 163.604 120.208C163.369 120.336 163.183 120.517 163.044 120.752C162.916 120.987 162.852 121.259 162.852 121.568L162.036 121.152C162.036 120.544 162.164 120.016 162.42 119.568C162.687 119.109 163.049 118.752 163.508 118.496C163.977 118.24 164.505 118.112 165.092 118.112C165.657 118.112 166.164 118.256 166.612 118.544C167.06 118.821 167.412 119.189 167.668 119.648C167.924 120.096 168.052 120.581 168.052 121.104V126H165.956ZM160.756 126V118.272H162.852V126H160.756ZM170.783 126V115.056H172.879V126H170.783ZM168.975 120.112V118.272H174.687V120.112H168.975ZM179.374 126.16C178.563 126.16 177.843 125.989 177.214 125.648C176.585 125.296 176.083 124.816 175.71 124.208C175.347 123.6 175.166 122.907 175.166 122.128C175.166 121.36 175.342 120.677 175.694 120.08C176.057 119.472 176.547 118.992 177.166 118.64C177.785 118.277 178.473 118.096 179.23 118.096C179.977 118.096 180.633 118.267 181.198 118.608C181.774 118.939 182.222 119.397 182.542 119.984C182.873 120.56 183.038 121.216 183.038 121.952C183.038 122.091 183.027 122.235 183.006 122.384C182.995 122.523 182.969 122.683 182.926 122.864L176.43 122.88V121.312L181.95 121.296L181.102 121.952C181.081 121.493 180.995 121.109 180.846 120.8C180.707 120.491 180.499 120.256 180.222 120.096C179.955 119.925 179.625 119.84 179.23 119.84C178.814 119.84 178.451 119.936 178.142 120.128C177.833 120.309 177.593 120.571 177.422 120.912C177.262 121.243 177.182 121.637 177.182 122.096C177.182 122.565 177.267 122.976 177.438 123.328C177.619 123.669 177.875 123.936 178.206 124.128C178.537 124.309 178.921 124.4 179.358 124.4C179.753 124.4 180.11 124.336 180.43 124.208C180.75 124.069 181.027 123.867 181.262 123.6L182.494 124.832C182.121 125.269 181.662 125.6 181.118 125.824C180.585 126.048 180.003 126.16 179.374 126.16ZM189.534 126V121.568C189.534 121.109 189.39 120.736 189.102 120.448C188.814 120.16 188.441 120.016 187.982 120.016C187.684 120.016 187.417 120.08 187.182 120.208C186.948 120.336 186.761 120.517 186.622 120.752C186.494 120.987 186.43 121.259 186.43 121.568L185.614 121.152C185.614 120.544 185.742 120.016 185.998 119.568C186.265 119.109 186.628 118.752 187.086 118.496C187.556 118.24 188.084 118.112 188.67 118.112C189.236 118.112 189.742 118.256 190.19 118.544C190.638 118.821 190.99 119.189 191.246 119.648C191.502 120.096 191.63 120.581 191.63 121.104V126H189.534ZM184.334 126V118.272H186.43V126H184.334ZM196.551 126.16C195.847 126.16 195.212 125.984 194.647 125.632C194.081 125.28 193.639 124.8 193.319 124.192C192.999 123.584 192.839 122.901 192.839 122.144C192.839 121.376 192.999 120.688 193.319 120.08C193.639 119.472 194.081 118.992 194.647 118.64C195.212 118.288 195.847 118.112 196.551 118.112C197.105 118.112 197.601 118.224 198.039 118.448C198.476 118.672 198.823 118.987 199.079 119.392C199.345 119.787 199.489 120.235 199.511 120.736V123.52C199.489 124.032 199.345 124.485 199.079 124.88C198.823 125.275 198.476 125.589 198.039 125.824C197.601 126.048 197.105 126.16 196.551 126.16ZM196.935 124.224C197.521 124.224 197.996 124.032 198.359 123.648C198.721 123.253 198.903 122.747 198.903 122.128C198.903 121.723 198.817 121.365 198.647 121.056C198.487 120.736 198.257 120.491 197.959 120.32C197.671 120.139 197.329 120.048 196.935 120.048C196.551 120.048 196.209 120.139 195.911 120.32C195.623 120.491 195.393 120.736 195.223 121.056C195.063 121.365 194.983 121.723 194.983 122.128C194.983 122.544 195.063 122.912 195.223 123.232C195.393 123.541 195.623 123.787 195.911 123.968C196.209 124.139 196.551 124.224 196.935 124.224ZM198.791 126V123.92L199.127 122.032L198.791 120.176V118.272H200.871V126H198.791ZM207.925 126V121.568C207.925 121.109 207.781 120.736 207.493 120.448C207.205 120.16 206.832 120.016 206.373 120.016C206.074 120.016 205.808 120.08 205.573 120.208C205.338 120.336 205.152 120.517 205.013 120.752C204.885 120.987 204.821 121.259 204.821 121.568L204.005 121.152C204.005 120.544 204.133 120.016 204.389 119.568C204.656 119.109 205.018 118.752 205.477 118.496C205.946 118.24 206.474 118.112 207.061 118.112C207.626 118.112 208.133 118.256 208.581 118.544C209.029 118.821 209.381 119.189 209.637 119.648C209.893 120.096 210.021 120.581 210.021 121.104V126H207.925ZM202.725 126V118.272H204.821V126H202.725ZM215.357 126.16C214.568 126.16 213.859 125.984 213.229 125.632C212.6 125.28 212.104 124.8 211.741 124.192C211.379 123.584 211.197 122.901 211.197 122.144C211.197 121.376 211.379 120.688 211.741 120.08C212.104 119.472 212.6 118.992 213.229 118.64C213.869 118.277 214.579 118.096 215.357 118.096C215.965 118.096 216.525 118.208 217.037 118.432C217.549 118.656 217.992 118.976 218.365 119.392L217.021 120.752C216.819 120.528 216.573 120.357 216.285 120.24C216.008 120.123 215.699 120.064 215.357 120.064C214.973 120.064 214.627 120.155 214.317 120.336C214.019 120.507 213.779 120.747 213.597 121.056C213.427 121.355 213.341 121.712 213.341 122.128C213.341 122.533 213.427 122.896 213.597 123.216C213.779 123.525 214.019 123.771 214.317 123.952C214.627 124.123 214.973 124.208 215.357 124.208C215.709 124.208 216.024 124.149 216.301 124.032C216.589 123.904 216.835 123.723 217.037 123.488L218.397 124.848C218.003 125.275 217.549 125.6 217.037 125.824C216.525 126.048 215.965 126.16 215.357 126.16ZM223.108 126.16C222.298 126.16 221.578 125.989 220.948 125.648C220.319 125.296 219.818 124.816 219.444 124.208C219.082 123.6 218.9 122.907 218.9 122.128C218.9 121.36 219.076 120.677 219.428 120.08C219.791 119.472 220.282 118.992 220.9 118.64C221.519 118.277 222.207 118.096 222.964 118.096C223.711 118.096 224.367 118.267 224.932 118.608C225.508 118.939 225.956 119.397 226.276 119.984C226.607 120.56 226.772 121.216 226.772 121.952C226.772 122.091 226.762 122.235 226.74 122.384C226.73 122.523 226.703 122.683 226.66 122.864L220.164 122.88V121.312L225.684 121.296L224.836 121.952C224.815 121.493 224.73 121.109 224.58 120.8C224.442 120.491 224.234 120.256 223.956 120.096C223.69 119.925 223.359 119.84 222.964 119.84C222.548 119.84 222.186 119.936 221.876 120.128C221.567 120.309 221.327 120.571 221.156 120.912C220.996 121.243 220.916 121.637 220.916 122.096C220.916 122.565 221.002 122.976 221.172 123.328C221.354 123.669 221.61 123.936 221.94 124.128C222.271 124.309 222.655 124.4 223.092 124.4C223.487 124.4 223.844 124.336 224.164 124.208C224.484 124.069 224.762 123.867 224.996 123.6L226.228 124.832C225.855 125.269 225.396 125.6 224.852 125.824C224.319 126.048 223.738 126.16 223.108 126.16Z" fill="white"/>
<path d="M105.022 201.223L109.262 196.791C109.56 196.471 109.8 196.189 109.982 195.943C110.174 195.687 110.312 195.447 110.398 195.223C110.483 194.989 110.526 194.754 110.526 194.519C110.526 194.05 110.371 193.682 110.062 193.415C109.763 193.149 109.374 193.015 108.894 193.015C108.403 193.015 107.966 193.143 107.582 193.399C107.208 193.655 106.856 194.061 106.526 194.615L105.038 193.351C105.486 192.594 106.04 192.023 106.702 191.639C107.374 191.245 108.142 191.047 109.006 191.047C109.742 191.047 110.382 191.191 110.926 191.479C111.48 191.767 111.907 192.167 112.206 192.679C112.504 193.191 112.654 193.789 112.654 194.471C112.654 194.93 112.595 195.346 112.478 195.719C112.371 196.093 112.184 196.466 111.918 196.839C111.662 197.202 111.304 197.613 110.846 198.071L107.758 201.223H105.022ZM105.022 202.471V201.223L106.878 200.583H112.894V202.471H105.022ZM118.761 202.631C117.876 202.631 117.076 202.391 116.361 201.911C115.647 201.431 115.076 200.754 114.649 199.879C114.233 199.005 114.025 197.986 114.025 196.823C114.025 195.661 114.233 194.647 114.649 193.783C115.065 192.919 115.625 192.247 116.329 191.767C117.044 191.287 117.839 191.047 118.713 191.047C119.609 191.047 120.409 191.287 121.113 191.767C121.828 192.247 122.393 192.925 122.809 193.799C123.225 194.663 123.433 195.682 123.433 196.855C123.433 198.018 123.225 199.037 122.809 199.911C122.393 200.775 121.833 201.447 121.129 201.927C120.425 202.397 119.636 202.631 118.761 202.631ZM118.729 200.663C119.241 200.663 119.684 200.519 120.057 200.231C120.431 199.943 120.719 199.517 120.921 198.951C121.135 198.386 121.241 197.682 121.241 196.839C121.241 195.997 121.135 195.293 120.921 194.727C120.719 194.162 120.425 193.741 120.041 193.463C119.668 193.175 119.225 193.031 118.713 193.031C118.212 193.031 117.775 193.175 117.401 193.463C117.028 193.741 116.735 194.162 116.521 194.727C116.319 195.282 116.217 195.981 116.217 196.823C116.217 197.677 116.319 198.386 116.521 198.951C116.735 199.517 117.028 199.943 117.401 200.231C117.775 200.519 118.217 200.663 118.729 200.663ZM124.908 202.471L131.884 191.223H133.868L126.892 202.471H124.908ZM131.836 202.631C131.409 202.631 131.02 202.53 130.668 202.327C130.316 202.114 130.033 201.837 129.82 201.495C129.617 201.143 129.516 200.749 129.516 200.311C129.516 199.874 129.617 199.485 129.82 199.143C130.033 198.802 130.311 198.53 130.652 198.327C131.004 198.114 131.399 198.007 131.836 198.007C132.273 198.007 132.668 198.114 133.02 198.327C133.372 198.53 133.649 198.802 133.852 199.143C134.065 199.485 134.172 199.874 134.172 200.311C134.172 200.749 134.065 201.143 133.852 201.495C133.649 201.837 133.372 202.114 133.02 202.327C132.679 202.53 132.284 202.631 131.836 202.631ZM131.836 201.111C132.071 201.111 132.263 201.037 132.412 200.887C132.561 200.738 132.636 200.546 132.636 200.311C132.636 200.087 132.556 199.901 132.396 199.751C132.247 199.602 132.06 199.527 131.836 199.527C131.612 199.527 131.425 199.602 131.276 199.751C131.137 199.901 131.068 200.087 131.068 200.311C131.068 200.546 131.137 200.738 131.276 200.887C131.425 201.037 131.612 201.111 131.836 201.111ZM126.908 195.687C126.492 195.687 126.103 195.586 125.74 195.383C125.388 195.17 125.111 194.887 124.908 194.535C124.705 194.183 124.604 193.794 124.604 193.367C124.604 192.93 124.705 192.541 124.908 192.199C125.111 191.858 125.388 191.586 125.74 191.383C126.092 191.17 126.481 191.063 126.908 191.063C127.345 191.063 127.74 191.17 128.092 191.383C128.455 191.586 128.737 191.858 128.94 192.199C129.143 192.541 129.244 192.93 129.244 193.367C129.244 193.794 129.137 194.183 128.924 194.535C128.721 194.887 128.444 195.17 128.092 195.383C127.751 195.586 127.356 195.687 126.908 195.687ZM126.908 194.167C127.153 194.167 127.345 194.093 127.484 193.943C127.623 193.794 127.692 193.602 127.692 193.367C127.692 193.133 127.617 192.941 127.468 192.791C127.329 192.642 127.143 192.567 126.908 192.567C126.684 192.567 126.503 192.642 126.364 192.791C126.225 192.941 126.156 193.133 126.156 193.367C126.156 193.602 126.225 193.794 126.364 193.943C126.503 194.093 126.684 194.167 126.908 194.167ZM87.6105 220.471V211.332H89.3785V220.471H87.6105ZM95.297 220.471V216.87C95.297 216.498 95.18 216.194 94.946 215.96C94.712 215.726 94.4087 215.609 94.036 215.609C93.7934 215.609 93.5767 215.661 93.386 215.765C93.1954 215.869 93.0437 216.017 92.931 216.207C92.827 216.398 92.775 216.619 92.775 216.87L92.112 216.532C92.112 216.038 92.216 215.609 92.424 215.245C92.6407 214.873 92.9354 214.582 93.308 214.374C93.6894 214.166 94.1184 214.062 94.595 214.062C95.0544 214.062 95.466 214.179 95.83 214.413C96.194 214.639 96.48 214.938 96.688 215.31C96.896 215.674 97 216.069 97 216.493V220.471H95.297ZM91.072 220.471V214.192H92.775V220.471H91.072ZM100.413 220.471L97.6439 214.192H99.5159L101.505 219.366H100.582L102.584 214.192H104.391L101.635 220.471H100.413ZM107.989 220.601C107.33 220.601 106.745 220.463 106.234 220.185C105.723 219.899 105.315 219.509 105.012 219.015C104.717 218.521 104.57 217.958 104.57 217.325C104.57 216.701 104.713 216.147 104.999 215.661C105.294 215.167 105.692 214.777 106.195 214.491C106.698 214.197 107.257 214.049 107.872 214.049C108.479 214.049 109.012 214.188 109.471 214.465C109.939 214.734 110.303 215.107 110.563 215.583C110.832 216.051 110.966 216.584 110.966 217.182C110.966 217.295 110.957 217.412 110.94 217.533C110.931 217.646 110.91 217.776 110.875 217.923L105.597 217.936V216.662L110.082 216.649L109.393 217.182C109.376 216.81 109.306 216.498 109.185 216.246C109.072 215.995 108.903 215.804 108.678 215.674C108.461 215.536 108.193 215.466 107.872 215.466C107.534 215.466 107.239 215.544 106.988 215.7C106.737 215.848 106.542 216.06 106.403 216.337C106.273 216.606 106.208 216.927 106.208 217.299C106.208 217.681 106.277 218.014 106.416 218.3C106.563 218.578 106.771 218.794 107.04 218.95C107.309 219.098 107.621 219.171 107.976 219.171C108.297 219.171 108.587 219.119 108.847 219.015C109.107 218.903 109.332 218.738 109.523 218.521L110.524 219.522C110.221 219.878 109.848 220.146 109.406 220.328C108.973 220.51 108.5 220.601 107.989 220.601ZM114.177 220.614C113.822 220.614 113.471 220.567 113.124 220.471C112.786 220.376 112.474 220.246 112.188 220.081C111.902 219.908 111.655 219.7 111.447 219.457L112.461 218.43C112.678 218.673 112.929 218.855 113.215 218.976C113.501 219.098 113.818 219.158 114.164 219.158C114.442 219.158 114.65 219.119 114.788 219.041C114.936 218.963 115.009 218.846 115.009 218.69C115.009 218.517 114.931 218.383 114.775 218.287C114.628 218.192 114.433 218.114 114.19 218.053C113.948 217.984 113.692 217.91 113.423 217.832C113.163 217.746 112.912 217.637 112.669 217.507C112.427 217.369 112.227 217.182 112.071 216.948C111.924 216.706 111.85 216.394 111.85 216.012C111.85 215.614 111.946 215.267 112.136 214.972C112.336 214.678 112.617 214.448 112.981 214.283C113.345 214.119 113.774 214.036 114.268 214.036C114.788 214.036 115.256 214.127 115.672 214.309C116.097 214.491 116.448 214.764 116.725 215.128L115.698 216.155C115.508 215.921 115.291 215.752 115.048 215.648C114.814 215.544 114.559 215.492 114.281 215.492C114.03 215.492 113.835 215.531 113.696 215.609C113.566 215.687 113.501 215.796 113.501 215.934C113.501 216.09 113.575 216.212 113.722 216.298C113.878 216.385 114.078 216.463 114.32 216.532C114.563 216.593 114.814 216.667 115.074 216.753C115.343 216.831 115.594 216.944 115.828 217.091C116.071 217.239 116.266 217.434 116.413 217.676C116.569 217.919 116.647 218.231 116.647 218.612C116.647 219.228 116.426 219.717 115.984 220.081C115.542 220.437 114.94 220.614 114.177 220.614ZM118.719 220.471V211.579H120.422V220.471H118.719ZM117.25 215.687V214.192H121.891V215.687H117.25ZM122.848 220.471V214.192H124.551V220.471H122.848ZM126.943 220.471V216.766C126.943 216.402 126.826 216.121 126.592 215.921C126.367 215.713 126.085 215.609 125.747 215.609C125.522 215.609 125.318 215.657 125.136 215.752C124.954 215.839 124.811 215.969 124.707 216.142C124.603 216.316 124.551 216.524 124.551 216.766L123.888 216.441C123.888 215.956 123.992 215.536 124.2 215.18C124.417 214.825 124.707 214.552 125.071 214.361C125.435 214.162 125.847 214.062 126.306 214.062C126.74 214.062 127.134 214.162 127.489 214.361C127.845 214.552 128.126 214.825 128.334 215.18C128.542 215.527 128.646 215.947 128.646 216.441V220.471H126.943ZM131.038 220.471V216.766C131.038 216.402 130.921 216.121 130.687 215.921C130.462 215.713 130.18 215.609 129.842 215.609C129.626 215.609 129.422 215.657 129.231 215.752C129.049 215.839 128.906 215.969 128.802 216.142C128.698 216.316 128.646 216.524 128.646 216.766L127.671 216.532C127.706 216.03 127.84 215.596 128.074 215.232C128.308 214.86 128.616 214.574 128.997 214.374C129.379 214.166 129.803 214.062 130.271 214.062C130.739 214.062 131.16 214.162 131.532 214.361C131.905 214.552 132.2 214.829 132.416 215.193C132.633 215.557 132.741 215.991 132.741 216.493V220.471H131.038ZM137.125 220.601C136.466 220.601 135.881 220.463 135.37 220.185C134.859 219.899 134.451 219.509 134.148 219.015C133.853 218.521 133.706 217.958 133.706 217.325C133.706 216.701 133.849 216.147 134.135 215.661C134.43 215.167 134.828 214.777 135.331 214.491C135.834 214.197 136.393 214.049 137.008 214.049C137.615 214.049 138.148 214.188 138.607 214.465C139.075 214.734 139.439 215.107 139.699 215.583C139.968 216.051 140.102 216.584 140.102 217.182C140.102 217.295 140.093 217.412 140.076 217.533C140.067 217.646 140.046 217.776 140.011 217.923L134.733 217.936V216.662L139.218 216.649L138.529 217.182C138.512 216.81 138.442 216.498 138.321 216.246C138.208 215.995 138.039 215.804 137.814 215.674C137.597 215.536 137.329 215.466 137.008 215.466C136.67 215.466 136.375 215.544 136.124 215.7C135.873 215.848 135.678 216.06 135.539 216.337C135.409 216.606 135.344 216.927 135.344 217.299C135.344 217.681 135.413 218.014 135.552 218.3C135.699 218.578 135.907 218.794 136.176 218.95C136.445 219.098 136.757 219.171 137.112 219.171C137.433 219.171 137.723 219.119 137.983 219.015C138.243 218.903 138.468 218.738 138.659 218.521L139.66 219.522C139.357 219.878 138.984 220.146 138.542 220.328C138.109 220.51 137.636 220.601 137.125 220.601ZM145.38 220.471V216.87C145.38 216.498 145.263 216.194 145.029 215.96C144.795 215.726 144.492 215.609 144.119 215.609C143.876 215.609 143.66 215.661 143.469 215.765C143.278 215.869 143.127 216.017 143.014 216.207C142.91 216.398 142.858 216.619 142.858 216.87L142.195 216.532C142.195 216.038 142.299 215.609 142.507 215.245C142.724 214.873 143.018 214.582 143.391 214.374C143.772 214.166 144.201 214.062 144.678 214.062C145.137 214.062 145.549 214.179 145.913 214.413C146.277 214.639 146.563 214.938 146.771 215.31C146.979 215.674 147.083 216.069 147.083 216.493V220.471H145.38ZM141.155 220.471V214.192H142.858V220.471H141.155ZM149.302 220.471V211.579H151.005V220.471H149.302ZM147.833 215.687V214.192H152.474V215.687H147.833Z" fill="white"/>
<path d="M246.598 155.742V144.494H248.742V155.742H246.598ZM244.39 146.382V144.494H248.582V146.382H244.39ZM253.897 155.902C253.119 155.902 252.409 155.769 251.769 155.502C251.129 155.225 250.596 154.83 250.169 154.318L251.609 152.894C251.823 153.214 252.127 153.47 252.521 153.662C252.927 153.854 253.369 153.95 253.849 153.95C254.287 153.95 254.665 153.87 254.985 153.71C255.316 153.55 255.572 153.326 255.753 153.038C255.945 152.74 256.041 152.393 256.041 151.998C256.041 151.582 255.945 151.23 255.753 150.942C255.572 150.654 255.327 150.436 255.017 150.286C254.708 150.137 254.361 150.062 253.977 150.062C253.572 150.062 253.204 150.116 252.873 150.222C252.553 150.318 252.244 150.478 251.945 150.702L252.073 149.326C252.276 149.113 252.489 148.942 252.713 148.814C252.937 148.676 253.188 148.574 253.465 148.51C253.753 148.436 254.089 148.398 254.473 148.398C255.295 148.398 255.977 148.569 256.521 148.91C257.076 149.241 257.497 149.689 257.785 150.254C258.073 150.809 258.217 151.422 258.217 152.094C258.217 152.83 258.036 153.486 257.673 154.062C257.311 154.638 256.804 155.092 256.153 155.422C255.513 155.742 254.761 155.902 253.897 155.902ZM251.945 150.702L250.905 149.678L251.417 144.494H253.385L252.809 149.758L251.945 150.702ZM251.753 146.382L251.417 144.494H257.593V146.382H251.753ZM259.637 155.742L266.613 144.494H268.597L261.621 155.742H259.637ZM266.565 155.902C266.138 155.902 265.749 155.801 265.397 155.598C265.045 155.385 264.762 155.108 264.549 154.766C264.346 154.414 264.245 154.02 264.245 153.582C264.245 153.145 264.346 152.756 264.549 152.414C264.762 152.073 265.04 151.801 265.381 151.598C265.733 151.385 266.128 151.278 266.565 151.278C267.002 151.278 267.397 151.385 267.749 151.598C268.101 151.801 268.378 152.073 268.581 152.414C268.794 152.756 268.901 153.145 268.901 153.582C268.901 154.02 268.794 154.414 268.581 154.766C268.378 155.108 268.101 155.385 267.749 155.598C267.408 155.801 267.013 155.902 266.565 155.902ZM266.565 154.382C266.8 154.382 266.992 154.308 267.141 154.158C267.29 154.009 267.365 153.817 267.365 153.582C267.365 153.358 267.285 153.172 267.125 153.022C266.976 152.873 266.789 152.798 266.565 152.798C266.341 152.798 266.154 152.873 266.005 153.022C265.866 153.172 265.797 153.358 265.797 153.582C265.797 153.817 265.866 154.009 266.005 154.158C266.154 154.308 266.341 154.382 266.565 154.382ZM261.637 148.958C261.221 148.958 260.832 148.857 260.469 148.654C260.117 148.441 259.84 148.158 259.637 147.806C259.434 147.454 259.333 147.065 259.333 146.638C259.333 146.201 259.434 145.812 259.637 145.47C259.84 145.129 260.117 144.857 260.469 144.654C260.821 144.441 261.21 144.334 261.637 144.334C262.074 144.334 262.469 144.441 262.821 144.654C263.184 144.857 263.466 145.129 263.669 145.47C263.872 145.812 263.973 146.201 263.973 146.638C263.973 147.065 263.866 147.454 263.653 147.806C263.45 148.158 263.173 148.441 262.821 148.654C262.48 148.857 262.085 148.958 261.637 148.958ZM261.637 147.438C261.882 147.438 262.074 147.364 262.213 147.214C262.352 147.065 262.421 146.873 262.421 146.638C262.421 146.404 262.346 146.212 262.197 146.062C262.058 145.913 261.872 145.838 261.637 145.838C261.413 145.838 261.232 145.913 261.093 146.062C260.954 146.212 260.885 146.404 260.885 146.638C260.885 146.873 260.954 147.065 261.093 147.214C261.232 147.364 261.413 147.438 261.637 147.438ZM224.085 173.742V172.299H226.464C226.889 172.299 227.218 172.169 227.452 171.909C227.695 171.649 227.816 171.342 227.816 170.986C227.816 170.744 227.764 170.523 227.66 170.323C227.556 170.124 227.4 169.968 227.192 169.855C226.993 169.734 226.75 169.673 226.464 169.673H224.085V168.243H226.269C226.633 168.243 226.924 168.152 227.14 167.97C227.366 167.788 227.478 167.515 227.478 167.151C227.478 166.779 227.366 166.501 227.14 166.319C226.924 166.137 226.633 166.046 226.269 166.046H224.085V164.603H226.477C227.084 164.603 227.591 164.716 227.998 164.941C228.414 165.158 228.726 165.448 228.934 165.812C229.142 166.168 229.246 166.558 229.246 166.982C229.246 167.502 229.086 167.953 228.765 168.334C228.453 168.707 227.994 168.984 227.387 169.166L227.465 168.594C228.141 168.785 228.661 169.101 229.025 169.543C229.398 169.977 229.584 170.501 229.584 171.116C229.584 171.602 229.463 172.044 229.22 172.442C228.986 172.832 228.64 173.149 228.18 173.391C227.73 173.625 227.179 173.742 226.529 173.742H224.085ZM222.785 173.742V164.603H224.54V173.742H222.785ZM230.805 173.742V167.463H232.521V173.742H230.805ZM231.663 166.449C231.385 166.449 231.156 166.358 230.974 166.176C230.792 165.986 230.701 165.752 230.701 165.474C230.701 165.206 230.792 164.976 230.974 164.785C231.156 164.595 231.385 164.499 231.663 164.499C231.949 164.499 232.178 164.595 232.352 164.785C232.534 164.976 232.625 165.206 232.625 165.474C232.625 165.752 232.534 165.986 232.352 166.176C232.178 166.358 231.949 166.449 231.663 166.449ZM234.029 173.742V164.343H235.732V173.742H234.029ZM237.241 173.742V164.343H238.944V173.742H237.241ZM243.174 173.742V164.603H244.942V173.742H243.174ZM244.474 173.742V172.182H249.531V173.742H244.474ZM244.474 169.829V168.321H249.076V169.829H244.474ZM244.474 166.163V164.603H249.466V166.163H244.474ZM254.738 173.742L253.087 171.194L252.736 170.934L250.292 167.463H252.307L253.828 169.764L254.153 170.011L256.74 173.742H254.738ZM250.162 173.742L252.723 170.154L253.698 171.311L252.086 173.742H250.162ZM254.218 170.921L253.217 169.777L254.712 167.463H256.623L254.218 170.921ZM261.101 173.872C260.65 173.872 260.243 173.781 259.879 173.599C259.515 173.409 259.225 173.153 259.008 172.832C258.791 172.512 258.674 172.143 258.657 171.727V169.504C258.674 169.088 258.791 168.72 259.008 168.399C259.233 168.07 259.524 167.81 259.879 167.619C260.243 167.429 260.65 167.333 261.101 167.333C261.682 167.333 262.202 167.476 262.661 167.762C263.12 168.048 263.48 168.438 263.74 168.932C264.009 169.426 264.143 169.985 264.143 170.609C264.143 171.225 264.009 171.779 263.74 172.273C263.48 172.767 263.12 173.157 262.661 173.443C262.202 173.729 261.682 173.872 261.101 173.872ZM257.617 176.368V167.463H259.32V169.114L259.034 170.635L259.307 172.156V176.368H257.617ZM260.802 172.299C261.114 172.299 261.391 172.23 261.634 172.091C261.877 171.944 262.063 171.745 262.193 171.493C262.332 171.233 262.401 170.934 262.401 170.596C262.401 170.267 262.332 169.977 262.193 169.725C262.063 169.465 261.877 169.266 261.634 169.127C261.391 168.98 261.114 168.906 260.802 168.906C260.499 168.906 260.226 168.98 259.983 169.127C259.74 169.266 259.55 169.465 259.411 169.725C259.281 169.977 259.216 170.267 259.216 170.596C259.216 170.934 259.281 171.233 259.411 171.493C259.55 171.745 259.736 171.944 259.97 172.091C260.213 172.23 260.49 172.299 260.802 172.299ZM268.263 173.872C267.604 173.872 267.019 173.734 266.508 173.456C265.996 173.17 265.589 172.78 265.286 172.286C264.991 171.792 264.844 171.229 264.844 170.596C264.844 169.972 264.987 169.418 265.273 168.932C265.567 168.438 265.966 168.048 266.469 167.762C266.971 167.468 267.53 167.32 268.146 167.32C268.752 167.32 269.285 167.459 269.745 167.736C270.213 168.005 270.577 168.378 270.837 168.854C271.105 169.322 271.24 169.855 271.24 170.453C271.24 170.566 271.231 170.683 271.214 170.804C271.205 170.917 271.183 171.047 271.149 171.194L265.871 171.207V169.933L270.356 169.92L269.667 170.453C269.649 170.081 269.58 169.769 269.459 169.517C269.346 169.266 269.177 169.075 268.952 168.945C268.735 168.807 268.466 168.737 268.146 168.737C267.808 168.737 267.513 168.815 267.262 168.971C267.01 169.119 266.815 169.331 266.677 169.608C266.547 169.877 266.482 170.198 266.482 170.57C266.482 170.952 266.551 171.285 266.69 171.571C266.837 171.849 267.045 172.065 267.314 172.221C267.582 172.369 267.894 172.442 268.25 172.442C268.57 172.442 268.861 172.39 269.121 172.286C269.381 172.174 269.606 172.009 269.797 171.792L270.798 172.793C270.494 173.149 270.122 173.417 269.68 173.599C269.246 173.781 268.774 173.872 268.263 173.872ZM276.518 173.742V170.141C276.518 169.769 276.401 169.465 276.167 169.231C275.933 168.997 275.63 168.88 275.257 168.88C275.014 168.88 274.798 168.932 274.607 169.036C274.416 169.14 274.265 169.288 274.152 169.478C274.048 169.669 273.996 169.89 273.996 170.141L273.333 169.803C273.333 169.309 273.437 168.88 273.645 168.516C273.862 168.144 274.156 167.853 274.529 167.645C274.91 167.437 275.339 167.333 275.816 167.333C276.275 167.333 276.687 167.45 277.051 167.684C277.415 167.91 277.701 168.209 277.909 168.581C278.117 168.945 278.221 169.34 278.221 169.764V173.742H276.518ZM272.293 173.742V167.463H273.996V173.742H272.293ZM281.751 173.885C281.395 173.885 281.044 173.838 280.698 173.742C280.36 173.647 280.048 173.517 279.762 173.352C279.476 173.179 279.229 172.971 279.021 172.728L280.035 171.701C280.251 171.944 280.503 172.126 280.789 172.247C281.075 172.369 281.391 172.429 281.738 172.429C282.015 172.429 282.223 172.39 282.362 172.312C282.509 172.234 282.583 172.117 282.583 171.961C282.583 171.788 282.505 171.654 282.349 171.558C282.201 171.463 282.006 171.385 281.764 171.324C281.521 171.255 281.265 171.181 280.997 171.103C280.737 171.017 280.485 170.908 280.243 170.778C280 170.64 279.801 170.453 279.645 170.219C279.497 169.977 279.424 169.665 279.424 169.283C279.424 168.885 279.519 168.538 279.71 168.243C279.909 167.949 280.191 167.719 280.555 167.554C280.919 167.39 281.348 167.307 281.842 167.307C282.362 167.307 282.83 167.398 283.246 167.58C283.67 167.762 284.021 168.035 284.299 168.399L283.272 169.426C283.081 169.192 282.864 169.023 282.622 168.919C282.388 168.815 282.132 168.763 281.855 168.763C281.603 168.763 281.408 168.802 281.27 168.88C281.14 168.958 281.075 169.067 281.075 169.205C281.075 169.361 281.148 169.483 281.296 169.569C281.452 169.656 281.651 169.734 281.894 169.803C282.136 169.864 282.388 169.938 282.648 170.024C282.916 170.102 283.168 170.215 283.402 170.362C283.644 170.51 283.839 170.705 283.987 170.947C284.143 171.19 284.221 171.502 284.221 171.883C284.221 172.499 284 172.988 283.558 173.352C283.116 173.708 282.513 173.885 281.751 173.885ZM288.372 173.872C287.713 173.872 287.128 173.734 286.617 173.456C286.106 173.17 285.698 172.78 285.395 172.286C285.1 171.792 284.953 171.229 284.953 170.596C284.953 169.972 285.096 169.418 285.382 168.932C285.677 168.438 286.075 168.048 286.578 167.762C287.081 167.468 287.64 167.32 288.255 167.32C288.862 167.32 289.395 167.459 289.854 167.736C290.322 168.005 290.686 168.378 290.946 168.854C291.215 169.322 291.349 169.855 291.349 170.453C291.349 170.566 291.34 170.683 291.323 170.804C291.314 170.917 291.293 171.047 291.258 171.194L285.98 171.207V169.933L290.465 169.92L289.776 170.453C289.759 170.081 289.689 169.769 289.568 169.517C289.455 169.266 289.286 169.075 289.061 168.945C288.844 168.807 288.576 168.737 288.255 168.737C287.917 168.737 287.622 168.815 287.371 168.971C287.12 169.119 286.925 169.331 286.786 169.608C286.656 169.877 286.591 170.198 286.591 170.57C286.591 170.952 286.66 171.285 286.799 171.571C286.946 171.849 287.154 172.065 287.423 172.221C287.692 172.369 288.004 172.442 288.359 172.442C288.68 172.442 288.97 172.39 289.23 172.286C289.49 172.174 289.715 172.009 289.906 171.792L290.907 172.793C290.604 173.149 290.231 173.417 289.789 173.599C289.356 173.781 288.883 173.872 288.372 173.872Z" fill="white"/>
<path d="M224.916 230.833C224.159 230.833 223.465 230.7 222.836 230.433C222.207 230.156 221.679 229.761 221.252 229.249L222.692 227.825C222.905 228.145 223.209 228.401 223.604 228.593C223.999 228.785 224.425 228.881 224.884 228.881C225.311 228.881 225.679 228.806 225.988 228.657C226.297 228.497 226.537 228.278 226.708 228.001C226.889 227.713 226.98 227.382 226.98 227.009C226.98 226.614 226.889 226.278 226.708 226.001C226.537 225.724 226.287 225.51 225.956 225.361C225.625 225.212 225.231 225.137 224.772 225.137C224.569 225.137 224.361 225.153 224.148 225.185C223.935 225.206 223.753 225.244 223.604 225.297L224.564 224.081C224.831 223.996 225.092 223.926 225.348 223.873C225.615 223.809 225.86 223.777 226.084 223.777C226.66 223.777 227.177 223.916 227.636 224.193C228.105 224.46 228.473 224.844 228.74 225.345C229.017 225.836 229.156 226.417 229.156 227.089C229.156 227.836 228.98 228.492 228.628 229.057C228.276 229.612 227.78 230.049 227.14 230.369C226.511 230.678 225.769 230.833 224.916 230.833ZM223.604 225.297V224.049L226.484 220.705L228.98 220.673L226.004 224.081L223.604 225.297ZM221.876 221.313V219.425H228.98V220.673L227.204 221.313H221.876ZM233.729 230.833C232.95 230.833 232.241 230.7 231.601 230.433C230.961 230.156 230.427 229.761 230.001 229.249L231.441 227.825C231.654 228.145 231.958 228.401 232.353 228.593C232.758 228.785 233.201 228.881 233.681 228.881C234.118 228.881 234.497 228.801 234.817 228.641C235.147 228.481 235.403 228.257 235.585 227.969C235.777 227.67 235.873 227.324 235.873 226.929C235.873 226.513 235.777 226.161 235.585 225.873C235.403 225.585 235.158 225.366 234.849 225.217C234.539 225.068 234.193 224.993 233.809 224.993C233.403 224.993 233.035 225.046 232.705 225.153C232.385 225.249 232.075 225.409 231.777 225.633L231.905 224.257C232.107 224.044 232.321 223.873 232.545 223.745C232.769 223.606 233.019 223.505 233.297 223.441C233.585 223.366 233.921 223.329 234.305 223.329C235.126 223.329 235.809 223.5 236.353 223.841C236.907 224.172 237.329 224.62 237.617 225.185C237.905 225.74 238.049 226.353 238.049 227.025C238.049 227.761 237.867 228.417 237.505 228.993C237.142 229.569 236.635 230.022 235.985 230.353C235.345 230.673 234.593 230.833 233.729 230.833ZM231.777 225.633L230.737 224.609L231.249 219.425H233.217L232.641 224.689L231.777 225.633ZM231.585 221.313L231.249 219.425H237.425V221.313H231.585ZM239.469 230.673L246.445 219.425H248.429L241.453 230.673H239.469ZM246.397 230.833C245.97 230.833 245.581 230.732 245.229 230.529C244.877 230.316 244.594 230.038 244.381 229.697C244.178 229.345 244.077 228.95 244.077 228.513C244.077 228.076 244.178 227.686 244.381 227.345C244.594 227.004 244.871 226.732 245.213 226.529C245.565 226.316 245.959 226.209 246.397 226.209C246.834 226.209 247.229 226.316 247.581 226.529C247.933 226.732 248.21 227.004 248.413 227.345C248.626 227.686 248.733 228.076 248.733 228.513C248.733 228.95 248.626 229.345 248.413 229.697C248.21 230.038 247.933 230.316 247.581 230.529C247.239 230.732 246.845 230.833 246.397 230.833ZM246.397 229.313C246.631 229.313 246.823 229.238 246.973 229.089C247.122 228.94 247.197 228.748 247.197 228.513C247.197 228.289 247.117 228.102 246.957 227.953C246.807 227.804 246.621 227.729 246.397 227.729C246.173 227.729 245.986 227.804 245.837 227.953C245.698 228.102 245.629 228.289 245.629 228.513C245.629 228.748 245.698 228.94 245.837 229.089C245.986 229.238 246.173 229.313 246.397 229.313ZM241.469 223.889C241.053 223.889 240.663 223.788 240.301 223.585C239.949 223.372 239.671 223.089 239.469 222.737C239.266 222.385 239.165 221.996 239.165 221.569C239.165 221.132 239.266 220.742 239.469 220.401C239.671 220.06 239.949 219.788 240.301 219.585C240.653 219.372 241.042 219.265 241.469 219.265C241.906 219.265 242.301 219.372 242.653 219.585C243.015 219.788 243.298 220.06 243.501 220.401C243.703 220.742 243.805 221.132 243.805 221.569C243.805 221.996 243.698 222.385 243.485 222.737C243.282 223.089 243.005 223.372 242.653 223.585C242.311 223.788 241.917 223.889 241.469 223.889ZM241.469 222.369C241.714 222.369 241.906 222.294 242.045 222.145C242.183 221.996 242.253 221.804 242.253 221.569C242.253 221.334 242.178 221.142 242.029 220.993C241.89 220.844 241.703 220.769 241.469 220.769C241.245 220.769 241.063 220.844 240.925 220.993C240.786 221.142 240.717 221.334 240.717 221.569C240.717 221.804 240.786 221.996 240.925 222.145C241.063 222.294 241.245 222.369 241.469 222.369ZM219.918 248.816C219.251 248.816 218.627 248.695 218.046 248.452C217.474 248.209 216.972 247.876 216.538 247.451C216.114 247.018 215.78 246.515 215.537 245.943C215.295 245.362 215.173 244.743 215.173 244.084C215.173 243.425 215.29 242.814 215.524 242.251C215.767 241.679 216.101 241.181 216.525 240.756C216.959 240.323 217.461 239.989 218.033 239.755C218.605 239.512 219.225 239.391 219.892 239.391C220.568 239.391 221.192 239.512 221.764 239.755C222.336 239.989 222.835 240.323 223.259 240.756C223.693 241.181 224.031 241.679 224.273 242.251C224.516 242.823 224.637 243.438 224.637 244.097C224.637 244.756 224.516 245.371 224.273 245.943C224.031 246.515 223.693 247.018 223.259 247.451C222.835 247.876 222.336 248.209 221.764 248.452C221.201 248.695 220.586 248.816 219.918 248.816ZM219.892 247.165C220.482 247.165 220.993 247.035 221.426 246.775C221.86 246.515 222.198 246.155 222.44 245.696C222.692 245.237 222.817 244.699 222.817 244.084C222.817 243.633 222.748 243.222 222.609 242.849C222.471 242.476 222.271 242.156 222.011 241.887C221.751 241.61 221.444 241.397 221.088 241.25C220.733 241.103 220.334 241.029 219.892 241.029C219.32 241.029 218.813 241.159 218.371 241.419C217.938 241.67 217.596 242.026 217.344 242.485C217.102 242.944 216.98 243.477 216.98 244.084C216.98 244.543 217.05 244.964 217.188 245.345C217.336 245.726 217.535 246.051 217.786 246.32C218.046 246.589 218.354 246.797 218.709 246.944C219.073 247.091 219.468 247.165 219.892 247.165ZM226.78 248.673V239.781H228.483V248.673H226.78ZM225.311 243.889V242.394H229.952V243.889H225.311ZM235.135 248.673V245.072C235.135 244.699 235.018 244.396 234.784 244.162C234.55 243.928 234.246 243.811 233.874 243.811C233.631 243.811 233.414 243.863 233.224 243.967C233.033 244.071 232.881 244.218 232.769 244.409C232.665 244.6 232.613 244.821 232.613 245.072L231.95 244.734C231.95 244.24 232.054 243.811 232.262 243.447C232.47 243.074 232.756 242.784 233.12 242.576C233.492 242.368 233.917 242.264 234.394 242.264C234.87 242.264 235.291 242.368 235.655 242.576C236.027 242.784 236.318 243.07 236.526 243.434C236.734 243.798 236.838 244.218 236.838 244.695V248.673H235.135ZM230.91 248.673V239.274H232.613V248.673H230.91ZM241.212 248.803C240.554 248.803 239.969 248.664 239.457 248.387C238.946 248.101 238.539 247.711 238.235 247.217C237.941 246.723 237.793 246.16 237.793 245.527C237.793 244.903 237.936 244.348 238.222 243.863C238.517 243.369 238.916 242.979 239.418 242.693C239.921 242.398 240.48 242.251 241.095 242.251C241.702 242.251 242.235 242.39 242.694 242.667C243.162 242.936 243.526 243.308 243.786 243.785C244.055 244.253 244.189 244.786 244.189 245.384C244.189 245.497 244.181 245.614 244.163 245.735C244.155 245.848 244.133 245.978 244.098 246.125L238.82 246.138V244.864L243.305 244.851L242.616 245.384C242.599 245.011 242.53 244.699 242.408 244.448C242.296 244.197 242.127 244.006 241.901 243.876C241.685 243.737 241.416 243.668 241.095 243.668C240.757 243.668 240.463 243.746 240.211 243.902C239.96 244.049 239.765 244.262 239.626 244.539C239.496 244.808 239.431 245.128 239.431 245.501C239.431 245.882 239.501 246.216 239.639 246.502C239.787 246.779 239.995 246.996 240.263 247.152C240.532 247.299 240.844 247.373 241.199 247.373C241.52 247.373 241.81 247.321 242.07 247.217C242.33 247.104 242.556 246.94 242.746 246.723L243.747 247.724C243.444 248.079 243.071 248.348 242.629 248.53C242.196 248.712 241.724 248.803 241.212 248.803ZM245.243 248.673V242.394H246.946V248.673H245.243ZM246.946 245.202L246.283 244.76C246.361 243.989 246.586 243.382 246.959 242.94C247.331 242.489 247.869 242.264 248.571 242.264C248.874 242.264 249.147 242.316 249.39 242.42C249.632 242.515 249.853 242.676 250.053 242.901L248.987 244.123C248.891 244.019 248.774 243.941 248.636 243.889C248.506 243.837 248.354 243.811 248.181 243.811C247.817 243.811 247.518 243.928 247.284 244.162C247.058 244.387 246.946 244.734 246.946 245.202ZM252.669 248.816C252.314 248.816 251.963 248.768 251.616 248.673C251.278 248.578 250.966 248.448 250.68 248.283C250.394 248.11 250.147 247.902 249.939 247.659L250.953 246.632C251.17 246.875 251.421 247.057 251.707 247.178C251.993 247.299 252.309 247.36 252.656 247.36C252.933 247.36 253.141 247.321 253.28 247.243C253.427 247.165 253.501 247.048 253.501 246.892C253.501 246.719 253.423 246.584 253.267 246.489C253.12 246.394 252.925 246.316 252.682 246.255C252.439 246.186 252.184 246.112 251.915 246.034C251.655 245.947 251.404 245.839 251.161 245.709C250.918 245.57 250.719 245.384 250.563 245.15C250.416 244.907 250.342 244.595 250.342 244.214C250.342 243.815 250.437 243.469 250.628 243.174C250.827 242.879 251.109 242.65 251.473 242.485C251.837 242.32 252.266 242.238 252.76 242.238C253.28 242.238 253.748 242.329 254.164 242.511C254.589 242.693 254.94 242.966 255.217 243.33L254.19 244.357C253.999 244.123 253.783 243.954 253.54 243.85C253.306 243.746 253.05 243.694 252.773 243.694C252.522 243.694 252.327 243.733 252.188 243.811C252.058 243.889 251.993 243.997 251.993 244.136C251.993 244.292 252.067 244.413 252.214 244.5C252.37 244.587 252.569 244.665 252.812 244.734C253.055 244.795 253.306 244.868 253.566 244.955C253.835 245.033 254.086 245.146 254.32 245.293C254.563 245.44 254.758 245.635 254.905 245.878C255.061 246.121 255.139 246.433 255.139 246.814C255.139 247.429 254.918 247.919 254.476 248.283C254.034 248.638 253.432 248.816 252.669 248.816Z" fill="white"/>
<defs>
<filter id="filter0_d_522_5110" x="0" y="7.30225" width="389.019" height="362.698" filterUnits="userSpaceOnUse" color-interpolation-filters="sRGB">
<feFlood flood-opacity="0" result="BackgroundImageFix"/>
<feColorMatrix in="SourceAlpha" type="matrix" values="0 0 0 0 0 0 0 0 0 0 0 0 0 0 0 0 0 0 127 0" result="hardAlpha"/>
<feOffset dy="4"/>
<feGaussianBlur stdDeviation="15"/>
<feComposite in2="hardAlpha" operator="out"/>
<feColorMatrix type="matrix" values="0 0 0 0 0 0 0 0 0 0 0 0 0 0 0 0 0 0 0.05 0"/>
<feBlend mode="normal" in2="BackgroundImageFix" result="effect1_dropShadow_522_5110"/>
<feBlend mode="normal" in="SourceGraphic" in2="effect1_dropShadow_522_5110" result="shape"/>
</filter>
</defs>
</svg>
