<svg width="20" height="20" viewBox="0 0 20 20" fill="none" xmlns="http://www.w3.org/2000/svg">
<path d="M2.91669 8.33366C2.91669 5.19096 2.91669 3.61961 3.95402 2.6433C4.99135 1.66699 6.66091 1.66699 10 1.66699H10.644C13.3616 1.66699 14.7205 1.66699 15.6641 2.33185C15.9345 2.52235 16.1745 2.74826 16.3769 3.00273C17.0834 3.89089 17.0834 5.16979 17.0834 7.7276V9.84881C17.0834 12.3181 17.0834 13.5528 16.6926 14.5389C16.0643 16.1241 14.7357 17.3746 13.0514 17.9659C12.0037 18.3337 10.6918 18.3337 8.0682 18.3337C6.56898 18.3337 5.81937 18.3337 5.22067 18.1235C4.25818 17.7856 3.49898 17.0711 3.13999 16.1652C2.91669 15.6017 2.91669 14.8962 2.91669 13.4852V8.33366Z" stroke="white" stroke-linejoin="round"/>
<path d="M17.0833 10C17.0833 11.5341 15.8397 12.7778 14.3056 12.7778C13.7507 12.7778 13.0966 12.6806 12.5572 12.8251C12.0779 12.9535 11.7035 13.3279 11.5751 13.8072C11.4306 14.3466 11.5278 15.0007 11.5278 15.5556C11.5278 17.0897 10.2841 18.3333 8.75 18.3333" stroke="white" stroke-linecap="round" stroke-linejoin="round"/>
<path d="M6.66669 5.83398H12.5" stroke="white" stroke-linecap="round" stroke-linejoin="round"/>
<path d="M6.66669 9.16699H9.16669" stroke="white" stroke-linecap="round" stroke-linejoin="round"/>
</svg>
