<svg width="681" height="414" viewBox="0 0 681 414" fill="none" xmlns="http://www.w3.org/2000/svg">
<rect width="681" height="377.583" rx="28.5356" fill="white"/>
<mask id="mask0_524_5123" style="mask-type:luminance" maskUnits="userSpaceOnUse" x="0" y="0" width="681" height="378">
<rect width="681" height="377.583" rx="28.5356" fill="white"/>
</mask>
<g mask="url(#mask0_524_5123)">
<g clip-path="url(#clip0_524_5123)">
<path d="M621.395 351.976C620.551 351.976 619.763 351.822 619.032 351.514C618.302 351.195 617.663 350.755 617.115 350.196C616.567 349.625 616.139 348.969 615.831 348.227C615.534 347.485 615.386 346.692 615.386 345.847C615.386 344.991 615.534 344.198 615.831 343.467C616.139 342.725 616.561 342.075 617.098 341.515C617.646 340.956 618.279 340.522 618.998 340.214C619.729 339.906 620.516 339.752 621.361 339.752C622.206 339.752 622.987 339.906 623.707 340.214C624.437 340.522 625.076 340.956 625.624 341.515C626.172 342.075 626.6 342.725 626.908 343.467C627.216 344.209 627.371 345.008 627.371 345.864C627.371 346.709 627.216 347.502 626.908 348.244C626.6 348.986 626.172 349.636 625.624 350.196C625.088 350.755 624.454 351.195 623.724 351.514C623.005 351.822 622.228 351.976 621.395 351.976ZM621.361 350.435C622.217 350.435 622.965 350.241 623.604 349.853C624.254 349.454 624.768 348.912 625.145 348.227C625.521 347.531 625.71 346.737 625.71 345.847C625.71 345.185 625.601 344.58 625.384 344.032C625.168 343.473 624.865 342.988 624.477 342.577C624.089 342.166 623.632 341.852 623.107 341.635C622.582 341.407 622 341.293 621.361 341.293C620.516 341.293 619.769 341.487 619.118 341.875C618.479 342.263 617.971 342.799 617.594 343.484C617.229 344.169 617.046 344.957 617.046 345.847C617.046 346.509 617.149 347.125 617.355 347.696C617.571 348.255 617.868 348.74 618.245 349.151C618.633 349.551 619.089 349.865 619.615 350.093C620.151 350.321 620.733 350.435 621.361 350.435ZM633.142 351.976C632.343 351.976 631.618 351.788 630.968 351.411C630.328 351.035 629.82 350.527 629.444 349.888C629.078 349.237 628.896 348.518 628.896 347.73C628.896 346.931 629.078 346.212 629.444 345.573C629.82 344.934 630.328 344.432 630.968 344.066C631.618 343.69 632.343 343.501 633.142 343.501C633.77 343.501 634.352 343.621 634.888 343.861C635.425 344.089 635.887 344.426 636.275 344.871L635.248 345.898C634.997 345.602 634.689 345.379 634.323 345.231C633.969 345.071 633.576 344.991 633.142 344.991C632.628 344.991 632.172 345.111 631.772 345.35C631.373 345.579 631.059 345.898 630.831 346.309C630.602 346.72 630.488 347.194 630.488 347.73C630.488 348.267 630.602 348.74 630.831 349.151C631.059 349.562 631.373 349.888 631.772 350.127C632.172 350.367 632.628 350.487 633.142 350.487C633.576 350.487 633.969 350.413 634.323 350.264C634.689 350.104 635.002 349.876 635.265 349.579L636.275 350.607C635.898 351.04 635.436 351.377 634.888 351.617C634.352 351.857 633.77 351.976 633.142 351.976ZM639.075 351.805V340.265H640.616V351.805H639.075ZM637.072 345.076V343.673H642.619V345.076H637.072Z" fill="#92929D"/>
<path fill-rule="evenodd" clip-rule="evenodd" d="M626.52 328.066V83.3257H628.79V328.066H626.52Z" fill="#F1F1F5"/>
</g>
<g clip-path="url(#clip1_524_5123)">
<path d="M521.504 351.976C520.568 351.976 519.769 351.805 519.107 351.463C518.445 351.12 517.857 350.624 517.343 349.973L518.439 348.877C518.816 349.402 519.249 349.802 519.74 350.076C520.231 350.338 520.836 350.47 521.555 350.47C522.263 350.47 522.828 350.316 523.25 350.007C523.684 349.699 523.901 349.277 523.901 348.74C523.901 348.295 523.798 347.936 523.593 347.662C523.387 347.388 523.107 347.165 522.754 346.994C522.411 346.811 522.035 346.652 521.624 346.515C521.213 346.366 520.802 346.212 520.391 346.052C519.98 345.881 519.603 345.676 519.261 345.436C518.918 345.185 518.639 344.86 518.422 344.46C518.216 344.061 518.114 343.558 518.114 342.953C518.114 342.28 518.274 341.709 518.593 341.241C518.924 340.762 519.369 340.397 519.929 340.146C520.499 339.883 521.139 339.752 521.846 339.752C522.622 339.752 523.319 339.906 523.935 340.214C524.551 340.511 525.054 340.905 525.442 341.395L524.346 342.491C523.992 342.08 523.61 341.772 523.199 341.567C522.799 341.361 522.337 341.258 521.812 341.258C521.173 341.258 520.665 341.401 520.288 341.686C519.912 341.96 519.723 342.348 519.723 342.851C519.723 343.25 519.826 343.576 520.031 343.827C520.248 344.066 520.528 344.272 520.87 344.443C521.213 344.614 521.589 344.774 522 344.922C522.423 345.059 522.839 345.213 523.25 345.385C523.661 345.556 524.038 345.773 524.38 346.035C524.723 346.298 524.997 346.64 525.202 347.063C525.419 347.473 525.527 347.993 525.527 348.621C525.527 349.671 525.162 350.493 524.432 351.086C523.712 351.68 522.737 351.976 521.504 351.976ZM531.194 351.976C530.384 351.976 529.653 351.794 529.003 351.429C528.352 351.052 527.839 350.544 527.462 349.905C527.085 349.266 526.897 348.541 526.897 347.73C526.897 346.931 527.08 346.212 527.445 345.573C527.821 344.934 528.324 344.432 528.951 344.066C529.591 343.69 530.304 343.501 531.092 343.501C531.845 343.501 532.507 343.673 533.078 344.015C533.66 344.357 534.111 344.831 534.43 345.436C534.761 346.041 534.927 346.726 534.927 347.491C534.927 347.605 534.921 347.73 534.91 347.867C534.898 347.993 534.875 348.141 534.841 348.312H527.976V347.028H534.019L533.454 347.525C533.454 346.977 533.357 346.515 533.163 346.138C532.969 345.75 532.695 345.453 532.342 345.248C531.988 345.031 531.56 344.922 531.057 344.922C530.532 344.922 530.07 345.037 529.671 345.265C529.271 345.493 528.963 345.813 528.746 346.224C528.529 346.635 528.421 347.12 528.421 347.679C528.421 348.25 528.535 348.752 528.763 349.186C528.991 349.608 529.317 349.939 529.739 350.179C530.161 350.407 530.647 350.521 531.194 350.521C531.651 350.521 532.068 350.441 532.444 350.281C532.832 350.122 533.163 349.882 533.437 349.562L534.43 350.572C534.042 351.029 533.563 351.377 532.992 351.617C532.433 351.857 531.834 351.976 531.194 351.976ZM541.01 351.976C540.393 351.976 539.834 351.851 539.332 351.6C538.841 351.337 538.447 350.978 538.15 350.521C537.854 350.065 537.688 349.545 537.654 348.963V346.515C537.688 345.921 537.854 345.402 538.15 344.957C538.459 344.5 538.858 344.146 539.349 343.895C539.851 343.633 540.405 343.501 541.01 343.501C541.752 343.501 542.419 343.69 543.013 344.066C543.618 344.443 544.092 344.951 544.434 345.59C544.776 346.229 544.948 346.948 544.948 347.747C544.948 348.546 544.776 349.266 544.434 349.905C544.092 350.544 543.618 351.052 543.013 351.429C542.419 351.794 541.752 351.976 541.01 351.976ZM536.729 355.212V343.673H538.27V345.813L537.979 347.782L538.27 349.768V355.212H536.729ZM540.753 350.521C541.266 350.521 541.717 350.401 542.105 350.162C542.494 349.922 542.802 349.597 543.03 349.186C543.258 348.763 543.372 348.278 543.372 347.73C543.372 347.194 543.258 346.714 543.03 346.292C542.802 345.87 542.494 345.544 542.105 345.316C541.717 345.076 541.272 344.957 540.77 344.957C540.256 344.957 539.805 345.076 539.417 345.316C539.029 345.544 538.727 345.87 538.51 346.292C538.293 346.714 538.185 347.2 538.185 347.747C538.185 348.284 538.287 348.763 538.493 349.186C538.71 349.597 539.012 349.922 539.4 350.162C539.8 350.401 540.251 350.521 540.753 350.521Z" fill="#92929D"/>
<path fill-rule="evenodd" clip-rule="evenodd" d="M528.91 328.066V83.3257H531.18V328.066H528.91Z" fill="#F1F1F5"/>
</g>
<g clip-path="url(#clip2_524_5123)">
<path d="M415.391 351.805L420.254 339.923H421.418L426.263 351.805H424.517L420.528 341.755H421.127L417.104 351.805H415.391ZM417.703 349.117V347.713H423.952V349.117H417.703ZM431.004 351.976C430.342 351.976 429.742 351.828 429.206 351.531C428.681 351.223 428.27 350.801 427.973 350.264C427.676 349.728 427.528 349.106 427.528 348.398V343.673H429.069V348.33C429.069 348.775 429.143 349.163 429.291 349.494C429.451 349.813 429.68 350.059 429.976 350.23C430.273 350.401 430.621 350.487 431.021 350.487C431.626 350.487 432.099 350.298 432.442 349.922C432.784 349.534 432.955 349.003 432.955 348.33V343.673H434.496V348.398C434.496 349.106 434.348 349.728 434.051 350.264C433.754 350.801 433.344 351.223 432.818 351.531C432.305 351.828 431.7 351.976 431.004 351.976ZM440.057 355.384C439.224 355.384 438.482 355.229 437.831 354.921C437.192 354.613 436.678 354.179 436.29 353.62L437.283 352.61C437.614 353.032 438.008 353.352 438.465 353.569C438.921 353.797 439.463 353.911 440.091 353.911C440.924 353.911 441.581 353.689 442.06 353.243C442.551 352.81 442.796 352.222 442.796 351.48V349.46L443.07 347.628L442.796 345.813V343.673H444.337V351.48C444.337 352.256 444.155 352.935 443.789 353.517C443.435 354.099 442.933 354.556 442.283 354.887C441.643 355.218 440.901 355.384 440.057 355.384ZM440.057 351.668C439.315 351.668 438.647 351.491 438.054 351.137C437.472 350.784 437.009 350.298 436.667 349.682C436.324 349.054 436.153 348.352 436.153 347.576C436.153 346.8 436.324 346.109 436.667 345.505C437.009 344.888 437.472 344.403 438.054 344.049C438.647 343.684 439.315 343.501 440.057 343.501C440.696 343.501 441.261 343.627 441.752 343.878C442.243 344.129 442.631 344.483 442.916 344.94C443.213 345.385 443.373 345.91 443.396 346.515V348.672C443.361 349.266 443.196 349.791 442.899 350.247C442.614 350.692 442.226 351.04 441.735 351.292C441.244 351.543 440.685 351.668 440.057 351.668ZM440.365 350.213C440.867 350.213 441.307 350.104 441.683 349.888C442.071 349.671 442.368 349.368 442.574 348.98C442.779 348.581 442.882 348.118 442.882 347.593C442.882 347.068 442.773 346.612 442.557 346.224C442.351 345.824 442.06 345.516 441.683 345.299C441.307 345.071 440.862 344.957 440.348 344.957C439.834 344.957 439.383 345.071 438.995 345.299C438.607 345.516 438.299 345.824 438.071 346.224C437.854 346.612 437.745 347.063 437.745 347.576C437.745 348.09 437.854 348.546 438.071 348.946C438.299 349.345 438.607 349.659 438.995 349.888C439.395 350.104 439.851 350.213 440.365 350.213Z" fill="#92929D"/>
<path fill-rule="evenodd" clip-rule="evenodd" d="M426.76 328.066L426.76 83.3257H429.03V328.066H426.76Z" fill="#F1F1F5"/>
</g>
<g clip-path="url(#clip3_524_5123)">
<path d="M326.613 351.976C325.928 351.976 325.323 351.845 324.798 351.583C324.284 351.309 323.862 350.943 323.531 350.487L324.661 349.442C324.878 349.762 325.146 350.007 325.466 350.179C325.797 350.35 326.162 350.435 326.562 350.435C326.961 350.435 327.315 350.35 327.623 350.179C327.931 350.007 328.171 349.756 328.342 349.425C328.525 349.083 328.616 348.666 328.616 348.175V339.923H330.226V348.09C330.226 348.877 330.066 349.562 329.746 350.144C329.438 350.727 329.01 351.177 328.462 351.497C327.926 351.817 327.309 351.976 326.613 351.976ZM336.017 351.976C335.355 351.976 334.756 351.828 334.219 351.531C333.694 351.223 333.283 350.801 332.987 350.264C332.69 349.728 332.541 349.106 332.541 348.398V343.673H334.082V348.33C334.082 348.775 334.156 349.163 334.305 349.494C334.465 349.813 334.693 350.059 334.99 350.23C335.287 350.401 335.635 350.487 336.034 350.487C336.639 350.487 337.113 350.298 337.455 349.922C337.798 349.534 337.969 349.003 337.969 348.33V343.673H339.51V348.398C339.51 349.106 339.361 349.728 339.065 350.264C338.768 350.801 338.357 351.223 337.832 351.531C337.318 351.828 336.713 351.976 336.017 351.976ZM341.697 351.805V339.581H343.238V351.805H341.697Z" fill="#92929D"/>
<path fill-rule="evenodd" clip-rule="evenodd" d="M331.42 328.066L331.42 83.3257H333.69V328.066H331.42Z" fill="#F1F1F5"/>
</g>
<g clip-path="url(#clip4_524_5123)">
<path d="M228.48 351.976C227.796 351.976 227.191 351.845 226.666 351.583C226.152 351.309 225.73 350.943 225.399 350.487L226.529 349.442C226.745 349.762 227.014 350.007 227.333 350.179C227.664 350.35 228.03 350.435 228.429 350.435C228.829 350.435 229.182 350.35 229.491 350.179C229.799 350.007 230.038 349.756 230.21 349.425C230.392 349.083 230.484 348.666 230.484 348.175V339.923H232.093V348.09C232.093 348.877 231.933 349.562 231.614 350.144C231.305 350.727 230.877 351.177 230.33 351.497C229.793 351.817 229.177 351.976 228.48 351.976ZM237.885 351.976C237.222 351.976 236.623 351.828 236.087 351.531C235.562 351.223 235.151 350.801 234.854 350.264C234.557 349.728 234.409 349.106 234.409 348.398V343.673H235.95V348.33C235.95 348.775 236.024 349.163 236.172 349.494C236.332 349.813 236.56 350.059 236.857 350.23C237.154 350.401 237.502 350.487 237.902 350.487C238.507 350.487 238.98 350.298 239.323 349.922C239.665 349.534 239.836 349.003 239.836 348.33V343.673H241.377V348.398C241.377 349.106 241.229 349.728 240.932 350.264C240.635 350.801 240.224 351.223 239.699 351.531C239.186 351.828 238.581 351.976 237.885 351.976ZM249.318 351.805V347.063C249.318 346.446 249.124 345.938 248.735 345.539C248.347 345.139 247.845 344.94 247.229 344.94C246.818 344.94 246.453 345.031 246.133 345.213C245.813 345.396 245.562 345.647 245.38 345.967C245.197 346.286 245.106 346.652 245.106 347.063L244.472 346.703C244.472 346.087 244.609 345.539 244.883 345.059C245.157 344.58 245.539 344.203 246.03 343.929C246.521 343.644 247.075 343.501 247.691 343.501C248.307 343.501 248.85 343.655 249.318 343.964C249.797 344.272 250.174 344.677 250.448 345.179C250.722 345.67 250.859 346.195 250.859 346.754V351.805H249.318ZM243.565 351.805V343.673H245.106V351.805H243.565Z" fill="#92929D"/>
<path fill-rule="evenodd" clip-rule="evenodd" d="M240.62 328.066L240.62 83.3257H242.89V328.066H240.62Z" fill="#F1F1F5"/>
</g>
<g clip-path="url(#clip5_524_5123)">
<path d="M119.785 351.805V339.923H120.915L125.949 348.193H125.179L130.212 339.923H131.342V351.805H129.733V342.748L130.11 342.851L126.137 349.374H125.007L121.035 342.851L121.395 342.748V351.805H119.785ZM137.455 351.976C136.713 351.976 136.039 351.794 135.434 351.429C134.829 351.052 134.35 350.544 133.996 349.905C133.654 349.266 133.483 348.546 133.483 347.747C133.483 346.948 133.654 346.229 133.996 345.59C134.35 344.951 134.824 344.443 135.417 344.066C136.022 343.69 136.701 343.501 137.455 343.501C138.071 343.501 138.619 343.633 139.098 343.895C139.589 344.146 139.983 344.5 140.28 344.957C140.577 345.402 140.742 345.921 140.776 346.515V348.963C140.742 349.545 140.577 350.065 140.28 350.521C139.994 350.978 139.606 351.337 139.116 351.6C138.636 351.851 138.083 351.976 137.455 351.976ZM137.712 350.521C138.476 350.521 139.093 350.264 139.561 349.751C140.029 349.226 140.263 348.558 140.263 347.747C140.263 347.188 140.154 346.703 139.937 346.292C139.732 345.87 139.435 345.544 139.047 345.316C138.659 345.076 138.208 344.957 137.694 344.957C137.181 344.957 136.724 345.076 136.325 345.316C135.937 345.556 135.628 345.887 135.4 346.309C135.183 346.72 135.075 347.194 135.075 347.73C135.075 348.278 135.183 348.763 135.4 349.186C135.628 349.597 135.942 349.922 136.342 350.162C136.741 350.401 137.198 350.521 137.712 350.521ZM140.16 351.805V349.614L140.451 347.628L140.16 345.659V343.673H141.718V351.805H140.16ZM146.755 351.874L143.228 343.673H144.94L147.559 350.093H147.011L149.768 343.673H151.48L147.679 351.874H146.755ZM144.426 355.212L146.823 350.298L147.679 351.874L146.138 355.212H144.426Z" fill="#92929D"/>
<path fill-rule="evenodd" clip-rule="evenodd" d="M136.226 328.066V83.3257H138.444V328.066H136.226Z" fill="#F1F1F5"/>
</g>
<g clip-path="url(#clip6_524_5123)">
<path d="M18.7936 351.805L23.6561 339.923H24.8203L29.6657 351.805H27.9193L23.93 341.755H24.5292L20.5057 351.805H18.7936ZM21.105 349.117V347.713H27.3543V349.117H21.105ZM35.7169 351.976C35.1005 351.976 34.5412 351.851 34.039 351.6C33.5482 351.337 33.1544 350.978 32.8576 350.521C32.5609 350.065 32.3953 349.545 32.3611 348.963V346.515C32.3953 345.921 32.5609 345.402 32.8576 344.957C33.1658 344.5 33.5653 344.146 34.0561 343.895C34.5583 343.633 35.1119 343.501 35.7169 343.501C36.4588 343.501 37.1266 343.69 37.7201 344.066C38.325 344.443 38.7987 344.951 39.1412 345.59C39.4836 346.229 39.6548 346.948 39.6548 347.747C39.6548 348.546 39.4836 349.266 39.1412 349.905C38.7987 350.544 38.325 351.052 37.7201 351.429C37.1266 351.794 36.4588 351.976 35.7169 351.976ZM31.4365 355.212V343.673H32.9775V345.813L32.6864 347.782L32.9775 349.768V355.212H31.4365ZM35.4601 350.521C35.9737 350.521 36.4246 350.401 36.8127 350.162C37.2007 349.922 37.5089 349.597 37.7372 349.186C37.9655 348.763 38.0796 348.278 38.0796 347.73C38.0796 347.194 37.9655 346.714 37.7372 346.292C37.5089 345.87 37.2007 345.544 36.8127 345.316C36.4246 345.076 35.9794 344.957 35.4772 344.957C34.9636 344.957 34.5127 345.076 34.1246 345.316C33.7365 345.544 33.434 345.87 33.2172 346.292C33.0003 346.714 32.8919 347.2 32.8919 347.747C32.8919 348.284 32.9946 348.763 33.2001 349.186C33.4169 349.597 33.7194 349.922 34.1075 350.162C34.507 350.401 34.9578 350.521 35.4601 350.521ZM41.524 351.805V343.673H43.0649V351.805H41.524ZM43.0649 347.165L42.4828 346.908C42.4828 345.87 42.7225 345.042 43.2019 344.426C43.6813 343.809 44.3719 343.501 45.2736 343.501C45.6845 343.501 46.0555 343.576 46.3865 343.724C46.7175 343.861 47.0257 344.095 47.311 344.426L46.3009 345.47C46.1297 345.288 45.9413 345.156 45.7359 345.076C45.5304 344.997 45.2907 344.957 45.0168 344.957C44.4461 344.957 43.9781 345.139 43.6128 345.505C43.2476 345.87 43.0649 346.423 43.0649 347.165Z" fill="#92929D"/>
<path fill-rule="evenodd" clip-rule="evenodd" d="M34.0756 328.066V83.3257H36.294V328.066H34.0756Z" fill="#F1F1F5"/>
</g>
<path d="M-146 181.408C-143.447 183.298 -132.614 179.073 -119.36 181.47C-108.924 183.357 -99.8463 189.417 -86.4858 191.248C-61.1276 194.724 -40.4316 198.296 -28.672 206.597C-16.9124 214.899 0.738863 243.047 21.7734 243.047C42.8079 243.047 53.5143 228.406 61.4495 218.761C69.05 209.524 83.6896 187.337 107.36 184.89C133.487 182.19 154.972 165.725 186.146 162.957C202.761 161.482 216.072 164.353 230.923 168.814C245.774 173.275 242.867 175.201 276.267 178.64C303.83 181.478 311.04 191.248 338.049 192.424C365.058 193.6 377.55 156.811 406.065 159.882C434.581 162.953 440.278 155.014 467.083 170.061C493.887 185.109 518.652 173.101 552.3 170.03C585.948 166.959 594.712 176.486 610.681 175.258C626.649 174.029 641.027 197.255 654.714 200.633C668.402 204.011 672.283 191.74 701.369 191.74C730.455 191.74 727.344 179.562 743.312 178.64C759.281 177.719 770.487 179.274 775.62 175.282" stroke="#FFA800" stroke-width="4.28034" stroke-linecap="round" stroke-linejoin="round"/>
<path d="M-146 207.388C-141.426 209.855 -106.552 213.444 -86.5417 204.696C-66.5317 195.947 -48.8085 200.658 -28.2268 202.453C-7.64512 204.247 -0.784559 183.161 22.084 180.469C44.9526 177.778 73.5383 163.397 107.841 160.033C142.144 156.668 139.857 176.656 185.023 179.572C230.188 182.488 242.766 162.075 263.347 156.243C283.929 150.411 293.076 123.834 327.379 125.628C361.682 127.423 378.834 145.404 407.419 147.647C436.005 149.89 441.722 164.767 468.593 175.759C495.463 186.75 520.047 188.096 553.778 185.853C587.509 183.61 596.657 160.93 612.665 160.033C628.673 159.135 642.966 169.951 656.687 172.418C670.408 174.886 674.41 185.853 703.567 185.853C732.725 185.853 729.294 190.115 745.302 189.442C761.31 188.769 772.745 182.488 777.89 179.572" stroke="#523DD5" stroke-width="4.28034" stroke-linecap="round" stroke-linejoin="round"/>
</g>
<rect y="138.958" width="111" height="238.625" fill="white"/>
<g clip-path="url(#clip7_524_5123)">
<path d="M48.362 111.552V99.6695H49.9542V111.552H48.362ZM45.9307 101.108V99.6695H49.783V101.108H45.9307ZM57.7928 111.552L53.9919 107.391L57.7586 103.419H59.6248L55.43 107.802L55.4985 106.912L59.7789 111.552H57.7928ZM52.5879 111.552V99.3271H54.1288V111.552H52.5879Z" fill="#92929D"/>
</g>
<g clip-path="url(#clip8_524_5123)">
<path d="M45.6701 351C44.7798 351 43.9636 350.749 43.2217 350.247C42.4912 349.745 41.9091 349.037 41.4753 348.124C41.0416 347.199 40.8247 346.115 40.8247 344.871C40.8247 343.627 41.0359 342.548 41.4582 341.635C41.892 340.722 42.4741 340.02 43.2046 339.529C43.9351 339.027 44.7398 338.776 45.6187 338.776C46.5204 338.776 47.3366 339.027 48.0671 339.529C48.7976 340.02 49.374 340.722 49.7963 341.635C50.2301 342.548 50.4469 343.632 50.4469 344.888C50.4469 346.132 50.2301 347.216 49.7963 348.141C49.374 349.054 48.7976 349.762 48.0671 350.264C47.348 350.755 46.549 351 45.6701 351ZM45.6358 349.477C46.2636 349.477 46.8115 349.305 47.2795 348.963C47.7589 348.609 48.1355 348.09 48.4095 347.405C48.6834 346.72 48.8204 345.875 48.8204 344.871C48.8204 343.866 48.6834 343.027 48.4095 342.354C48.1355 341.669 47.7589 341.156 47.2795 340.813C46.8001 340.459 46.2465 340.282 45.6187 340.282C45.0023 340.282 44.4545 340.459 43.9751 340.813C43.4957 341.156 43.119 341.669 42.845 342.354C42.5825 343.027 42.4513 343.866 42.4513 344.871C42.4513 345.875 42.5825 346.72 42.845 347.405C43.119 348.09 43.4957 348.609 43.9751 348.963C44.4545 349.305 45.008 349.477 45.6358 349.477Z" fill="#92929D"/>
</g>
<g clip-path="url(#clip9_524_5123)">
<path d="M27.8049 296.397L32.1879 291.774C32.6331 291.318 32.9812 290.924 33.2323 290.593C33.4835 290.251 33.6604 289.937 33.7631 289.651C33.8773 289.366 33.9343 289.069 33.9343 288.761C33.9343 288.156 33.7403 287.682 33.3522 287.34C32.9641 286.997 32.4619 286.826 31.8455 286.826C31.2406 286.826 30.7098 286.975 30.2532 287.271C29.7967 287.557 29.3915 288.002 29.0376 288.607L27.9076 287.665C28.3756 286.889 28.9406 286.307 29.6026 285.919C30.2646 285.519 31.0294 285.32 31.8969 285.32C32.6274 285.32 33.2609 285.462 33.7974 285.748C34.3452 286.033 34.7676 286.432 35.0643 286.946C35.3611 287.46 35.5095 288.059 35.5095 288.744C35.5095 289.235 35.4467 289.674 35.3212 290.062C35.207 290.45 34.9958 290.85 34.6877 291.261C34.3909 291.66 33.9743 292.14 33.4378 292.699L29.8937 296.346L27.8049 296.397ZM27.8049 297.373V296.397L29.1746 295.935H35.7834V297.373H27.8049ZM42.2751 297.544C41.3848 297.544 40.5687 297.293 39.8268 296.791C39.0963 296.289 38.5142 295.581 38.0804 294.668C37.6467 293.743 37.4298 292.659 37.4298 291.415C37.4298 290.171 37.641 289.092 38.0633 288.179C38.497 287.266 39.0792 286.564 39.8097 286.073C40.5402 285.571 41.3449 285.32 42.2238 285.32C43.1255 285.32 43.9416 285.571 44.6721 286.073C45.4026 286.564 45.9791 287.266 46.4014 288.179C46.8351 289.092 47.052 290.176 47.052 291.432C47.052 292.676 46.8351 293.76 46.4014 294.685C45.9791 295.598 45.4026 296.306 44.6721 296.808C43.953 297.299 43.154 297.544 42.2751 297.544ZM42.2409 296.02C42.8687 296.02 43.4166 295.849 43.8846 295.507C44.364 295.153 44.7406 294.634 45.0146 293.949C45.2885 293.264 45.4255 292.419 45.4255 291.415C45.4255 290.41 45.2885 289.571 45.0146 288.898C44.7406 288.213 44.364 287.699 43.8846 287.357C43.4052 287.003 42.8516 286.826 42.2238 286.826C41.6074 286.826 41.0595 287.003 40.5801 287.357C40.1007 287.699 39.7241 288.213 39.4501 288.898C39.1876 289.571 39.0563 290.41 39.0563 291.415C39.0563 292.419 39.1876 293.264 39.4501 293.949C39.7241 294.634 40.1007 295.153 40.5801 295.507C41.0595 295.849 41.6131 296.02 42.2409 296.02ZM53.6333 297.544C52.743 297.544 51.9269 297.293 51.185 296.791C50.4545 296.289 49.8723 295.581 49.4386 294.668C49.0049 293.743 48.788 292.659 48.788 291.415C48.788 290.171 48.9992 289.092 49.4215 288.179C49.8552 287.266 50.4374 286.564 51.1679 286.073C51.8984 285.571 52.7031 285.32 53.582 285.32C54.4837 285.32 55.2998 285.571 56.0303 286.073C56.7608 286.564 57.3373 287.266 57.7596 288.179C58.1933 289.092 58.4102 290.176 58.4102 291.432C58.4102 292.676 58.1933 293.76 57.7596 294.685C57.3373 295.598 56.7608 296.306 56.0303 296.808C55.3112 297.299 54.5122 297.544 53.6333 297.544ZM53.5991 296.02C54.2269 296.02 54.7748 295.849 55.2427 295.507C55.7221 295.153 56.0988 294.634 56.3728 293.949C56.6467 293.264 56.7837 292.419 56.7837 291.415C56.7837 290.41 56.6467 289.571 56.3728 288.898C56.0988 288.213 55.7221 287.699 55.2427 287.357C54.7634 287.003 54.2098 286.826 53.582 286.826C52.9656 286.826 52.4177 287.003 51.9383 287.357C51.4589 287.699 51.0823 288.213 50.8083 288.898C50.5458 289.571 50.4145 290.41 50.4145 291.415C50.4145 292.419 50.5458 293.264 50.8083 293.949C51.0823 294.634 51.4589 295.153 51.9383 295.507C52.4177 295.849 52.9713 296.02 53.5991 296.02Z" fill="#92929D"/>
</g>
<g clip-path="url(#clip10_524_5123)">
<path d="M27.8049 246.826L32.1366 239.036H33.9514L29.5341 246.826H27.8049ZM27.8049 247.819V246.826L28.4897 246.381H36.9134V247.819H27.8049ZM33.609 250.918V243.059H35.2013V250.918H33.609ZM43.2449 251.089C42.3546 251.089 41.5385 250.838 40.7966 250.336C40.066 249.834 39.4839 249.126 39.0502 248.213C38.6164 247.288 38.3996 246.204 38.3996 244.96C38.3996 243.716 38.6107 242.637 39.0331 241.724C39.4668 240.811 40.0489 240.109 40.7794 239.618C41.5099 239.116 42.3146 238.865 43.1935 238.865C44.0953 238.865 44.9114 239.116 45.6419 239.618C46.3724 240.109 46.9488 240.811 47.3712 241.724C47.8049 242.637 48.0218 243.721 48.0218 244.977C48.0218 246.221 47.8049 247.305 47.3712 248.23C46.9488 249.143 46.3724 249.851 45.6419 250.353C44.9228 250.844 44.1238 251.089 43.2449 251.089ZM43.2107 249.565C43.8385 249.565 44.3863 249.394 44.8543 249.052C45.3337 248.698 45.7104 248.179 45.9843 247.494C46.2583 246.809 46.3952 245.964 46.3952 244.96C46.3952 243.955 46.2583 243.116 45.9843 242.443C45.7104 241.758 45.3337 241.244 44.8543 240.902C44.3749 240.548 43.8213 240.371 43.1935 240.371C42.5772 240.371 42.0293 240.548 41.5499 240.902C41.0705 241.244 40.6938 241.758 40.4199 242.443C40.1574 243.116 40.0261 243.955 40.0261 244.96C40.0261 245.964 40.1574 246.809 40.4199 247.494C40.6938 248.179 41.0705 248.698 41.5499 249.052C42.0293 249.394 42.5829 249.565 43.2107 249.565ZM54.6031 251.089C53.7128 251.089 52.8967 250.838 52.1547 250.336C51.4242 249.834 50.8421 249.126 50.4084 248.213C49.9746 247.288 49.7578 246.204 49.7578 244.96C49.7578 243.716 49.9689 242.637 50.3912 241.724C50.825 240.811 51.4071 240.109 52.1376 239.618C52.8681 239.116 53.6728 238.865 54.5517 238.865C55.4535 238.865 56.2696 239.116 57.0001 239.618C57.7306 240.109 58.307 240.811 58.7294 241.724C59.1631 242.637 59.38 243.721 59.38 244.977C59.38 246.221 59.1631 247.305 58.7294 248.23C58.307 249.143 57.7306 249.851 57.0001 250.353C56.281 250.844 55.482 251.089 54.6031 251.089ZM54.5689 249.565C55.1966 249.565 55.7445 249.394 56.2125 249.052C56.6919 248.698 57.0686 248.179 57.3425 247.494C57.6165 246.809 57.7534 245.964 57.7534 244.96C57.7534 243.955 57.6165 243.116 57.3425 242.443C57.0686 241.758 56.6919 241.244 56.2125 240.902C55.7331 240.548 55.1795 240.371 54.5517 240.371C53.9354 240.371 53.3875 240.548 52.9081 240.902C52.4287 241.244 52.052 241.758 51.7781 242.443C51.5156 243.116 51.3843 243.955 51.3843 244.96C51.3843 245.964 51.5156 246.809 51.7781 247.494C52.052 248.179 52.4287 248.698 52.9081 249.052C53.3875 249.394 53.9411 249.565 54.5689 249.565Z" fill="#92929D"/>
</g>
<g clip-path="url(#clip11_524_5123)">
<path d="M32.0681 204.634C31.2805 204.634 30.5728 204.451 29.945 204.086C29.3287 203.72 28.8379 203.23 28.4726 202.613C28.1074 201.997 27.9247 201.312 27.9247 200.559C27.9247 199.509 28.29 198.464 29.0205 197.426L32.5133 192.58H34.3795L30.8011 197.46L30.219 197.768C30.356 197.528 30.5215 197.328 30.7155 197.169C30.9095 196.997 31.1492 196.866 31.4346 196.775C31.72 196.684 32.0567 196.638 32.4448 196.638C33.141 196.638 33.7688 196.803 34.3281 197.134C34.8988 197.465 35.3554 197.922 35.6978 198.504C36.0517 199.075 36.2286 199.743 36.2286 200.507C36.2286 201.261 36.0403 201.951 35.6636 202.579C35.2983 203.207 34.7961 203.709 34.1569 204.086C33.5291 204.451 32.8328 204.634 32.0681 204.634ZM32.0681 203.127C32.5475 203.127 32.9755 203.013 33.3522 202.785C33.7403 202.545 34.0428 202.231 34.2596 201.843C34.4879 201.443 34.6021 200.998 34.6021 200.507C34.6021 200.017 34.4879 199.577 34.2596 199.189C34.0428 198.79 33.7403 198.476 33.3522 198.247C32.9755 198.019 32.5475 197.905 32.0681 197.905C31.5887 197.905 31.155 198.019 30.7669 198.247C30.3902 198.476 30.0877 198.79 29.8594 199.189C29.6426 199.577 29.5341 200.017 29.5341 200.507C29.5341 200.998 29.6426 201.443 29.8594 201.843C30.0877 202.242 30.3902 202.556 30.7669 202.785C31.155 203.013 31.5887 203.127 32.0681 203.127ZM42.6764 204.634C41.7861 204.634 40.97 204.383 40.2281 203.88C39.4976 203.378 38.9154 202.67 38.4817 201.757C38.0479 200.833 37.8311 199.748 37.8311 198.504C37.8311 197.26 38.0422 196.181 38.4646 195.268C38.8983 194.355 39.4804 193.653 40.2109 193.162C40.9415 192.66 41.7462 192.409 42.6251 192.409C43.5268 192.409 44.3429 192.66 45.0734 193.162C45.8039 193.653 46.3804 194.355 46.8027 195.268C47.2364 196.181 47.4533 197.266 47.4533 198.521C47.4533 199.765 47.2364 200.85 46.8027 201.774C46.3804 202.687 45.8039 203.395 45.0734 203.897C44.3543 204.388 43.5553 204.634 42.6764 204.634ZM42.6422 203.11C43.27 203.11 43.8179 202.939 44.2858 202.596C44.7652 202.242 45.1419 201.723 45.4158 201.038C45.6898 200.353 45.8268 199.509 45.8268 198.504C45.8268 197.5 45.6898 196.661 45.4158 195.987C45.1419 195.302 44.7652 194.789 44.2858 194.446C43.8064 194.093 43.2528 193.916 42.6251 193.916C42.0087 193.916 41.4608 194.093 40.9814 194.446C40.502 194.789 40.1253 195.302 39.8514 195.987C39.5889 196.661 39.4576 197.5 39.4576 198.504C39.4576 199.509 39.5889 200.353 39.8514 201.038C40.1253 201.723 40.502 202.242 40.9814 202.596C41.4608 202.939 42.0144 203.11 42.6422 203.11ZM54.0346 204.634C53.1443 204.634 52.3282 204.383 51.5863 203.88C50.8558 203.378 50.2736 202.67 49.8399 201.757C49.4061 200.833 49.1893 199.748 49.1893 198.504C49.1893 197.26 49.4004 196.181 49.8228 195.268C50.2565 194.355 50.8386 193.653 51.5691 193.162C52.2997 192.66 53.1044 192.409 53.9833 192.409C54.885 192.409 55.7011 192.66 56.4316 193.162C57.1621 193.653 57.7385 194.355 58.1609 195.268C58.5946 196.181 58.8115 197.266 58.8115 198.521C58.8115 199.765 58.5946 200.85 58.1609 201.774C57.7385 202.687 57.1621 203.395 56.4316 203.897C55.7125 204.388 54.9135 204.634 54.0346 204.634ZM54.0004 203.11C54.6282 203.11 55.176 202.939 55.644 202.596C56.1234 202.242 56.5001 201.723 56.774 201.038C57.048 200.353 57.185 199.509 57.185 198.504C57.185 197.5 57.048 196.661 56.774 195.987C56.5001 195.302 56.1234 194.789 55.644 194.446C55.1646 194.093 54.611 193.916 53.9833 193.916C53.3669 193.916 52.819 194.093 52.3396 194.446C51.8602 194.789 51.4835 195.302 51.2096 195.987C50.9471 196.661 50.8158 197.5 50.8158 198.504C50.8158 199.509 50.9471 200.353 51.2096 201.038C51.4835 201.723 51.8602 202.242 52.3396 202.596C52.819 202.939 53.3726 203.11 54.0004 203.11Z" fill="#92929D"/>
</g>
<g clip-path="url(#clip12_524_5123)">
<path d="M31.9482 158.179C31.1607 158.179 30.4644 158.03 29.8594 157.733C29.2659 157.437 28.8036 157.026 28.4726 156.501C28.1416 155.976 27.9761 155.382 27.9761 154.72C27.9761 154.184 28.0788 153.693 28.2843 153.248C28.4897 152.802 28.7922 152.426 29.1917 152.118C29.5912 151.798 30.0592 151.57 30.5957 151.433L30.647 151.895C30.1905 151.769 29.8024 151.57 29.4828 151.296C29.1632 151.01 28.9178 150.679 28.7465 150.303C28.5867 149.915 28.5068 149.504 28.5068 149.07C28.5068 148.454 28.6552 147.911 28.952 147.443C29.2488 146.975 29.654 146.61 30.1676 146.348C30.6927 146.074 31.2862 145.937 31.9482 145.937C32.6217 145.937 33.2152 146.074 33.7289 146.348C34.2425 146.61 34.6477 146.975 34.9445 147.443C35.2413 147.911 35.3896 148.454 35.3896 149.07C35.3896 149.504 35.304 149.915 35.1328 150.303C34.973 150.679 34.7333 151.01 34.4137 151.296C34.1055 151.57 33.7232 151.769 33.2666 151.895L33.3008 151.433C33.8487 151.57 34.3167 151.798 34.7048 152.118C35.1043 152.426 35.4068 152.802 35.6122 153.248C35.8291 153.693 35.9375 154.184 35.9375 154.72C35.9375 155.382 35.772 155.976 35.441 156.501C35.11 157.026 34.642 157.437 34.0371 157.733C33.4435 158.03 32.7472 158.179 31.9482 158.179ZM31.9482 156.723C32.4276 156.723 32.8443 156.632 33.1981 156.449C33.5634 156.255 33.8487 155.993 34.0542 155.662C34.271 155.331 34.3795 154.948 34.3795 154.515C34.3795 154.092 34.271 153.716 34.0542 153.385C33.8487 153.054 33.5634 152.797 33.1981 152.614C32.8443 152.42 32.4276 152.323 31.9482 152.323C31.4803 152.323 31.0636 152.42 30.6984 152.614C30.3331 152.797 30.0421 153.054 29.8252 153.385C29.6197 153.716 29.517 154.092 29.517 154.515C29.517 154.948 29.6197 155.331 29.8252 155.662C30.0421 155.993 30.3331 156.255 30.6984 156.449C31.0636 156.632 31.4803 156.723 31.9482 156.723ZM31.9482 151.073C32.519 151.073 32.9869 150.896 33.3522 150.542C33.7175 150.189 33.9001 149.732 33.9001 149.173C33.9001 148.625 33.7175 148.18 33.3522 147.837C32.9869 147.483 32.519 147.306 31.9482 147.306C31.3889 147.306 30.9267 147.483 30.5614 147.837C30.1962 148.18 30.0135 148.625 30.0135 149.173C30.0135 149.732 30.1962 150.189 30.5614 150.542C30.9267 150.896 31.3889 151.073 31.9482 151.073ZM42.4256 158.179C41.5353 158.179 40.7192 157.927 39.9773 157.425C39.2468 156.923 38.6646 156.215 38.2309 155.302C37.7971 154.378 37.5803 153.293 37.5803 152.049C37.5803 150.805 37.7914 149.726 38.2138 148.813C38.6475 147.9 39.2296 147.198 39.9601 146.707C40.6907 146.205 41.4954 145.954 42.3743 145.954C43.276 145.954 44.0921 146.205 44.8226 146.707C45.5531 147.198 46.1295 147.9 46.5519 148.813C46.9856 149.726 47.2025 150.811 47.2025 152.066C47.2025 153.31 46.9856 154.395 46.5519 155.319C46.1295 156.232 45.5531 156.94 44.8226 157.442C44.1035 157.933 43.3045 158.179 42.4256 158.179ZM42.3914 156.655C43.0192 156.655 43.567 156.484 44.035 156.141C44.5144 155.787 44.8911 155.268 45.165 154.583C45.439 153.898 45.576 153.054 45.576 152.049C45.576 151.045 45.439 150.206 45.165 149.532C44.8911 148.847 44.5144 148.334 44.035 147.991C43.5556 147.637 43.002 147.461 42.3743 147.461C41.7579 147.461 41.21 147.637 40.7306 147.991C40.2512 148.334 39.8745 148.847 39.6006 149.532C39.3381 150.206 39.2068 151.045 39.2068 152.049C39.2068 153.054 39.3381 153.898 39.6006 154.583C39.8745 155.268 40.2512 155.787 40.7306 156.141C41.21 156.484 41.7636 156.655 42.3914 156.655ZM53.7838 158.179C52.8935 158.179 52.0774 157.927 51.3355 157.425C50.605 156.923 50.0228 156.215 49.5891 155.302C49.1553 154.378 48.9385 153.293 48.9385 152.049C48.9385 150.805 49.1496 149.726 49.572 148.813C50.0057 147.9 50.5878 147.198 51.3183 146.707C52.0489 146.205 52.8536 145.954 53.7325 145.954C54.6342 145.954 55.4503 146.205 56.1808 146.707C56.9113 147.198 57.4877 147.9 57.9101 148.813C58.3438 149.726 58.5607 150.811 58.5607 152.066C58.5607 153.31 58.3438 154.395 57.9101 155.319C57.4877 156.232 56.9113 156.94 56.1808 157.442C55.4617 157.933 54.6627 158.179 53.7838 158.179ZM53.7496 156.655C54.3774 156.655 54.9252 156.484 55.3932 156.141C55.8726 155.787 56.2493 155.268 56.5232 154.583C56.7972 153.898 56.9342 153.054 56.9342 152.049C56.9342 151.045 56.7972 150.206 56.5232 149.532C56.2493 148.847 55.8726 148.334 55.3932 147.991C54.9138 147.637 54.3602 147.461 53.7325 147.461C53.1161 147.461 52.5682 147.637 52.0888 147.991C51.6094 148.334 51.2327 148.847 50.9588 149.532C50.6963 150.206 50.565 151.045 50.565 152.049C50.565 153.054 50.6963 153.898 50.9588 154.583C51.2327 155.268 51.6094 155.787 52.0888 156.141C52.5682 156.484 53.1218 156.655 53.7496 156.655Z" fill="#92929D"/>
</g>
<path fill-rule="evenodd" clip-rule="evenodd" d="M426.661 327.294L426.661 192.027H428.931V327.294H426.661Z" fill="#0062FF"/>
<g filter="url(#filter0_d_524_5123)">
<rect x="410.87" y="185.195" width="31.78" height="19.1287" rx="9.56436" fill="#0062FF"/>
<rect x="412.297" y="186.622" width="28.9264" height="16.2752" rx="8.13758" stroke="white" stroke-width="2.85356"/>
</g>
<g clip-path="url(#clip13_524_5123)">
<g filter="url(#filter1_d_524_5123)">
<path fill-rule="evenodd" clip-rule="evenodd" d="M432.118 176.101C427.778 179.472 420.742 179.472 416.402 176.101L407.674 170.268C406.501 169.484 405.121 169.065 403.71 169.065H381.65C366.472 169.065 360.968 168.114 355.419 166.328C349.87 164.541 345.516 161.92 342.548 158.58C339.58 155.24 338 151.927 338 142.792V120.19C338 111.054 339.58 107.741 342.548 104.401C345.516 101.061 349.87 98.4402 355.419 96.654C360.968 94.8677 366.472 93.9165 381.65 93.9165H464.6C479.778 93.9165 485.282 94.8677 490.831 96.654C496.38 98.4402 500.735 101.061 503.702 104.401C506.67 107.741 508.25 111.054 508.25 120.19V142.792C508.25 151.927 506.67 155.24 503.702 158.58C500.735 161.92 496.38 164.541 490.831 166.328C485.282 168.114 479.778 169.065 464.6 169.065H446.974C444.152 169.065 441.393 169.902 439.047 171.47L432.118 176.101Z" fill="white"/>
</g>
<path d="M370.953 126.384C369.901 126.384 368.982 126.191 368.196 125.805C367.424 125.418 366.718 124.839 366.079 124.067L367.837 122.289C368.25 122.835 368.716 123.274 369.235 123.607C369.768 123.927 370.387 124.087 371.093 124.087C371.812 124.087 372.378 123.94 372.791 123.647C373.203 123.354 373.41 122.941 373.41 122.409C373.41 121.983 373.29 121.636 373.05 121.37C372.81 121.104 372.491 120.877 372.091 120.691C371.705 120.505 371.279 120.338 370.813 120.192C370.347 120.032 369.881 119.852 369.415 119.652C368.949 119.453 368.516 119.206 368.116 118.913C367.73 118.607 367.417 118.221 367.178 117.755C366.951 117.275 366.838 116.676 366.838 115.957C366.838 115.105 367.038 114.379 367.437 113.78C367.85 113.18 368.409 112.721 369.115 112.401C369.834 112.082 370.647 111.922 371.552 111.922C372.431 111.922 373.243 112.102 373.989 112.461C374.735 112.821 375.354 113.287 375.847 113.86L374.069 115.637C373.669 115.185 373.257 114.838 372.83 114.599C372.418 114.359 371.972 114.239 371.492 114.239C370.84 114.239 370.334 114.366 369.974 114.619C369.615 114.858 369.435 115.231 369.435 115.737C369.435 116.123 369.555 116.436 369.794 116.676C370.034 116.916 370.347 117.122 370.733 117.295C371.133 117.468 371.565 117.635 372.031 117.795C372.511 117.954 372.984 118.134 373.45 118.334C373.929 118.534 374.362 118.793 374.748 119.113C375.148 119.433 375.467 119.845 375.707 120.351C375.947 120.844 376.066 121.457 376.066 122.189C376.066 123.494 375.607 124.52 374.688 125.265C373.783 126.011 372.537 126.384 370.953 126.384ZM370.473 125.145H372.371V128.182H370.473V125.145ZM372.371 113.26H370.473V110.124H372.371V113.26ZM377.762 124.626L383.055 119.093C383.428 118.693 383.728 118.341 383.954 118.034C384.194 117.715 384.367 117.415 384.474 117.135C384.58 116.842 384.634 116.55 384.634 116.257C384.634 115.671 384.44 115.211 384.054 114.878C383.681 114.545 383.195 114.379 382.596 114.379C381.984 114.379 381.438 114.539 380.958 114.858C380.492 115.178 380.053 115.684 379.64 116.376L377.782 114.798C378.341 113.853 379.034 113.14 379.86 112.661C380.698 112.168 381.657 111.922 382.736 111.922C383.655 111.922 384.454 112.102 385.133 112.461C385.825 112.821 386.358 113.32 386.731 113.959C387.104 114.599 387.29 115.344 387.29 116.197C387.29 116.769 387.217 117.289 387.07 117.755C386.937 118.221 386.704 118.687 386.371 119.153C386.052 119.606 385.606 120.118 385.033 120.691L381.178 124.626H377.762ZM377.762 126.184V124.626L380.079 123.827H387.59V126.184H377.762ZM390.453 126.184L395.386 113.72H398.063L393.269 126.184H390.453ZM388.515 114.499V112.142H398.063V113.72L397.044 114.499H388.515ZM403.761 126.384C402.802 126.384 401.937 126.171 401.164 125.745C400.405 125.305 399.799 124.719 399.347 123.987C398.907 123.241 398.688 122.415 398.688 121.51C398.688 120.272 399.114 119.026 399.966 117.775L403.861 112.142H406.977L402.722 118.094L401.724 118.374C401.87 118.068 402.043 117.801 402.243 117.575C402.456 117.349 402.729 117.175 403.062 117.056C403.395 116.936 403.814 116.876 404.32 116.876C405.159 116.876 405.918 117.076 406.598 117.475C407.277 117.861 407.823 118.401 408.236 119.093C408.648 119.772 408.855 120.558 408.855 121.45C408.855 122.369 408.628 123.201 408.176 123.947C407.723 124.693 407.11 125.285 406.338 125.725C405.566 126.164 404.707 126.384 403.761 126.384ZM403.761 123.947C404.227 123.947 404.64 123.84 405 123.627C405.359 123.401 405.645 123.101 405.859 122.728C406.072 122.342 406.178 121.909 406.178 121.43C406.178 120.951 406.072 120.525 405.859 120.152C405.645 119.765 405.359 119.466 405 119.253C404.64 119.04 404.227 118.933 403.761 118.933C403.295 118.933 402.876 119.046 402.503 119.273C402.143 119.486 401.857 119.779 401.644 120.152C401.444 120.525 401.344 120.951 401.344 121.43C401.344 121.909 401.444 122.342 401.644 122.728C401.857 123.101 402.143 123.401 402.503 123.627C402.876 123.84 403.295 123.947 403.761 123.947ZM414.343 126.384C413.398 126.384 412.532 126.217 411.746 125.884C410.961 125.538 410.301 125.046 409.769 124.406L411.567 122.629C411.833 123.028 412.212 123.348 412.705 123.587C413.198 123.827 413.731 123.947 414.303 123.947C414.836 123.947 415.295 123.854 415.681 123.667C416.068 123.467 416.367 123.195 416.58 122.848C416.807 122.489 416.92 122.076 416.92 121.61C416.92 121.117 416.807 120.698 416.58 120.351C416.367 120.005 416.054 119.739 415.641 119.552C415.229 119.366 414.736 119.273 414.163 119.273C413.91 119.273 413.651 119.293 413.384 119.333C413.118 119.359 412.892 119.406 412.705 119.473L413.904 117.954C414.237 117.848 414.563 117.761 414.882 117.695C415.215 117.615 415.522 117.575 415.801 117.575C416.52 117.575 417.166 117.748 417.739 118.094C418.325 118.427 418.784 118.907 419.117 119.532C419.463 120.145 419.636 120.871 419.636 121.71C419.636 122.642 419.417 123.461 418.977 124.167C418.538 124.859 417.919 125.405 417.12 125.805C416.334 126.191 415.408 126.384 414.343 126.384ZM412.705 119.473V117.914L416.301 113.74L419.417 113.7L415.701 117.954L412.705 119.473ZM410.548 114.499V112.142H419.417V113.7L417.199 114.499H410.548ZM421.014 124.626L426.307 119.093C426.68 118.693 426.98 118.341 427.206 118.034C427.446 117.715 427.619 117.415 427.725 117.135C427.832 116.842 427.885 116.55 427.885 116.257C427.885 115.671 427.692 115.211 427.306 114.878C426.933 114.545 426.447 114.379 425.848 114.379C425.235 114.379 424.689 114.539 424.21 114.858C423.744 115.178 423.304 115.684 422.891 116.376L421.034 114.798C421.593 113.853 422.285 113.14 423.111 112.661C423.95 112.168 424.909 111.922 425.987 111.922C426.906 111.922 427.705 112.102 428.384 112.461C429.077 112.821 429.61 113.32 429.982 113.959C430.355 114.599 430.542 115.344 430.542 116.197C430.542 116.769 430.468 117.289 430.322 117.755C430.189 118.221 429.956 118.687 429.623 119.153C429.303 119.606 428.857 120.118 428.285 120.691L424.429 124.626H421.014ZM421.014 126.184V124.626L423.331 123.827H430.841V126.184H421.014Z" fill="#171725"/>
<path d="M379.869 156L384.732 144.118H385.896L390.741 156H388.995L385.006 145.95H385.605L381.582 156H379.869ZM382.181 153.312V151.908H388.43V153.312H382.181ZM395.482 156.172C394.82 156.172 394.22 156.023 393.684 155.727C393.159 155.418 392.748 154.996 392.451 154.46C392.154 153.923 392.006 153.301 392.006 152.593V147.868H393.547V152.525C393.547 152.97 393.621 153.358 393.769 153.689C393.929 154.009 394.158 154.254 394.454 154.425C394.751 154.597 395.099 154.682 395.499 154.682C396.104 154.682 396.577 154.494 396.92 154.117C397.262 153.729 397.433 153.198 397.433 152.525V147.868H398.974V152.593C398.974 153.301 398.826 153.923 398.529 154.46C398.232 154.996 397.821 155.418 397.296 155.727C396.783 156.023 396.178 156.172 395.482 156.172ZM404.535 159.579C403.702 159.579 402.96 159.425 402.309 159.117C401.67 158.808 401.156 158.375 400.768 157.815L401.761 156.805C402.092 157.228 402.486 157.547 402.943 157.764C403.399 157.992 403.941 158.106 404.569 158.106C405.402 158.106 406.059 157.884 406.538 157.439C407.029 157.005 407.274 156.417 407.274 155.675V153.655L407.548 151.823L407.274 150.008V147.868H408.815V155.675C408.815 156.451 408.633 157.13 408.267 157.713C407.913 158.295 407.411 158.751 406.761 159.082C406.121 159.413 405.379 159.579 404.535 159.579ZM404.535 155.864C403.793 155.864 403.125 155.687 402.532 155.333C401.949 154.979 401.487 154.494 401.145 153.877C400.802 153.25 400.631 152.548 400.631 151.772C400.631 150.995 400.802 150.305 401.145 149.7C401.487 149.083 401.949 148.598 402.532 148.245C403.125 147.879 403.793 147.697 404.535 147.697C405.174 147.697 405.739 147.822 406.23 148.073C406.721 148.324 407.109 148.678 407.394 149.135C407.691 149.58 407.851 150.105 407.873 150.71V152.867C407.839 153.461 407.674 153.986 407.377 154.442C407.092 154.888 406.704 155.236 406.213 155.487C405.722 155.738 405.163 155.864 404.535 155.864ZM404.843 154.408C405.345 154.408 405.785 154.3 406.161 154.083C406.549 153.866 406.846 153.564 407.052 153.175C407.257 152.776 407.36 152.314 407.36 151.789C407.36 151.264 407.251 150.807 407.035 150.419C406.829 150.019 406.538 149.711 406.161 149.494C405.785 149.266 405.34 149.152 404.826 149.152C404.312 149.152 403.861 149.266 403.473 149.494C403.085 149.711 402.777 150.019 402.549 150.419C402.332 150.807 402.223 151.258 402.223 151.772C402.223 152.285 402.332 152.742 402.549 153.141C402.777 153.541 403.085 153.855 403.473 154.083C403.873 154.3 404.329 154.408 404.843 154.408ZM414.469 156.172C413.807 156.172 413.208 156.023 412.672 155.727C412.147 155.418 411.736 154.996 411.439 154.46C411.142 153.923 410.994 153.301 410.994 152.593V147.868H412.535V152.525C412.535 152.97 412.609 153.358 412.757 153.689C412.917 154.009 413.145 154.254 413.442 154.425C413.739 154.597 414.087 154.682 414.487 154.682C415.091 154.682 415.565 154.494 415.908 154.117C416.25 153.729 416.421 153.198 416.421 152.525V147.868H417.962V152.593C417.962 153.301 417.814 153.923 417.517 154.46C417.22 154.996 416.809 155.418 416.284 155.727C415.771 156.023 415.166 156.172 414.469 156.172ZM422.735 156.172C422.278 156.172 421.845 156.115 421.434 156C421.034 155.875 420.663 155.704 420.321 155.487C419.978 155.259 419.682 154.99 419.431 154.682L420.424 153.689C420.72 154.054 421.063 154.328 421.451 154.511C421.839 154.682 422.273 154.768 422.752 154.768C423.232 154.768 423.603 154.688 423.865 154.528C424.128 154.357 424.259 154.123 424.259 153.826C424.259 153.529 424.15 153.301 423.934 153.141C423.728 152.97 423.46 152.833 423.129 152.73C422.798 152.616 422.444 152.508 422.067 152.405C421.702 152.291 421.354 152.148 421.023 151.977C420.692 151.806 420.418 151.572 420.201 151.275C419.996 150.978 419.893 150.584 419.893 150.094C419.893 149.603 420.013 149.18 420.252 148.827C420.492 148.461 420.823 148.182 421.245 147.988C421.679 147.794 422.199 147.697 422.804 147.697C423.443 147.697 424.008 147.811 424.499 148.039C425.001 148.256 425.412 148.587 425.731 149.032L424.738 150.025C424.51 149.728 424.225 149.5 423.882 149.34C423.551 149.18 423.174 149.101 422.752 149.101C422.307 149.101 421.965 149.18 421.725 149.34C421.497 149.489 421.382 149.7 421.382 149.974C421.382 150.248 421.485 150.459 421.691 150.607C421.896 150.756 422.164 150.881 422.495 150.984C422.838 151.087 423.192 151.195 423.557 151.309C423.922 151.412 424.27 151.555 424.601 151.737C424.932 151.92 425.201 152.165 425.406 152.473C425.623 152.782 425.731 153.187 425.731 153.689C425.731 154.454 425.457 155.059 424.909 155.504C424.373 155.949 423.648 156.172 422.735 156.172ZM428.829 156V144.461H430.369V156H428.829ZM426.825 149.272V147.868H432.373V149.272H426.825Z" fill="#696974"/>
</g>
<path d="M37.9765 29.4436V26.9097H41.6975C42.1845 26.9097 42.6259 26.8107 43.0216 26.6129C43.4173 26.415 43.7293 26.1335 43.9576 25.7682C44.1858 25.3878 44.3 24.9312 44.3 24.3985C44.3 23.8811 44.1858 23.4321 43.9576 23.0516C43.7293 22.6712 43.4173 22.382 43.0216 22.1842C42.6259 21.9863 42.1845 21.8874 41.6975 21.8874H37.9765V19.3534H42.0171C43.0368 19.3534 43.9499 19.5589 44.7566 19.9698C45.5784 20.3807 46.2252 20.9666 46.697 21.7276C47.1688 22.4733 47.4047 23.3636 47.4047 24.3985C47.4047 25.4334 47.1688 26.3313 46.697 27.0923C46.2252 27.838 45.5784 28.4163 44.7566 28.8272C43.9499 29.2382 43.0368 29.4436 42.0171 29.4436H37.9765ZM35.6936 35.4019V19.3534H38.7983V35.4019H35.6936ZM49.5839 35.4019V24.3757H52.5744V35.4019H49.5839ZM52.5744 29.3066L51.4102 28.5305C51.5471 27.176 51.9428 26.1107 52.5972 25.3345C53.2517 24.5431 54.1952 24.1474 55.428 24.1474C55.9606 24.1474 56.44 24.2387 56.8662 24.4213C57.2923 24.5888 57.6804 24.8703 58.0304 25.266L56.1585 27.4119C55.9911 27.2293 55.7856 27.0923 55.5421 27.001C55.3138 26.9097 55.0475 26.864 54.7431 26.864C54.1039 26.864 53.5789 27.0695 53.168 27.4804C52.7723 27.8761 52.5744 28.4848 52.5744 29.3066ZM64.0935 35.6301C62.9825 35.6301 61.9781 35.379 61.0802 34.8768C60.1975 34.3594 59.4898 33.6669 58.9571 32.7994C58.4397 31.9167 58.181 30.9351 58.181 29.8545C58.181 28.774 58.4397 27.8076 58.9571 26.9553C59.4746 26.0878 60.1823 25.403 61.0802 24.9007C61.9781 24.3833 62.9749 24.1246 64.0707 24.1246C65.1969 24.1246 66.2014 24.3833 67.0841 24.9007C67.982 25.403 68.6897 26.0878 69.2071 26.9553C69.7246 27.8076 69.9833 28.774 69.9833 29.8545C69.9833 30.9351 69.7246 31.9167 69.2071 32.7994C68.6897 33.6669 67.982 34.3594 67.0841 34.8768C66.2014 35.379 65.2045 35.6301 64.0935 35.6301ZM64.0707 32.8451C64.6338 32.8451 65.1284 32.7233 65.5546 32.4798C65.9959 32.2211 66.3307 31.871 66.559 31.4297C66.8025 30.9731 66.9243 30.4557 66.9243 29.8774C66.9243 29.299 66.8025 28.7892 66.559 28.3479C66.3155 27.9065 65.9807 27.5641 65.5546 27.3206C65.1284 27.0618 64.6338 26.9325 64.0707 26.9325C63.5228 26.9325 63.0358 27.0618 62.6097 27.3206C62.1835 27.5641 61.8487 27.9065 61.6052 28.3479C61.3617 28.7892 61.24 29.299 61.24 29.8774C61.24 30.4557 61.3617 30.9731 61.6052 31.4297C61.8487 31.871 62.1835 32.2211 62.6097 32.4798C63.0358 32.7233 63.5228 32.8451 64.0707 32.8451ZM71.1609 40.2872C70.3695 40.2872 69.7151 40.1578 69.1977 39.8991C68.665 39.6403 68.1856 39.2751 67.7595 38.8033L69.6542 36.9085C69.8369 37.1368 70.0347 37.2966 70.2478 37.3879C70.4456 37.4945 70.6815 37.5477 70.9555 37.5477C71.3359 37.5477 71.6555 37.4336 71.9143 37.2053C72.173 36.977 72.3023 36.6422 72.3023 36.2009V24.3757H75.2929V36.1552C75.2929 37.0227 75.1026 37.7608 74.7222 38.3696C74.3569 38.9935 73.8623 39.4653 73.2383 39.7849C72.6295 40.1197 71.9371 40.2872 71.1609 40.2872ZM73.8318 22.5951C73.3448 22.5951 72.9415 22.4353 72.6219 22.1157C72.3023 21.7809 72.1425 21.3699 72.1425 20.8829C72.1425 20.4111 72.3023 20.0078 72.6219 19.673C72.9415 19.3382 73.3448 19.1708 73.8318 19.1708C74.3341 19.1708 74.7374 19.3382 75.0418 19.673C75.3614 20.0078 75.5212 20.4111 75.5212 20.8829C75.5212 21.3699 75.3614 21.7809 75.0418 22.1157C74.7374 22.4353 74.3341 22.5951 73.8318 22.5951ZM83.3305 35.6301C82.1738 35.6301 81.1465 35.3866 80.2486 34.8996C79.3507 34.3974 78.6354 33.7125 78.1027 32.8451C77.5853 31.9776 77.3266 30.9883 77.3266 29.8774C77.3266 28.7816 77.5777 27.8076 78.0799 26.9553C78.5974 26.0878 79.2974 25.403 80.1801 24.9007C81.0628 24.3833 82.0445 24.1246 83.125 24.1246C84.1903 24.1246 85.1263 24.3681 85.9329 24.8551C86.7547 25.3269 87.3939 25.9813 87.8505 26.8183C88.3223 27.6402 88.5582 28.5761 88.5582 29.6262C88.5582 29.8241 88.543 30.0295 88.5125 30.2426C88.4973 30.4405 88.4593 30.6687 88.3984 30.9275L79.13 30.9503V28.7131L87.0059 28.6903L85.7959 29.6262C85.7655 28.9718 85.6438 28.4239 85.4307 27.9826C85.2328 27.5412 84.9361 27.2064 84.5404 26.9781C84.1599 26.7346 83.6881 26.6129 83.125 26.6129C82.5315 26.6129 82.014 26.7499 81.5727 27.0238C81.1313 27.2825 80.7889 27.6554 80.5454 28.1424C80.3171 28.6142 80.203 29.1773 80.203 29.8317C80.203 30.5013 80.3247 31.0873 80.5682 31.5895C80.8269 32.0765 81.1922 32.457 81.664 32.7309C82.1358 32.9896 82.6837 33.119 83.3076 33.119C83.8707 33.119 84.3806 33.0277 84.8371 32.8451C85.2937 32.6472 85.6894 32.3581 86.0242 31.9776L87.782 33.7354C87.2494 34.3594 86.5949 34.8311 85.8188 35.1507C85.0578 35.4703 84.2284 35.6301 83.3305 35.6301ZM95.7552 35.6301C94.629 35.6301 93.617 35.379 92.719 34.8768C91.8211 34.3746 91.1134 33.6897 90.596 32.8222C90.0785 31.9548 89.8198 30.9807 89.8198 29.9002C89.8198 28.8044 90.0785 27.8228 90.596 26.9553C91.1134 26.0878 91.8211 25.403 92.719 24.9007C93.6322 24.3833 94.6442 24.1246 95.7552 24.1246C96.6227 24.1246 97.4217 24.2844 98.1522 24.604C98.8827 24.9236 99.5143 25.3801 100.047 25.9737L98.1294 27.9141C97.8402 27.5945 97.4902 27.351 97.0793 27.1836C96.6836 27.0162 96.2422 26.9325 95.7552 26.9325C95.2073 26.9325 94.7127 27.0618 94.2714 27.3206C93.8452 27.5641 93.5028 27.9065 93.2441 28.3479C93.0006 28.774 92.8788 29.2838 92.8788 29.8774C92.8788 30.4557 93.0006 30.9731 93.2441 31.4297C93.5028 31.871 93.8452 32.2211 94.2714 32.4798C94.7127 32.7233 95.2073 32.8451 95.7552 32.8451C96.2575 32.8451 96.7064 32.7614 97.1021 32.594C97.513 32.4113 97.8631 32.1526 98.1522 31.8178L100.093 33.7582C99.5295 34.367 98.8827 34.8311 98.1522 35.1507C97.4217 35.4703 96.6227 35.6301 95.7552 35.6301ZM103.371 35.4019V19.7872H106.362V35.4019H103.371ZM100.792 27.001V24.3757H108.942V27.001H100.792ZM115.367 30.9275V28.2109H123.266V30.9275H115.367ZM136.774 35.6301C135.983 35.6301 135.268 35.4703 134.628 35.1507C133.989 34.8159 133.479 34.367 133.099 33.8039C132.718 33.2408 132.513 32.594 132.483 31.8634V27.9598C132.513 27.2293 132.718 26.5824 133.099 26.0193C133.495 25.441 134.004 24.9845 134.628 24.6496C135.268 24.3148 135.983 24.1474 136.774 24.1474C137.794 24.1474 138.707 24.3985 139.514 24.9007C140.32 25.403 140.952 26.0878 141.408 26.9553C141.88 27.8228 142.116 28.8044 142.116 29.9002C142.116 30.9807 141.88 31.9548 141.408 32.8222C140.952 33.6897 140.32 34.3746 139.514 34.8768C138.707 35.379 137.794 35.6301 136.774 35.6301ZM130.656 40.0132V24.3757H133.647V27.2749L133.145 29.9458L133.624 32.6168V40.0132H130.656ZM136.249 32.8679C136.797 32.8679 137.284 32.7461 137.71 32.5026C138.136 32.2439 138.464 31.8939 138.692 31.4525C138.935 30.996 139.057 30.4709 139.057 29.8774C139.057 29.299 138.935 28.7892 138.692 28.3479C138.464 27.8913 138.136 27.5412 137.71 27.2977C137.284 27.039 136.797 26.9097 136.249 26.9097C135.717 26.9097 135.237 27.039 134.811 27.2977C134.385 27.5412 134.05 27.8913 133.807 28.3479C133.578 28.7892 133.464 29.299 133.464 29.8774C133.464 30.4709 133.578 30.996 133.807 31.4525C134.05 31.8939 134.377 32.2439 134.788 32.5026C135.214 32.7461 135.701 32.8679 136.249 32.8679ZM144.22 35.4019V24.3757H147.21V35.4019H144.22ZM147.21 29.3066L146.046 28.5305C146.183 27.176 146.579 26.1107 147.233 25.3345C147.887 24.5431 148.831 24.1474 150.064 24.1474C150.596 24.1474 151.076 24.2387 151.502 24.4213C151.928 24.5888 152.316 24.8703 152.666 25.266L150.794 27.4119C150.627 27.2293 150.421 27.0923 150.178 27.001C149.95 26.9097 149.683 26.864 149.379 26.864C148.74 26.864 148.215 27.0695 147.804 27.4804C147.408 27.8761 147.21 28.4848 147.21 29.3066ZM158.729 35.6301C157.618 35.6301 156.614 35.379 155.716 34.8768C154.833 34.3594 154.125 33.6669 153.593 32.7994C153.075 31.9167 152.817 30.9351 152.817 29.8545C152.817 28.774 153.075 27.8076 153.593 26.9553C154.11 26.0878 154.818 25.403 155.716 24.9007C156.614 24.3833 157.611 24.1246 158.706 24.1246C159.833 24.1246 160.837 24.3833 161.72 24.9007C162.618 25.403 163.325 26.0878 163.843 26.9553C164.36 27.8076 164.619 28.774 164.619 29.8545C164.619 30.9351 164.36 31.9167 163.843 32.7994C163.325 33.6669 162.618 34.3594 161.72 34.8768C160.837 35.379 159.84 35.6301 158.729 35.6301ZM158.706 32.8451C159.27 32.8451 159.764 32.7233 160.19 32.4798C160.632 32.2211 160.966 31.871 161.195 31.4297C161.438 30.9731 161.56 30.4557 161.56 29.8774C161.56 29.299 161.438 28.7892 161.195 28.3479C160.951 27.9065 160.616 27.5641 160.19 27.3206C159.764 27.0618 159.27 26.9325 158.706 26.9325C158.159 26.9325 157.672 27.0618 157.245 27.3206C156.819 27.5641 156.484 27.9065 156.241 28.3479C155.997 28.7892 155.876 29.299 155.876 29.8774C155.876 30.4557 155.997 30.9731 156.241 31.4297C156.484 31.871 156.819 32.2211 157.245 32.4798C157.672 32.7233 158.159 32.8451 158.706 32.8451ZM165.797 40.2872C165.005 40.2872 164.351 40.1578 163.833 39.8991C163.301 39.6403 162.821 39.2751 162.395 38.8033L164.29 36.9085C164.473 37.1368 164.67 37.2966 164.883 37.3879C165.081 37.4945 165.317 37.5477 165.591 37.5477C165.972 37.5477 166.291 37.4336 166.55 37.2053C166.809 36.977 166.938 36.6422 166.938 36.2009V24.3757H169.929V36.1552C169.929 37.0227 169.738 37.7608 169.358 38.3696C168.993 38.9935 168.498 39.4653 167.874 39.7849C167.265 40.1197 166.573 40.2872 165.797 40.2872ZM168.468 22.5951C167.981 22.5951 167.577 22.4353 167.258 22.1157C166.938 21.7809 166.778 21.3699 166.778 20.8829C166.778 20.4111 166.938 20.0078 167.258 19.673C167.577 19.3382 167.981 19.1708 168.468 19.1708C168.97 19.1708 169.373 19.3382 169.677 19.673C169.997 20.0078 170.157 20.4111 170.157 20.8829C170.157 21.3699 169.997 21.7809 169.677 22.1157C169.373 22.4353 168.97 22.5951 168.468 22.5951ZM177.966 35.6301C176.81 35.6301 175.782 35.3866 174.884 34.8996C173.986 34.3974 173.271 33.7125 172.738 32.8451C172.221 31.9776 171.962 30.9883 171.962 29.8774C171.962 28.7816 172.213 27.8076 172.716 26.9553C173.233 26.0878 173.933 25.403 174.816 24.9007C175.699 24.3833 176.68 24.1246 177.761 24.1246C178.826 24.1246 179.762 24.3681 180.569 24.8551C181.39 25.3269 182.03 25.9813 182.486 26.8183C182.958 27.6402 183.194 28.5761 183.194 29.6262C183.194 29.8241 183.179 30.0295 183.148 30.2426C183.133 30.4405 183.095 30.6687 183.034 30.9275L173.766 30.9503V28.7131L181.642 28.6903L180.432 29.6262C180.401 28.9718 180.279 28.4239 180.066 27.9826C179.869 27.5412 179.572 27.2064 179.176 26.9781C178.796 26.7346 178.324 26.6129 177.761 26.6129C177.167 26.6129 176.65 26.7499 176.208 27.0238C175.767 27.2825 175.425 27.6554 175.181 28.1424C174.953 28.6142 174.839 29.1773 174.839 29.8317C174.839 30.5013 174.96 31.0873 175.204 31.5895C175.463 32.0765 175.828 32.457 176.3 32.7309C176.771 32.9896 177.319 33.119 177.943 33.119C178.506 33.119 179.016 33.0277 179.473 32.8451C179.929 32.6472 180.325 32.3581 180.66 31.9776L182.418 33.7354C181.885 34.3594 181.231 34.8311 180.454 35.1507C179.694 35.4703 178.864 35.6301 177.966 35.6301ZM190.391 35.6301C189.265 35.6301 188.253 35.379 187.355 34.8768C186.457 34.3746 185.749 33.6897 185.232 32.8222C184.714 31.9548 184.456 30.9807 184.456 29.9002C184.456 28.8044 184.714 27.8228 185.232 26.9553C185.749 26.0878 186.457 25.403 187.355 24.9007C188.268 24.3833 189.28 24.1246 190.391 24.1246C191.258 24.1246 192.057 24.2844 192.788 24.604C193.518 24.9236 194.15 25.3801 194.683 25.9737L192.765 27.9141C192.476 27.5945 192.126 27.351 191.715 27.1836C191.319 27.0162 190.878 26.9325 190.391 26.9325C189.843 26.9325 189.348 27.0618 188.907 27.3206C188.481 27.5641 188.139 27.9065 187.88 28.3479C187.636 28.774 187.515 29.2838 187.515 29.8774C187.515 30.4557 187.636 30.9731 187.88 31.4297C188.139 31.871 188.481 32.2211 188.907 32.4798C189.348 32.7233 189.843 32.8451 190.391 32.8451C190.893 32.8451 191.342 32.7614 191.738 32.594C192.149 32.4113 192.499 32.1526 192.788 31.8178L194.728 33.7582C194.165 34.367 193.518 34.8311 192.788 35.1507C192.057 35.4703 191.258 35.6301 190.391 35.6301ZM198.007 35.4019V19.7872H200.998V35.4019H198.007ZM195.427 27.001V24.3757H203.577V27.001H195.427ZM214.98 35.6301C213.686 35.6301 212.575 35.4095 211.647 34.9681C210.734 34.5268 209.904 33.8647 209.158 32.982L211.213 30.9275C211.685 31.5514 212.233 32.0385 212.857 32.3885C213.481 32.7233 214.242 32.8907 215.14 32.8907C215.946 32.8907 216.585 32.7309 217.057 32.4113C217.544 32.0917 217.788 31.6504 217.788 31.0873C217.788 30.6003 217.651 30.2046 217.377 29.9002C217.103 29.5958 216.738 29.3371 216.281 29.124C215.84 28.911 215.345 28.7207 214.797 28.5533C214.264 28.3707 213.724 28.1652 213.176 27.9369C212.644 27.7087 212.149 27.4271 211.692 27.0923C211.251 26.7422 210.893 26.3009 210.619 25.7682C210.346 25.2203 210.209 24.5355 210.209 23.7137C210.209 22.7397 210.444 21.9102 210.916 21.2254C211.388 20.5405 212.035 20.0155 212.857 19.6502C213.678 19.2849 214.607 19.1023 215.642 19.1023C216.738 19.1023 217.727 19.3078 218.609 19.7187C219.492 20.1296 220.215 20.6623 220.778 21.3167L218.724 23.3712C218.252 22.8538 217.765 22.4733 217.263 22.2298C216.776 21.9863 216.22 21.8646 215.596 21.8646C214.881 21.8646 214.318 22.0015 213.907 22.2755C213.496 22.5494 213.29 22.9451 213.29 23.4626C213.29 23.9039 213.427 24.2616 213.701 24.5355C213.975 24.8094 214.333 25.0453 214.774 25.2432C215.231 25.441 215.725 25.6313 216.258 25.8139C216.806 25.9965 217.346 26.202 217.879 26.4303C218.427 26.6585 218.921 26.9553 219.363 27.3206C219.819 27.6858 220.185 28.1576 220.459 28.7359C220.732 29.299 220.869 29.9991 220.869 30.8362C220.869 32.3276 220.344 33.4995 219.294 34.3517C218.244 35.204 216.806 35.6301 214.98 35.6301ZM224.764 35.4019V19.7872H227.754V35.4019H224.764ZM222.184 27.001V24.3757H230.334V27.001H222.184ZM236.502 35.6301C235.498 35.6301 234.592 35.379 233.786 34.8768C232.979 34.3746 232.347 33.6897 231.891 32.8222C231.434 31.9548 231.206 30.9807 231.206 29.9002C231.206 28.8044 231.434 27.8228 231.891 26.9553C232.347 26.0878 232.979 25.403 233.786 24.9007C234.592 24.3985 235.498 24.1474 236.502 24.1474C237.294 24.1474 238.001 24.3072 238.625 24.6268C239.249 24.9464 239.744 25.3954 240.109 25.9737C240.49 26.5368 240.695 27.176 240.725 27.8913V31.8634C240.695 32.594 240.49 33.2408 240.109 33.8039C239.744 34.367 239.249 34.8159 238.625 35.1507C238.001 35.4703 237.294 35.6301 236.502 35.6301ZM237.05 32.8679C237.887 32.8679 238.564 32.594 239.082 32.0461C239.599 31.483 239.858 30.7601 239.858 29.8774C239.858 29.299 239.736 28.7892 239.493 28.3479C239.264 27.8913 238.937 27.5412 238.511 27.2977C238.1 27.039 237.613 26.9097 237.05 26.9097C236.502 26.9097 236.015 27.039 235.589 27.2977C235.178 27.5412 234.851 27.8913 234.607 28.3479C234.379 28.7892 234.265 29.299 234.265 29.8774C234.265 30.4709 234.379 30.996 234.607 31.4525C234.851 31.8939 235.178 32.2439 235.589 32.5026C236.015 32.7461 236.502 32.8679 237.05 32.8679ZM239.698 35.4019V32.4342L240.178 29.7404L239.698 27.0923V24.3757H242.666V35.4019H239.698ZM245.454 35.4019V24.3757H248.445V35.4019H245.454ZM248.445 29.3066L247.28 28.5305C247.417 27.176 247.813 26.1107 248.467 25.3345C249.122 24.5431 250.065 24.1474 251.298 24.1474C251.831 24.1474 252.31 24.2387 252.736 24.4213C253.163 24.5888 253.551 24.8703 253.901 25.266L252.029 27.4119C251.861 27.2293 251.656 27.0923 251.412 27.001C251.184 26.9097 250.918 26.864 250.613 26.864C249.974 26.864 249.449 27.0695 249.038 27.4804C248.643 27.8761 248.445 28.4848 248.445 29.3066ZM256.782 35.4019V19.7872H259.772V35.4019H256.782ZM254.202 27.001V24.3757H262.352V27.001H254.202ZM269.182 35.6301C268.025 35.6301 266.998 35.3866 266.1 34.8996C265.202 34.3974 264.487 33.7125 263.954 32.8451C263.437 31.9776 263.178 30.9883 263.178 29.8774C263.178 28.7816 263.429 27.8076 263.931 26.9553C264.449 26.0878 265.149 25.403 266.032 24.9007C266.914 24.3833 267.896 24.1246 268.977 24.1246C270.042 24.1246 270.978 24.3681 271.784 24.8551C272.606 25.3269 273.246 25.9813 273.702 26.8183C274.174 27.6402 274.41 28.5761 274.41 29.6262C274.41 29.8241 274.395 30.0295 274.364 30.2426C274.349 30.4405 274.311 30.6687 274.25 30.9275L264.982 30.9503V28.7131L272.857 28.6903L271.648 29.6262C271.617 28.9718 271.495 28.4239 271.282 27.9826C271.084 27.5412 270.788 27.2064 270.392 26.9781C270.011 26.7346 269.54 26.6129 268.977 26.6129C268.383 26.6129 267.866 26.7499 267.424 27.0238C266.983 27.2825 266.64 27.6554 266.397 28.1424C266.169 28.6142 266.055 29.1773 266.055 29.8317C266.055 30.5013 266.176 31.0873 266.42 31.5895C266.679 32.0765 267.044 32.457 267.516 32.7309C267.987 32.9896 268.535 33.119 269.159 33.119C269.722 33.119 270.232 33.0277 270.689 32.8451C271.145 32.6472 271.541 32.3581 271.876 31.9776L273.634 33.7354C273.101 34.3594 272.447 34.8311 271.67 35.1507C270.909 35.4703 270.08 35.6301 269.182 35.6301ZM281.059 35.6301C280.039 35.6301 279.126 35.379 278.319 34.8768C277.513 34.3746 276.874 33.6897 276.402 32.8222C275.945 31.9548 275.717 30.9807 275.717 29.9002C275.717 28.8044 275.945 27.8228 276.402 26.9553C276.874 26.0878 277.505 25.403 278.297 24.9007C279.103 24.3985 280.024 24.1474 281.059 24.1474C281.85 24.1474 282.558 24.3072 283.182 24.6268C283.821 24.9464 284.331 25.3954 284.711 25.9737C285.107 26.5368 285.32 27.176 285.351 27.8913V31.8178C285.32 32.5331 285.115 33.1799 284.734 33.7582C284.354 34.3365 283.844 34.7931 283.205 35.1279C282.566 35.4627 281.85 35.6301 281.059 35.6301ZM281.561 32.8679C282.124 32.8679 282.611 32.7461 283.022 32.5026C283.448 32.2439 283.776 31.8939 284.004 31.4525C284.247 30.996 284.369 30.4709 284.369 29.8774C284.369 29.299 284.247 28.7892 284.004 28.3479C283.776 27.8913 283.448 27.5412 283.022 27.2977C282.611 27.039 282.132 26.9097 281.584 26.9097C281.021 26.9097 280.526 27.039 280.1 27.2977C279.689 27.5565 279.362 27.9065 279.118 28.3479C278.89 28.7892 278.776 29.299 278.776 29.8774C278.776 30.4709 278.89 30.996 279.118 31.4525C279.362 31.8939 279.697 32.2439 280.123 32.5026C280.549 32.7461 281.028 32.8679 281.561 32.8679ZM287.177 35.4019H284.209V32.4342L284.689 29.7404L284.186 27.0923V18.8969H287.177V35.4019ZM300.685 35.6301C299.893 35.6301 299.178 35.4627 298.539 35.1279C297.9 34.7931 297.39 34.3365 297.009 33.7582C296.629 33.1799 296.423 32.5331 296.393 31.8178V27.8913C296.423 27.176 296.629 26.5368 297.009 25.9737C297.405 25.3954 297.922 24.9464 298.562 24.6268C299.201 24.3072 299.908 24.1474 300.685 24.1474C301.704 24.1474 302.617 24.3985 303.424 24.9007C304.231 25.403 304.862 26.0878 305.319 26.9553C305.791 27.8228 306.027 28.8044 306.027 29.9002C306.027 30.9807 305.791 31.9548 305.319 32.8222C304.862 33.6897 304.231 34.3746 303.424 34.8768C302.617 35.379 301.704 35.6301 300.685 35.6301ZM294.567 35.4019V18.8969H297.557V27.0923L297.055 29.7404L297.534 32.4342V35.4019H294.567ZM300.182 32.8679C300.73 32.8679 301.21 32.7461 301.621 32.5026C302.047 32.2439 302.374 31.8939 302.602 31.4525C302.846 30.996 302.967 30.4709 302.967 29.8774C302.967 29.299 302.846 28.7892 302.602 28.3479C302.374 27.8913 302.047 27.5412 301.621 27.2977C301.194 27.039 300.707 26.9097 300.16 26.9097C299.612 26.9097 299.125 27.039 298.699 27.2977C298.288 27.5412 297.96 27.8913 297.717 28.3479C297.489 28.7892 297.375 29.299 297.375 29.8774C297.375 30.4709 297.489 30.996 297.717 31.4525C297.96 31.8939 298.295 32.2439 298.721 32.5026C299.148 32.7461 299.635 32.8679 300.182 32.8679ZM311.265 35.4932L306.654 24.3757H309.896L312.955 32.8679H311.859L315.032 24.3757H318.297L313.389 35.4932H311.265ZM308.206 40.0132L311.562 32.9135L313.389 35.4932L311.38 40.0132H308.206ZM324.875 35.4019V19.3534H327.067L333.573 29.7632H332.317L338.801 19.3534H340.992V35.4019H337.91V24.6725L338.504 24.8551L333.984 32.1146H331.884L327.364 24.8551L327.98 24.6725V35.4019H324.875ZM349.276 35.6301C348.165 35.6301 347.16 35.379 346.262 34.8768C345.38 34.3594 344.672 33.6669 344.139 32.7994C343.622 31.9167 343.363 30.9351 343.363 29.8545C343.363 28.774 343.622 27.8076 344.139 26.9553C344.657 26.0878 345.365 25.403 346.262 24.9007C347.16 24.3833 348.157 24.1246 349.253 24.1246C350.379 24.1246 351.384 24.3833 352.266 24.9007C353.164 25.403 353.872 26.0878 354.389 26.9553C354.907 27.8076 355.166 28.774 355.166 29.8545C355.166 30.9351 354.907 31.9167 354.389 32.7994C353.872 33.6669 353.164 34.3594 352.266 34.8768C351.384 35.379 350.387 35.6301 349.276 35.6301ZM349.253 32.8451C349.816 32.8451 350.311 32.7233 350.737 32.4798C351.178 32.2211 351.513 31.871 351.741 31.4297C351.985 30.9731 352.107 30.4557 352.107 29.8774C352.107 29.299 351.985 28.7892 351.741 28.3479C351.498 27.9065 351.163 27.5641 350.737 27.3206C350.311 27.0618 349.816 26.9325 349.253 26.9325C348.705 26.9325 348.218 27.0618 347.792 27.3206C347.366 27.5641 347.031 27.9065 346.787 28.3479C346.544 28.7892 346.422 29.299 346.422 29.8774C346.422 30.4557 346.544 30.9731 346.787 31.4297C347.031 31.871 347.366 32.2211 347.792 32.4798C348.218 32.7233 348.705 32.8451 349.253 32.8451ZM364.653 35.4019V29.0784C364.653 28.4239 364.447 27.8913 364.036 27.4804C363.625 27.0695 363.093 26.864 362.438 26.864C362.012 26.864 361.632 26.9553 361.297 27.1379C360.962 27.3206 360.696 27.5793 360.498 27.9141C360.315 28.2489 360.224 28.637 360.224 29.0784L359.06 28.4848C359.06 27.6173 359.242 26.864 359.608 26.2248C359.988 25.5704 360.506 25.0605 361.16 24.6953C361.83 24.33 362.583 24.1474 363.42 24.1474C364.227 24.1474 364.95 24.3529 365.589 24.7638C366.228 25.1595 366.73 25.6845 367.095 26.3389C367.461 26.9781 367.643 27.6706 367.643 28.4163V35.4019H364.653ZM357.234 35.4019V24.3757H360.224V35.4019H357.234ZM371.682 35.4019V19.7872H374.672V35.4019H371.682ZM369.102 27.001V24.3757H377.252V27.001H369.102ZM386.496 35.4019V29.0784C386.496 28.4239 386.29 27.8913 385.88 27.4804C385.469 27.0695 384.936 26.864 384.282 26.864C383.855 26.864 383.475 26.9553 383.14 27.1379C382.805 27.3206 382.539 27.5793 382.341 27.9141C382.158 28.2489 382.067 28.637 382.067 29.0784L380.903 28.4848C380.903 27.6173 381.086 26.864 381.451 26.2248C381.816 25.5704 382.318 25.0605 382.957 24.6953C383.612 24.33 384.358 24.1474 385.195 24.1474C386.032 24.1474 386.77 24.33 387.409 24.6953C388.063 25.0605 388.573 25.5628 388.939 26.202C389.304 26.8412 389.486 27.5793 389.486 28.4163V35.4019H386.496ZM379.077 35.4019V18.8969H382.067V35.4019H379.077Z" fill="#171725"/>
<defs>
<filter id="filter0_d_524_5123" x="405.163" y="182.342" width="43.1943" height="30.5432" filterUnits="userSpaceOnUse" color-interpolation-filters="sRGB">
<feFlood flood-opacity="0" result="BackgroundImageFix"/>
<feColorMatrix in="SourceAlpha" type="matrix" values="0 0 0 0 0 0 0 0 0 0 0 0 0 0 0 0 0 0 127 0" result="hardAlpha"/>
<feOffset dy="2.85356"/>
<feGaussianBlur stdDeviation="2.85356"/>
<feColorMatrix type="matrix" values="0 0 0 0 0.268354 0 0 0 0 0.268354 0 0 0 0 0.31049 0 0 0 0.15 0"/>
<feBlend mode="normal" in2="BackgroundImageFix" result="effect1_dropShadow_524_5123"/>
<feBlend mode="normal" in="SourceGraphic" in2="effect1_dropShadow_524_5123" result="shape"/>
</filter>
<filter id="filter1_d_524_5123" x="316.598" y="79.6487" width="213.053" height="127.516" filterUnits="userSpaceOnUse" color-interpolation-filters="sRGB">
<feFlood flood-opacity="0" result="BackgroundImageFix"/>
<feColorMatrix in="SourceAlpha" type="matrix" values="0 0 0 0 0 0 0 0 0 0 0 0 0 0 0 0 0 0 127 0" result="hardAlpha"/>
<feOffset dy="7.1339"/>
<feGaussianBlur stdDeviation="10.7009"/>
<feColorMatrix type="matrix" values="0 0 0 0 0.268354 0 0 0 0 0.268354 0 0 0 0 0.31049 0 0 0 0.1 0"/>
<feBlend mode="normal" in2="BackgroundImageFix" result="effect1_dropShadow_524_5123"/>
<feBlend mode="normal" in="SourceGraphic" in2="effect1_dropShadow_524_5123" result="shape"/>
</filter>
<clipPath id="clip0_524_5123">
<rect width="49.94" height="272.674" fill="white" transform="translate(603.82 83.3262)"/>
</clipPath>
<clipPath id="clip1_524_5123">
<rect width="54.48" height="272.674" fill="white" transform="translate(503.94 83.3262)"/>
</clipPath>
<clipPath id="clip2_524_5123">
<rect width="56.75" height="272.674" fill="white" transform="translate(401.79 83.3262)"/>
</clipPath>
<clipPath id="clip3_524_5123">
<rect width="45.4" height="272.674" fill="white" transform="translate(310.99 83.3262)"/>
</clipPath>
<clipPath id="clip4_524_5123">
<rect width="54.48" height="272.674" fill="white" transform="translate(211.11 83.3262)"/>
</clipPath>
<clipPath id="clip5_524_5123">
<rect width="61.29" height="272.674" fill="white" transform="translate(104.42 83.3262)"/>
</clipPath>
<clipPath id="clip6_524_5123">
<rect width="52.21" height="272.674" fill="white" transform="translate(6.80994 83.3262)"/>
</clipPath>
<clipPath id="clip7_524_5123">
<rect width="29.51" height="32.7921" fill="white" transform="translate(45.4 89.5518)"/>
</clipPath>
<clipPath id="clip8_524_5123">
<rect width="15.89" height="32.7921" fill="white" transform="translate(40.02 328.829)"/>
</clipPath>
<clipPath id="clip9_524_5123">
<rect width="47.67" height="32.7921" fill="white" transform="translate(27.2399 275.374)"/>
</clipPath>
<clipPath id="clip10_524_5123">
<rect width="47.67" height="32.7921" fill="white" transform="translate(27.2399 228.918)"/>
</clipPath>
<clipPath id="clip11_524_5123">
<rect width="47.67" height="32.7921" fill="white" transform="translate(27.2399 182.462)"/>
</clipPath>
<clipPath id="clip12_524_5123">
<rect width="47.67" height="32.7921" fill="white" transform="translate(27.2399 136.007)"/>
</clipPath>
<clipPath id="clip13_524_5123">
<rect width="170.25" height="84.7129" fill="white" transform="translate(338 93.9165)"/>
</clipPath>
</defs>
</svg>
