<svg width="19" height="18" viewBox="0 0 19 18" fill="none" xmlns="http://www.w3.org/2000/svg">
<path d="M4.68068 3.34326C2.09969 3.34326 0 5.44296 0 8.02394C0 9.25468 0.575295 11.0514 1.46534 12.6011C2.47943 14.3666 3.65124 15.3793 4.68068 15.3793C5.71011 15.3793 6.88192 14.3666 7.89602 12.6011C8.78606 11.0514 9.36132 9.25464 9.36132 8.02394C9.36135 5.44296 7.26162 3.34326 4.68068 3.34326ZM4.68068 14.7106C3.2281 14.7106 0.668668 10.8451 0.668668 8.02394C0.668668 5.81176 2.46832 4.01193 4.68068 4.01193C6.89303 4.01193 8.69268 5.81176 8.69268 8.02394C8.69265 10.845 6.13325 14.7106 4.68068 14.7106Z" fill="white"/>
<path d="M4.68065 5.68359C3.39032 5.68359 2.34033 6.73344 2.34033 8.02391C2.34033 9.31439 3.39036 10.3642 4.68065 10.3642C5.97095 10.3642 7.02097 9.31439 7.02097 8.02391C7.02097 6.73344 5.97095 5.68359 4.68065 5.68359ZM4.68065 9.69557C3.75895 9.69557 3.009 8.94559 3.009 8.02391C3.009 7.10221 3.75898 6.35226 4.68065 6.35226C5.60236 6.35226 6.3523 7.10221 6.3523 8.02391C6.3523 8.94562 5.60236 9.69557 4.68065 9.69557Z" fill="white"/>
<path d="M14.7107 0C12.8673 0 11.3674 1.49975 11.3674 3.34334C11.3674 5.02659 13.3992 8.35833 14.7107 8.35833C16.0223 8.35833 18.0541 5.02659 18.0541 3.34334C18.0541 1.49979 16.5541 0 14.7107 0ZM14.7107 7.68966C14.0088 7.68966 12.036 4.94595 12.036 3.34334C12.036 1.86855 13.2359 0.668668 14.7107 0.668668C16.1855 0.668668 17.3854 1.86855 17.3854 3.34334C17.3854 4.94595 15.4127 7.68966 14.7107 7.68966Z" fill="white"/>
<path d="M14.7106 1.67188C13.7889 1.67188 13.0389 2.42182 13.0389 3.34353C13.0389 4.26523 13.7889 5.01518 14.7106 5.01518C15.6323 5.01518 16.3822 4.2652 16.3822 3.34353C16.3823 2.42182 15.6323 1.67188 14.7106 1.67188ZM14.7106 4.34655C14.1575 4.34655 13.7076 3.89664 13.7076 3.34356C13.7076 2.79048 14.1575 2.34058 14.7106 2.34058C15.2637 2.34058 15.7136 2.79048 15.7136 3.34356C15.7136 3.89661 15.2637 4.34655 14.7106 4.34655Z" fill="white"/>
<path d="M12.2502 12.4478C11.8473 12.1123 11.6619 11.7585 11.6824 11.3662C11.7281 10.4916 12.8114 9.58162 13.2248 9.30492C13.378 9.20224 13.4194 8.99476 13.3169 8.8413C13.2144 8.68766 13.0064 8.64605 12.8536 8.74873C12.7814 8.79673 11.0889 9.94062 11.0148 11.3295C10.9821 11.9388 11.2538 12.488 11.8219 12.9614C13.0616 13.9946 13.7492 15.0403 13.5732 15.6258C13.423 16.1248 12.6342 16.3137 11.9992 16.3844C9.12173 16.7045 6.84114 15.7502 6.81797 15.7405C6.64787 15.6676 6.45196 15.7469 6.37949 15.9165C6.307 16.0863 6.38538 16.2825 6.55513 16.3552C6.63937 16.3914 8.37111 17.1198 10.7823 17.1198C11.194 17.1198 11.6263 17.0986 12.073 17.0488C13.2885 16.9138 14.0084 16.4998 14.2135 15.8183C14.5762 14.6115 13.139 13.1886 12.2502 12.4478Z" fill="white"/>
</svg>
