<svg width="36" height="36" viewBox="0 0 36 36" fill="none" xmlns="http://www.w3.org/2000/svg">
<rect width="36" height="36" rx="8" fill="#FEECEE"/>
<path d="M19.1813 19.8735H17.8176V22.5121H19.1813V19.8735Z" fill="#D03847"/>
<path d="M22.5907 18.5542H21.2271V22.5121H22.5907V18.5542Z" fill="#D03847"/>
<path d="M15.7731 15.9155H14.4094V22.512H15.7731V15.9155Z" fill="#D03847"/>
<path d="M24.6364 9.97893H22.5909V9.31929C22.5909 8.96939 22.4472 8.63382 22.1915 8.38641C21.9358 8.139 21.5889 8 21.2273 8H15.7727C15.4111 8 15.0642 8.139 14.8085 8.38641C14.5528 8.63382 14.4091 8.96939 14.4091 9.31929V9.97893H12.3636C12.002 9.97893 11.6551 10.1179 11.3994 10.3653C11.1437 10.6128 11 10.9483 11 11.2982V25.1507C11 25.5006 11.1437 25.8362 11.3994 26.0836C11.6551 26.331 12.002 26.47 12.3636 26.47H24.6364C24.998 26.47 25.3449 26.331 25.6006 26.0836C25.8563 25.8362 26 25.5006 26 25.1507V11.2982C26 10.9483 25.8563 10.6128 25.6006 10.3653C25.3449 10.1179 24.998 9.97893 24.6364 9.97893ZM15.7727 9.31929H21.2273V11.9579H15.7727V9.31929ZM24.6364 25.1507H12.3636V11.2982H14.4091V13.2771H22.5909V11.2982H24.6364V25.1507Z" fill="#D03847"/>
</svg>
