<svg width="10" height="6" viewBox="0 0 10 6" fill="none" xmlns="http://www.w3.org/2000/svg">
<path d="M1.27322 5.66656H8.72655C8.8584 5.66601 8.98712 5.62638 9.09644 5.55267C9.20577 5.47896 9.29078 5.37449 9.34073 5.25247C9.39068 5.13045 9.40333 4.99635 9.37707 4.86714C9.35081 4.73794 9.28683 4.61941 9.19322 4.52657L5.47322 0.806574C5.41124 0.744088 5.33751 0.694492 5.25627 0.660646C5.17503 0.626801 5.08789 0.609375 4.99988 0.609375C4.91187 0.609375 4.82474 0.626801 4.7435 0.660646C4.66226 0.694492 4.58852 0.744088 4.52655 0.806574L0.80655 4.52657C0.712935 4.61941 0.648954 4.73794 0.622698 4.86714C0.596441 4.99635 0.609087 5.13045 0.659037 5.25247C0.708988 5.37449 0.793999 5.47896 0.903321 5.55267C1.01264 5.62638 1.14137 5.66601 1.27322 5.66656V5.66656Z" fill="#1A9882"/>
</svg>
