<svg width="18" height="13" viewBox="0 0 18 13" fill="none" xmlns="http://www.w3.org/2000/svg">
<path d="M1.02375 0C0.462656 0 0 0.451541 0 0.999155V10.1892C0 10.7725 0.482344 11.2432 1.08 11.2432H2.55375C2.72531 12.2397 3.61266 13 4.68 13C5.74734 13 6.63469 12.2397 6.80625 11.2432H10.1363C10.402 11.2432 10.6397 11.1334 10.8225 10.9688C11.0095 11.1293 11.2486 11.2405 11.52 11.2432H11.9138C12.0853 12.2397 12.9727 13 14.04 13C15.2283 13 16.2 12.0516 16.2 10.8919C16.2 9.73216 15.2283 8.78378 14.04 8.78378C12.9727 8.78378 12.0853 9.54413 11.9138 10.5405H11.52C11.4525 10.5405 11.3498 10.4952 11.2725 10.4198C11.1952 10.3443 11.16 10.2537 11.16 10.1892V3.51351C11.16 3.38176 11.385 3.16216 11.52 3.16216H14.4C14.6827 3.16216 15.0806 3.45724 15.3563 3.77703C15.3591 3.78114 15.3647 3.78389 15.3675 3.78801L15.4238 3.86486H13.68C13.1063 3.86486 12.6 4.31778 12.6 4.91892V6.32432C12.6 6.61666 12.735 6.87331 12.9263 7.05997C13.1175 7.24662 13.3805 7.37838 13.68 7.37838H17.28V10.1892C17.28 10.3209 17.055 10.5405 16.92 10.5405H16.2V11.2432H16.92C17.5177 11.2432 18 10.7725 18 10.1892V6.80743C18 6.00317 17.4263 5.29223 17.4263 5.29223H17.415L15.93 3.3598V3.34882L15.9188 3.33784C15.5869 2.94669 15.0891 2.45946 14.4 2.45946H11.52C11.392 2.45946 11.2739 2.48554 11.16 2.52534V1.02111C11.16 0.481736 10.7241 0 10.1475 0H1.02375ZM1.02375 0.702703H10.1475C10.3022 0.702703 10.44 0.848184 10.44 1.02111V10.2441C10.44 10.4088 10.3064 10.5405 10.1363 10.5405H6.80625C6.63469 9.54413 5.74734 8.78378 4.68 8.78378C3.61266 8.78378 2.72531 9.54413 2.55375 10.5405H1.08C0.945 10.5405 0.72 10.3196 0.72 10.1892V0.999155C0.72 0.834459 0.852188 0.702703 1.02375 0.702703ZM13.68 4.56757H15.9638L16.8413 5.70946C16.8413 5.70946 17.1675 6.25433 17.235 6.67568H13.68C13.6195 6.67568 13.5225 6.63176 13.4438 6.5549C13.365 6.47804 13.32 6.38334 13.32 6.32432V4.91892C13.32 4.74187 13.5338 4.56757 13.68 4.56757ZM4.68 9.48649C5.48016 9.48649 6.12 10.111 6.12 10.8919C6.12 11.6728 5.48016 12.2973 4.68 12.2973C3.87984 12.2973 3.24 11.6728 3.24 10.8919C3.24 10.111 3.87984 9.48649 4.68 9.48649ZM14.04 9.48649C14.8402 9.48649 15.48 10.111 15.48 10.8919C15.48 11.6728 14.8402 12.2973 14.04 12.2973C13.2398 12.2973 12.6 11.6728 12.6 10.8919C12.6 10.111 13.2398 9.48649 14.04 9.48649Z" fill="white"/>
</svg>
